<?xml version="1.0" encoding="UTF-8"?>
<!-- Generator: Adobe Illustrator 19.0.0, SVG Export Plug-In . SVG Version: 6.00 Build 0)  -->
<svg version="1.1" id="Layer_1" xmlns="http://www.w3.org/2000/svg" xmlns:xlink="http://www.w3.org/1999/xlink" x="0px" y="0px" viewBox="170 -100 640 500" style="enable-background:new 170 -100 640 500;" xml:space="preserve">
<style type="text/css">
	.st0{opacity:0.66;fill:#0086D1;enable-background:new    ;}
	.st1{fill:#FFFFFF;}
	.st2{fill:none;}
	.st3{fill:none;stroke:#191919;stroke-width:13;stroke-miterlimit:10;}
	.st4{fill:#2B2B2B;}
	.st5{opacity:0.49;enable-background:new    ;}
	.st6{fill:#BCDAF3;}
	.st7{opacity:0.49;fill:#BCDAF3;enable-background:new    ;}
	.st8{fill:#191919;}
	.st9{fill:#CCEDAE;}
	.st10{fill:#333333;}
	.st11{font-family:'ArialMT';}
	.st12{font-size:50.3495px;}
	.st13{fill:none;stroke:#9B9B9B;stroke-miterlimit:10;}
	.st14{fill:none;stroke:#9B9B9B;stroke-miterlimit:10;stroke-dasharray:7.8603,7.8603;}
	.st15{fill:none;stroke:#9B9B9B;stroke-miterlimit:10;stroke-dasharray:5.9351,5.9351;}
	.st16{fill:none;stroke:#9B9B9B;stroke-miterlimit:10;stroke-dasharray:6.9394,6.9394;}
	.st17{fill:none;stroke:#9B9B9B;stroke-miterlimit:10;stroke-dasharray:5.9695,5.9695;}
	.st18{fill:none;stroke:#9B9B9B;stroke-miterlimit:10;stroke-dasharray:7;}
	.st19{fill:none;stroke:#9B9B9B;stroke-miterlimit:10;stroke-dasharray:7.2765,7.2765;}
	.st20{clip-path:url(#SVGID_2_);}
	.st21{fill:url(#SVGID_3_);}
	.st22{clip-path:url(#SVGID_5_);}
	.st23{fill:url(#SVGID_6_);}
	.st24{clip-path:url(#SVGID_8_);}
	.st25{fill:url(#SVGID_9_);}
	.st26{fill:none;stroke:#6CA442;stroke-width:6;stroke-linecap:round;stroke-linejoin:round;stroke-miterlimit:10;}
	.st27{font-family:'Montserrat-Bold';}
	.st28{font-size:31px;}
	.st29{fill:none;stroke:#155B06;stroke-width:5;stroke-linecap:round;stroke-linejoin:round;stroke-miterlimit:10;}
	.st30{fill:#689F63;}
	.st31{fill:#404137;}
	.st32{clip-path:url(#SVGID_11_);fill:url(#SVGID_12_);}
	.st33{clip-path:url(#SVGID_14_);fill:url(#SVGID_15_);}
	.st34{clip-path:url(#SVGID_17_);fill:url(#SVGID_18_);}
</style>
<g id="desktop">
	<path id="settings" class="st0" d="M673.7,205.1c10.3,0.3,18.4,8.8,18.2,19.1c-0.3,10.3-8.8,18.4-19.1,18.2   c-4.4-0.1-8.3-1.7-11.5-4.3l-0.2,30c0.5,0.2,1,0.3,1.4,0.4c0.5,0.1,0.9-0.1,1.3-0.4l5.8-7.9c0.3-0.3,0.5-0.5,1-0.5l3.7,0.1   c0.4,0,0.7,0.2,0.9,0.5l5.7,8.2c0.3,0.3,0.7,0.5,1.1,0.5c6.8-0.8,14.2-5.1,16.4-6.4c0.4-0.3,0.5-0.7,0.5-1.1l-1.4-9.7   c-0.1-0.4,0.1-0.7,0.3-1l2.6-2.7c0.3-0.3,0.7-0.4,1.1-0.3l9.5,2.1c0.5,0.1,0.9-0.1,1.3-0.4c4.4-6.1,6.8-13.9,7.4-16.3   c0.1-0.5-0.1-0.9-0.4-1.3l-8.3-6c-0.3-0.2-0.5-0.5-0.5-0.9v-3.8c0-0.4,0.2-0.8,0.5-1l8.5-5.2c0.4-0.3,0.7-0.8,0.5-1.3   c-2.6-9.7-5.7-14.8-6.8-16.4c-0.3-0.4-0.7-0.5-1.1-0.5l-9.3,1.4c-0.4,0.1-0.8-0.1-1.1-0.4l-2.8-3.2c-0.3-0.3-0.3-0.7-0.3-1.1   l2.1-8.7c0.1-0.5-0.1-1-0.5-1.3c-7.8-5-14.3-6.7-16.4-7.2c-0.4-0.1-0.9,0.1-1.2,0.5l-5.8,7.8c-0.2,0.3-0.5,0.5-0.9,0.5h-3.5   c-0.4,0-0.7-0.2-1-0.5l-5.8-8.2c-0.3-0.4-0.7-0.5-1.1-0.5c-0.9,0.1-1.8,0.3-2.7,0.5l-0.2,32.9C664.8,206.6,669.1,205,673.7,205.1z"/>
	<rect x="313.3" y="84.3" class="st1" width="340.6" height="226.8"/>
	<polyline id="XMLID_8_" class="st2" points="646.1,106.8 646.1,273.6 341.2,273.6 341.2,88.4 646.1,88.4 646.1,106.8  "/>
	<g id="XMLID_1_">
		<path class="st3" d="M656.8,311.1H309.9V92.3c0-6.2,5-11.3,11.3-11.3h324.4c6.2,0,11.3,5,11.3,11.3L656.8,311.1L656.8,311.1z"/>
		<polygon class="st4" points="278.4,317.1 689.6,317.1 685.9,332.6 283.7,332.6   "/>
		<polygon class="st3" points="283.7,332.6 291.4,343.6 680,343.6 685.9,332.6   "/>
	</g>
	<g id="lines" class="st5">
		<path id="XMLID_29_" class="st6" d="M540.6,118.2h-192c-1,0-1.9-0.6-1.9-1.3v-6.8c0-0.7,0.9-1.3,1.9-1.3h191.9    c1,0,1.9,0.6,1.9,1.3v6.8C542.4,117.7,541.7,118.2,540.6,118.2z"/>
		<path id="XMLID_32_" class="st6" d="M540.6,134.3h-192c-1,0-1.9-0.6-1.9-1.3v-6.8c0-0.7,0.9-1.3,1.9-1.3h191.9    c1,0,1.9,0.6,1.9,1.3v6.8C542.4,133.7,541.7,134.3,540.6,134.3z"/>
		<path id="XMLID_34_" class="st6" d="M540.6,167h-192c-1,0-1.9-0.6-1.9-1.3v-6.8c0-0.7,0.9-1.3,1.9-1.3h191.9c1,0,1.9,0.6,1.9,1.3    v6.8C542.4,166.4,541.7,167,540.6,167z"/>
		<path id="XMLID_33_" class="st6" d="M438.6,151h-90c-1,0-1.9-0.6-1.9-1.3v-6.8c0-0.7,0.9-1.3,1.9-1.3h90c1,0,1.9,0.6,1.9,1.3v6.8    C440.5,150.4,439.6,151,438.6,151z"/>
	</g>
	<path id="XMLID_11_" class="st7" d="M614.9,196.1H577c-3.6,0-6.6-2-6.6-4.4v-78.5c0-2.4,3-4.4,6.6-4.4h37.9c3.6,0,6.6,2,6.6,4.4   v78.5C621.4,194.1,618.4,196.1,614.9,196.1z"/>
	<path id="XMLID_10_" class="st7" d="M614.4,292.6h-37.6c-3.6,0-6.5-3.2-6.5-7v-74.5c0-3.8,3-7,6.5-7h37.6c3.6,0,6.5,3.2,6.5,7v74.6   C620.9,289.4,618,292.6,614.4,292.6z"/>
	<path class="st7" d="M432.8,292.6h-84.5c-0.9,0-1.6-0.7-1.6-1.6V180.2c0-0.9,0.7-1.6,1.6-1.6h84.5c0.9,0,1.6,0.7,1.6,1.6V291   C434.4,291.9,433.7,292.6,432.8,292.6z"/>
	<path class="st7" d="M539.1,292.6h-84.5c-0.9,0-1.6-0.7-1.6-1.6V180.2c0-0.9,0.7-1.6,1.6-1.6h84.5c0.9,0,1.6,0.7,1.6,1.6V291   C540.7,291.9,540,292.6,539.1,292.6z"/>
</g>
<g>
	<path id="bg" class="st8" d="M326.7,286.3H216c-3.5,0-6.3-2.8-6.3-6.3v-88.9c0-3.5,2.8-6.3,6.3-6.3h110.7c3.5,0,6.3,2.8,6.3,6.3   V280C333.1,283.5,330.2,286.3,326.7,286.3z"/>
	<rect x="217.6" y="201.4" class="st9" width="108.3" height="76.9"/>
	<circle class="st9" cx="220" cy="193.1" r="2.7"/>
	<circle class="st9" cx="228" cy="193.1" r="2.7"/>
	<path class="st9" d="M322.6,195.8h-51c-1.5,0-2.7-1.2-2.7-2.7l0,0c0-1.5,1.2-2.7,2.7-2.7h51c1.5,0,2.7,1.2,2.7,2.7l0,0   C325.2,194.6,324,195.8,322.6,195.8z"/>
	<circle class="st9" cx="236" cy="193.1" r="2.7"/>
	<text transform="matrix(0.6948 0 0 1 244.8994 254.4633)" class="st10 st11 st12">&lt;/&gt;</text>
</g>
<path class="st9" d="M725.2,345.4c2.1,0,2.8-1.1,3.6-2c1.7-1.7,3.9-1,3.9,1.8V358h12.9c2.8,0,3.5-2.1,1.8-3.9c-0.8-0.8-2-1.6-2-3.6  c0-2.3,2.4-5.3,6.4-5.3s6.4,3,6.4,5.3c0,2.1-1.1,2.8-2,3.6c-1.7,1.7-1,3.9,1.8,3.9h12.9v-12.9c0-2.8-2.1-3.5-3.9-1.8  c-0.8,0.8-1.6,2-3.6,2c-2.3,0-5.3-2.4-5.3-6.4s3-6.4,5.3-6.4c2.1,0,2.8,1.1,3.6,2c1.7,1.7,3.9,1,3.9-1.8v-12.9H758  c-2.8,0-3.5-2.1-1.8-3.9c0.8-0.8,2-1.6,2-3.6c0-2.3-2.4-5.3-6.4-5.3s-6.4,3-6.4,5.3c0,2.1,1.1,2.8,2,3.6c1.7,1.7,1,3.9-1.8,3.9  h-12.9v12.9c0,2.8-2.1,3.5-3.9,1.8c-0.8-0.8-1.6-2-3.6-2c-2.3,0-5.3,2.4-5.3,6.4S722.9,345.4,725.2,345.4z"/>
<g>
	<g>
		<line class="st13" x1="648.8" y1="50.6" x2="641.9" y2="50.6"/>
		<line class="st14" x1="626.3" y1="50.6" x2="572" y2="50.6"/>
		<polyline class="st13" points="564.3,50.6 557.4,50.6 557.4,54.1   "/>
		<line class="st15" x1="557.4" y1="60" x2="557.4" y2="68.9"/>
		<line class="st13" x1="557.4" y1="71.9" x2="557.4" y2="75.4"/>
	</g>
</g>
<g>
	<g>
		<line class="st13" x1="318.1" y1="24.7" x2="321.6" y2="24.7"/>
		<line class="st16" x1="328.5" y1="24.7" x2="394.4" y2="24.7"/>
		<polyline class="st13" points="397.9,24.7 401.4,24.7 401.4,28.2   "/>
		<line class="st17" x1="401.4" y1="34.2" x2="401.4" y2="67"/>
		<line class="st13" x1="401.4" y1="70" x2="401.4" y2="73.5"/>
	</g>
</g>
<polyline class="st18" points="456.2,-12.9 289.7,-12.9 289.7,1.7 "/>
<polyline class="st18" points="259.4,24.7 222.7,24.7 222.7,184.8 "/>
<g>
	<g>
		<line class="st13" x1="278.4" y1="54.1" x2="278.4" y2="57.6"/>
		<line class="st19" x1="278.4" y1="64.9" x2="278.4" y2="177.7"/>
		<line class="st13" x1="278.4" y1="181.3" x2="278.4" y2="184.8"/>
	</g>
</g>
<polyline class="st18" points="303,129.6 238.7,129.6 238.7,184.8 "/>
<line class="st18" x1="499.6" y1="6.1" x2="499.6" y2="73.6"/>
<polyline class="st18" points="508.3,-23.1 673.8,-23.1 673.8,31 "/>
<polyline class="st18" points="685.9,78.8 685.9,162.3 661.8,162.3 "/>
<polyline class="st18" points="696.5,74 748.3,74 748.3,307.1 "/>
<g>
	<g>
		<defs>
			<path id="SVGID_1_" d="M374.1-2.1l-22.4,12.9c-0.8,0.5-1.4,1.4-1.4,2.3v25.8c0,1,0.5,1.9,1.4,2.3l22.4,12.9     c0.8,0.5,1.9,0.5,2.7,0l22.4-12.9c0.8-0.5,1.3-1.4,1.3-2.3V13.1c0-1-0.5-1.9-1.4-2.3L376.8-2.1c-0.4-0.2-0.9-0.4-1.4-0.4     S374.5-2.3,374.1-2.1"/>
		</defs>
		<clipPath id="SVGID_2_">
			<use xlink:href="#SVGID_1_" style="overflow:visible;"/>
		</clipPath>
		<g transform="translate(-78.306 -164.016)" class="st20">
			
				<linearGradient id="SVGID_3_" gradientUnits="userSpaceOnUse" x1="394.3999" y1="-953.8113" x2="395.0365" y2="-953.8113" gradientTransform="matrix(-50.7531 103.536 -103.536 -50.7531 -78188.5625 -88922.2422)">
				<stop offset="0.3" style="stop-color:#3E863D"/>
				<stop offset="0.5" style="stop-color:#55934F"/>
				<stop offset="0.8" style="stop-color:#5AAD45"/>
			</linearGradient>
			<path class="st21" d="M579.7,336.8l-63-30.9l-32.3,65.9l63,30.9L579.7,336.8z"/>
		</g>
	</g>
</g>
<g>
	<g>
		<defs>
			<path id="SVGID_4_" d="M351,40.6c0.2,0.3,0.5,0.5,0.8,0.7L371,52.4l3.2,1.8c0.5,0.3,1,0.4,1.6,0.4c0.2,0,0.4,0,0.5-0.1l23.6-43.2     c-0.2-0.2-0.4-0.4-0.6-0.5l-14.6-8.5L377-2.2c-0.2-0.1-0.5-0.2-0.7-0.3L351,40.6z"/>
		</defs>
		<clipPath id="SVGID_5_">
			<use xlink:href="#SVGID_4_" style="overflow:visible;"/>
		</clipPath>
		<g transform="translate(-78.306 -164.016)" class="st22">
			
				<linearGradient id="SVGID_6_" gradientUnits="userSpaceOnUse" x1="383.1878" y1="-945.5073" x2="383.6009" y2="-945.5073" gradientTransform="matrix(142.4074 -105.2221 105.2221 142.4074 45422.0977 175342.9531)">
				<stop offset="0.57" style="stop-color:#3E863D"/>
				<stop offset="0.72" style="stop-color:#619857"/>
				<stop offset="1" style="stop-color:#76AC64"/>
			</linearGradient>
			<path class="st23" d="M480.3,345.9l44.5,60.2l58.8-43.5l-44.4-60.2L480.3,345.9z"/>
		</g>
	</g>
</g>
<g>
	<g>
		<defs>
			<path id="SVGID_7_" d="M375.2-2.4c-0.4,0-0.7,0.2-1.1,0.3l-22.3,12.9l24,43.8c0.3,0,0.7-0.2,1-0.3l22.4-12.9     c0.7-0.4,1.2-1.1,1.3-1.8L376-2.3c-0.2,0-0.4-0.1-0.5-0.1C375.4-2.4,375.3-2.4,375.2-2.4"/>
		</defs>
		<clipPath id="SVGID_8_">
			<use xlink:href="#SVGID_7_" style="overflow:visible;"/>
		</clipPath>
		<g transform="translate(-78.306 -164.016)" class="st24">
			
				<linearGradient id="SVGID_9_" gradientUnits="userSpaceOnUse" x1="386.9766" y1="-942.4093" x2="387.3512" y2="-942.4093" gradientTransform="matrix(129.8891 0 0 129.8891 -49755.6367 122762.8516)">
				<stop offset="0.16" style="stop-color:#6BBF47"/>
				<stop offset="0.38" style="stop-color:#79B461"/>
				<stop offset="0.47" style="stop-color:#75AC64"/>
				<stop offset="0.7" style="stop-color:#659E5A"/>
				<stop offset="0.9" style="stop-color:#3E863D"/>
			</linearGradient>
			<path class="st25" d="M508.4,325.6v57H557v-57H508.4z"/>
		</g>
	</g>
</g>
<g>
	<path class="st26" d="M458.7-2.7c0,2.5,1.1,4.8,3,6.8c3.9,4.1,11.2,6.8,19.6,6.8s15.7-2.7,19.6-6.8c2-2,3-4.3,3-6.8"/>
	<path class="st26" d="M458.7-29.9c0,2.5,1.1,4.8,3,6.8c3.9,4.1,11.2,6.8,19.6,6.8s15.7-2.7,19.6-6.8c2-2,3-4.3,3-6.8"/>
	<ellipse class="st26" cx="481.4" cy="-43.5" rx="22.7" ry="13.6"/>
	<path class="st26" d="M458.7-16.3c0,2.5,1.1,4.8,3,6.8c3.9,4.1,11.2,6.8,19.6,6.8s15.7-2.7,19.6-6.8c2-2,3-4.3,3-6.8"/>
	<polyline class="st26" points="504.1,-43.5 504.1,-29.9 504.1,-16.3 504.1,-2.7  "/>
	<polyline class="st26" points="458.7,-43.5 458.7,-29.9 458.7,-16.3 458.7,-2.7  "/>
</g>
<rect x="258.3" y="11.4" class="st2" width="63.2" height="48.6"/>
<text transform="matrix(1 0 0 1 258.3335 34.3778)" class="st10 st27 st28">{.js}</text>
<g id="Layer_6_1_">
	<path id="XMLID_160_" class="st29" d="M707.3,5.3c-6.9,3.4-15.8,8.9-24.7,17.5C670,35.2,664.4,47.7,663,51.3   c-2.5,6-4,11.1-4.9,15.1c6.4,3.8,13,7.8,19.4,11.6c2.8-2.8,6.6-6.6,10.7-11.6c11-14.1,14.9-27.5,15.9-31.1   C707.6,23.1,707.8,12.8,707.3,5.3z"/>
	<polyline id="XMLID_159_" class="st29" points="663.2,45.9 652.1,48.2 648.8,53.8 657.6,59  "/>
	<polyline id="XMLID_158_" class="st29" points="692,63.1 695.3,74 692,79.5 683.1,74.2  "/>
	<circle id="XMLID_157_" class="st29" cx="687.3" cy="39.6" r="3.5"/>
</g>
<g id="XMLID_2_">
	<path id="XMLID_4_" class="st30" d="M484,274c-0.8,0-1.5-0.2-2.2-0.6l-7-4.2c-1-0.6-0.5-0.8-0.2-0.9c1.4-0.5,1.7-0.6,3.2-1.5   c0.1-0.1,0.4-0.1,0.5,0.1l5.4,3.2c0.2,0.1,0.4,0.1,0.6,0l21.1-12.2c0.2-0.1,0.3-0.3,0.3-0.6v-24.3c0-0.3-0.1-0.4-0.3-0.6   l-21.1-12.2c-0.2-0.1-0.4-0.1-0.6,0l-21.1,12.2c-0.2,0.1-0.3,0.3-0.3,0.6v24.3c0,0.3,0.1,0.4,0.3,0.6l5.8,3.3   c3.1,1.6,5.1-0.3,5.1-2.1V235c0-0.3,0.3-0.6,0.6-0.6h2.7c0.3,0,0.6,0.3,0.6,0.6v24.1c0,4.2-2.3,6.6-6.3,6.6c-1.2,0-2.2,0-4.9-1.3   l-5.5-3.2c-1.3-0.8-2.2-2.2-2.2-3.8V233c0-1.6,0.8-3.1,2.2-3.8l21.1-12.2c1.3-0.8,3.1-0.8,4.4,0l21.1,12.2c1.3,0.8,2.2,2.2,2.2,3.8   v24.3c0,1.6-0.8,3.1-2.2,3.8l-21.1,12.2C485.6,273.7,484.8,274,484,274"/>
	<path id="XMLID_3_" class="st30" d="M490.6,257.2c-9.2,0-11.1-4.2-11.1-7.8c0-0.3,0.3-0.6,0.6-0.6h2.8c0.3,0,0.6,0.2,0.6,0.5   c0.4,2.8,1.7,4.2,7.2,4.2c4.4,0,6.3-1,6.3-3.4c0-1.3-0.5-2.4-7.4-3.1c-5.8-0.6-9.3-1.9-9.3-6.5c0-4.3,3.6-6.8,9.6-6.8   c6.8,0,10.1,2.4,10.5,7.4c0,0.2-0.1,0.3-0.2,0.4c-0.1,0.1-0.3,0.2-0.4,0.2h-2.8c-0.3,0-0.5-0.2-0.6-0.4c-0.6-2.9-2.2-3.8-6.6-3.8   c-4.9,0-5.4,1.7-5.4,2.9c0,1.5,0.6,2,7.2,2.9c6.5,0.8,9.5,2,9.5,6.7C501,254.6,497.2,257.2,490.6,257.2 M516.2,231.4h0.7   c0.6,0,0.7-0.4,0.7-0.6c0-0.6-0.4-0.6-0.6-0.6h-0.7L516.2,231.4z M515.3,229.3h1.6c0.5,0,1.6,0,1.6,1.2c0,0.8-0.5,1-0.8,1.1   c0.6,0.1,0.6,0.4,0.8,1c0.1,0.4,0.1,1,0.3,1.2h-1c0-0.2-0.2-1.3-0.2-1.4c-0.1-0.3-0.1-0.4-0.4-0.4h-0.8v1.9h-0.9v-4.6H515.3z    M513.5,231.6c0,1.9,1.5,3.4,3.4,3.4c1.9,0,3.4-1.5,3.4-3.4c0-1.9-1.5-3.4-3.4-3.4C515,228.3,513.5,229.7,513.5,231.6 M521,231.6   c0,2.2-1.9,4.1-4.1,4.1s-4.1-1.8-4.1-4.1c0-2.3,1.9-4.1,4.1-4.1C519,227.6,521,229.3,521,231.6"/>
	<path id="XMLID_9_" class="st31" d="M418.7,178.7c0-1-0.5-1.9-1.3-2.4L395,163.4c-0.4-0.2-0.8-0.3-1.2-0.4h-0.3   c-0.4,0-0.8,0.1-1.2,0.4L370,176.3c-0.8,0.5-1.3,1.4-1.3,2.4l0.1,34.7c0,0.5,0.3,1,0.6,1.2c0.4,0.3,1,0.3,1.3,0l13.2-7.6   c0.8-0.5,1.3-1.4,1.3-2.4v-16.2c0-1,0.5-1.9,1.3-2.4l5.6-3.3c0.4-0.3,0.9-0.4,1.3-0.4c0.4,0,1,0.1,1.3,0.4l5.6,3.3   c0.8,0.5,1.3,1.3,1.3,2.4v16.2c0,1,0.5,1.9,1.3,2.4l13.3,7.6c0.4,0.3,1,0.3,1.3,0c0.4-0.3,0.6-0.7,0.6-1.2L418.7,178.7z    M524.2,196.7c0,0.3-0.1,0.4-0.3,0.6l-7.7,4.4c-0.2,0.1-0.4,0.1-0.7,0l-7.7-4.4c-0.2-0.1-0.3-0.3-0.3-0.6v-8.9   c0-0.3,0.1-0.4,0.3-0.6l7.7-4.4c0.2-0.1,0.4-0.1,0.7,0l7.7,4.4c0.2,0.1,0.3,0.3,0.3,0.6V196.7z M526.3,131c-0.4-0.3-1-0.3-1.3,0   c-0.4,0.3-0.6,0.7-0.6,1.2v34.4c0,0.3-0.2,0.6-0.4,0.8c-0.3,0.2-0.6,0.2-1,0l-5.6-3.2c-0.8-0.5-1.9-0.5-2.7,0l-22.4,12.9   c-0.8,0.5-1.3,1.3-1.3,2.3v25.9c0,1,0.5,1.9,1.3,2.4l22.4,12.9c0.8,0.5,1.9,0.5,2.7,0l22.4-12.9c0.8-0.5,1.3-1.3,1.3-2.4v-64.4   c0-1-0.5-1.9-1.4-2.4L526.3,131z M600.8,187.6c0.8-0.5,1.3-1.3,1.3-2.3V179c0-1-0.5-1.9-1.3-2.4l-22.2-12.9c-0.8-0.5-1.9-0.5-2.7,0   l-22.4,12.9c-0.8,0.5-1.3,1.3-1.3,2.4v25.8c0,1,0.5,1.9,1.3,2.4l22.2,12.7c0.8,0.4,1.8,0.4,2.6,0l13.4-7.5c0.4-0.3,0.7-0.7,0.7-1.2   c0-0.5-0.3-1-0.7-1.2l-22.5-12.9c-0.4-0.3-0.7-0.7-0.7-1.2v-8.1c0-0.5,0.3-1,0.7-1.2l7-4c0.4-0.3,1-0.3,1.3,0l7,4   c0.4,0.3,0.7,0.7,0.7,1.2v6.4c0,0.5,0.3,1,0.7,1.2c0.4,0.3,1,0.3,1.3,0L600.8,187.6z"/>
	<path id="XMLID_14_" class="st30" d="M576.9,186.4c0.1-0.1,0.4-0.1,0.5,0l4.3,2.5c0.2,0.1,0.3,0.3,0.3,0.4v4.9   c0,0.2-0.1,0.4-0.3,0.4l-4.3,2.5c-0.2,0.1-0.4,0.1-0.5,0l-4.3-2.5c-0.2-0.1-0.3-0.3-0.3-0.4v-4.9c0-0.2,0.1-0.4,0.3-0.4   L576.9,186.4z"/>
	<g id="XMLID_15_">
		<g>
			<defs>
				<path id="SVGID_10_" d="M453.4,163.9l-22.3,12.9c-0.8,0.5-1.3,1.3-1.3,2.3v25.7c0,1,0.5,1.9,1.3,2.3l22.3,12.9      c0.8,0.4,1.9,0.4,2.7,0l22.3-12.9c0.8-0.5,1.3-1.3,1.3-2.3v-25.7c0-1-0.5-1.9-1.3-2.3l-22.3-12.9c-0.4-0.3-0.9-0.4-1.3-0.4      S453.9,163.7,453.4,163.9"/>
			</defs>
			<clipPath id="SVGID_11_">
				<use xlink:href="#SVGID_10_" style="overflow:visible;"/>
			</clipPath>
			
				<linearGradient id="SVGID_12_" gradientUnits="userSpaceOnUse" x1="340.494" y1="299.5216" x2="340.8903" y2="299.5216" gradientTransform="matrix(-81.162 165.5699 165.5699 81.162 -21485.7285 -80526.1406)">
				<stop offset="0" style="stop-color:#3E863D"/>
				<stop offset="0.3" style="stop-color:#3E863D"/>
				<stop offset="0.5" style="stop-color:#55934F"/>
				<stop offset="0.8" style="stop-color:#5AAD45"/>
				<stop offset="1" style="stop-color:#5AAD45"/>
			</linearGradient>
			<polygon class="st32" points="502.2,174.6 439.5,143.8 407.4,209.4 470.1,240.2    "/>
		</g>
	</g>
	<g id="XMLID_17_">
		<g>
			<defs>
				<path id="SVGID_13_" d="M430.4,206.4c0.2,0.3,0.4,0.5,0.8,0.7l19.1,11l3.2,1.9c0.4,0.3,1,0.4,1.5,0.3c0.2,0,0.4-0.1,0.5-0.1      l23.5-42.9c-0.2-0.2-0.4-0.4-0.6-0.5l-14.6-8.4l-7.7-4.4c-0.2-0.1-0.4-0.2-0.7-0.3L430.4,206.4z"/>
			</defs>
			<clipPath id="SVGID_14_">
				<use xlink:href="#SVGID_13_" style="overflow:visible;"/>
			</clipPath>
			
				<linearGradient id="SVGID_15_" gradientUnits="userSpaceOnUse" x1="339.9143" y1="300.3322" x2="340.3103" y2="300.3322" gradientTransform="matrix(147.809 -109.2133 -109.2133 -147.809 -17016.6895 81728.5781)">
				<stop offset="0" style="stop-color:#3E863D"/>
				<stop offset="0.57" style="stop-color:#3E863D"/>
				<stop offset="0.72" style="stop-color:#619857"/>
				<stop offset="1" style="stop-color:#76AC64"/>
			</linearGradient>
			<polygon class="st33" points="403.3,183.6 447.5,243.6 506.1,200.4 461.8,140.4    "/>
		</g>
	</g>
	<g id="XMLID_19_">
		<g>
			<defs>
				<path id="SVGID_16_" d="M454.5,163.6c-0.4,0.1-0.8,0.1-1.1,0.3l-22.2,12.8l23.9,43.6c0.3-0.1,0.6-0.1,1-0.3l22.3-12.9      c0.7-0.4,1.2-1.1,1.3-1.9l-24.4-41.6c-0.2-0.1-0.4-0.1-0.5-0.1C454.6,163.6,454.6,163.6,454.5,163.6"/>
			</defs>
			<clipPath id="SVGID_17_">
				<use xlink:href="#SVGID_16_" style="overflow:visible;"/>
			</clipPath>
			
				<linearGradient id="SVGID_18_" gradientUnits="userSpaceOnUse" x1="339.5234" y1="300.0577" x2="339.9192" y2="300.0577" gradientTransform="matrix(122.2438 0 0 -122.2438 -41073.3438 36872.1016)">
				<stop offset="0" style="stop-color:#6BBF47"/>
				<stop offset="0.16" style="stop-color:#6BBF47"/>
				<stop offset="0.38" style="stop-color:#79B461"/>
				<stop offset="0.47" style="stop-color:#75AC64"/>
				<stop offset="0.7" style="stop-color:#659E5A"/>
				<stop offset="0.9" style="stop-color:#3E863D"/>
				<stop offset="1" style="stop-color:#3E863D"/>
			</linearGradient>
			<rect x="431.3" y="163.6" class="st34" width="48.4" height="56.7"/>
		</g>
	</g>
</g>
</svg>