<?xml version="1.0" encoding="UTF-8"?>
<svg xmlns="http://www.w3.org/2000/svg" width="601" height="357" viewBox="0 0 601 357" fill="none"><g clip-path="url(#clip0)"><path d="M531.12 68.5984H259.28V226.998H531.12V68.5984Z" fill="#263238"/><path d="M280.54 219.028C280.4 219.028 280.28 186.638 280.28 146.688C280.28 106.738 280.42 74.3284 280.54 74.3284C280.66 74.3284 280.8 106.708 280.8 146.668C280.8 186.628 280.69 219.028 280.54 219.028Z" fill="#E0E0E0"/><path d="M274.95 80.4485C271.96 80.7952 268.94 80.7952 265.95 80.4485C268.94 80.1018 271.96 80.1018 274.95 80.4485Z" fill="#E0E0E0"/><path d="M274.95 89.9783C271.96 90.325 268.94 90.325 265.95 89.9783C268.94 89.6316 271.96 89.6316 274.95 89.9783Z" fill="#E0E0E0"/><path d="M274.95 99.5183C271.96 99.865 268.94 99.865 265.95 99.5183C268.94 99.1716 271.96 99.1716 274.95 99.5183V99.5183Z" fill="#E0E0E0"/><path d="M274.95 109.048C271.96 109.395 268.94 109.395 265.95 109.048C268.94 108.702 271.96 108.702 274.95 109.048Z" fill="#E0E0E0"/><path d="M274.95 118.578C271.96 118.925 268.94 118.925 265.95 118.578C268.94 118.232 271.96 118.232 274.95 118.578Z" fill="#E0E0E0"/><path d="M274.95 128.118C271.96 128.465 268.94 128.465 265.95 128.118C268.94 127.772 271.96 127.772 274.95 128.118V128.118Z" fill="#E0E0E0"/><path d="M274.95 137.648C271.96 137.995 268.94 137.995 265.95 137.648C268.94 137.302 271.96 137.302 274.95 137.648V137.648Z" fill="#E0E0E0"/><path d="M274.95 147.178C271.96 147.525 268.94 147.525 265.95 147.178C268.94 146.832 271.96 146.832 274.95 147.178V147.178Z" fill="#E0E0E0"/><path d="M274.95 156.719C271.96 157.065 268.94 157.065 265.95 156.719C268.94 156.372 271.96 156.372 274.95 156.719Z" fill="#E0E0E0"/><path d="M274.95 166.248C271.96 166.595 268.94 166.595 265.95 166.248C268.94 165.902 271.96 165.902 274.95 166.248V166.248Z" fill="#E0E0E0"/><path d="M274.95 175.778C271.96 176.125 268.94 176.125 265.95 175.778C268.94 175.432 271.96 175.432 274.95 175.778V175.778Z" fill="#E0E0E0"/><path d="M274.95 185.328C271.96 185.675 268.94 185.675 265.95 185.328C268.94 184.982 271.96 184.982 274.95 185.328V185.328Z" fill="#E0E0E0"/><path d="M274.95 194.848C271.96 195.195 268.94 195.195 265.95 194.848C268.94 194.502 271.96 194.502 274.95 194.848V194.848Z" fill="#E0E0E0"/><path d="M274.95 204.378C271.96 204.725 268.94 204.725 265.95 204.378C268.94 204.032 271.96 204.032 274.95 204.378V204.378Z" fill="#E0E0E0"/><path d="M274.95 213.918C271.96 214.265 268.94 214.265 265.95 213.918C268.94 213.572 271.96 213.572 274.95 213.918V213.918Z" fill="#E0E0E0"/><path d="M311.04 79.8884C311.04 80.0284 305.81 80.1484 299.36 80.1484C292.91 80.1484 287.67 80.0284 287.67 79.8884C287.67 79.7484 292.9 79.6284 299.36 79.6284C305.82 79.6284 311.04 79.7384 311.04 79.8884Z" fill="#007FFF"/><path d="M311.04 213.918C311.04 214.058 305.81 214.178 299.36 214.178C292.91 214.178 287.67 214.058 287.67 213.918C287.67 213.778 292.9 213.658 299.36 213.658C305.82 213.658 311.04 213.768 311.04 213.918Z" fill="#007FFF"/><path d="M343.58 99.5183C343.58 99.6583 333.79 99.7783 321.72 99.7783C309.65 99.7783 299.86 99.6583 299.86 99.5183C299.86 99.3783 309.65 99.2583 321.72 99.2583C333.79 99.2583 343.58 99.3283 343.58 99.5183Z" fill="#007FFF"/><path d="M394.12 99.5183C394.12 99.6583 384.34 99.7783 372.27 99.7783C360.2 99.7783 350.41 99.6583 350.41 99.5183C350.41 99.3783 360.19 99.2583 372.27 99.2583C384.35 99.2583 394.12 99.3283 394.12 99.5183Z" fill="#E0E0E0"/><path d="M374.81 109.048C374.81 109.188 360.38 109.308 342.6 109.308C324.82 109.308 310.38 109.188 310.38 109.048C310.38 108.908 324.8 108.788 342.6 108.788C360.4 108.788 374.81 108.908 374.81 109.048Z" fill="#E0E0E0"/><path d="M374.81 118.578C374.81 118.728 360.38 118.838 342.6 118.838C324.82 118.838 310.42 118.728 310.42 118.578C310.42 118.428 324.84 118.318 342.64 118.318C360.44 118.318 374.81 118.438 374.81 118.578Z" fill="#E0E0E0"/><path d="M419.15 147.178C419.15 147.328 404.73 147.438 386.94 147.438C369.15 147.438 354.73 147.328 354.73 147.178C354.73 147.028 369.15 146.918 386.94 146.918C404.73 146.918 419.15 147.038 419.15 147.178Z" fill="#E0E0E0"/><path d="M400.02 128.118C400.02 128.258 385.59 128.378 367.81 128.378C350.03 128.378 335.59 128.258 335.59 128.118C335.59 127.978 350.01 127.858 367.81 127.858C385.61 127.858 400.02 127.968 400.02 128.118Z" fill="#E0E0E0"/><path d="M478.74 128.118C478.74 128.258 464.32 128.378 446.53 128.378C428.74 128.378 414.32 128.258 414.32 128.118C414.32 127.978 428.74 127.858 446.53 127.858C464.32 127.858 478.74 127.968 478.74 128.118Z" fill="#E0E0E0"/><path d="M451.36 109.048C451.36 109.188 436.94 109.308 419.15 109.308C401.36 109.308 386.94 109.188 386.94 109.048C386.94 108.908 401.36 108.788 419.15 108.788C436.94 108.788 451.36 108.908 451.36 109.048Z" fill="#FAFAFA"/><path d="M495.87 147.178C495.87 147.328 481.44 147.438 463.66 147.438C445.88 147.438 431.42 147.328 431.42 147.178C431.42 147.028 445.84 146.918 463.64 146.918C481.44 146.918 495.87 147.038 495.87 147.178Z" fill="#FAFAFA"/><path d="M486.98 118.578C486.98 118.728 464.58 118.838 436.98 118.838C409.38 118.838 386.98 118.728 386.98 118.578C386.98 118.428 409.37 118.318 436.98 118.318C464.59 118.318 486.98 118.438 486.98 118.578Z" fill="#455A64"/><path d="M311.04 89.9783C311.04 90.1283 305.81 90.2383 299.36 90.2383C292.91 90.2383 287.67 90.1283 287.67 89.9783C287.67 89.8283 292.9 89.7183 299.36 89.7183C305.82 89.7183 311.04 89.8383 311.04 89.9783Z" fill="#FAFAFA"/><path d="M311.04 204.378C311.04 204.528 305.81 204.638 299.36 204.638C292.91 204.638 287.67 204.528 287.67 204.378C287.67 204.228 292.9 204.118 299.36 204.118C305.82 204.118 311.04 204.238 311.04 204.378Z" fill="#FAFAFA"/><path d="M322.611 128.118C322.611 128.258 317.381 128.378 310.931 128.378C304.481 128.378 299.25 128.258 299.25 128.118C299.25 127.978 304.481 127.858 310.931 127.858C317.381 127.858 322.611 127.968 322.611 128.118Z" fill="#FAFAFA"/><path d="M509.87 128.118C509.87 128.258 504.64 128.378 498.19 128.378C491.74 128.378 486.51 128.258 486.51 128.118C486.51 127.978 491.74 127.858 498.19 127.858C504.64 127.858 509.87 127.968 509.87 128.118Z" fill="#007FFF"/><path d="M343.58 166.188C343.58 166.338 333.79 166.448 321.72 166.448C309.65 166.448 299.86 166.338 299.86 166.188C299.86 166.038 309.65 165.928 321.72 165.928C333.79 165.928 343.58 166.048 343.58 166.188Z" fill="#007FFF"/><path d="M394.12 166.188C394.12 166.338 384.34 166.448 372.27 166.448C360.2 166.448 350.42 166.328 350.42 166.188C350.42 166.048 360.2 165.928 372.28 165.928C384.36 165.928 394.12 166.048 394.12 166.188Z" fill="#E0E0E0"/><path d="M374.81 175.728C374.81 175.868 360.38 175.988 342.6 175.988C324.82 175.988 310.42 175.868 310.42 175.728C310.42 175.588 324.84 175.469 342.64 175.469C360.44 175.469 374.81 175.578 374.81 175.728Z" fill="#E0E0E0"/><path d="M374.81 185.258C374.81 185.398 360.38 185.518 342.6 185.518C324.82 185.518 310.38 185.398 310.38 185.258C310.38 185.118 324.8 184.998 342.6 184.998C360.4 184.998 374.81 185.118 374.81 185.258Z" fill="#E0E0E0"/><path d="M400.02 194.788C400.02 194.938 385.59 195.048 367.81 195.048C350.03 195.048 335.59 194.938 335.59 194.788C335.59 194.638 350.01 194.528 367.81 194.528C385.61 194.528 400.02 194.648 400.02 194.788Z" fill="#E0E0E0"/><path d="M478.74 194.788C478.74 194.938 464.32 195.048 446.53 195.048C428.74 195.048 414.32 194.938 414.32 194.788C414.32 194.638 428.74 194.528 446.53 194.528C464.32 194.528 478.74 194.648 478.74 194.788Z" fill="#E0E0E0"/><path d="M451.36 175.728C451.36 175.868 436.94 175.988 419.15 175.988C401.36 175.988 386.94 175.868 386.94 175.728C386.94 175.588 401.36 175.469 419.15 175.469C436.94 175.469 451.36 175.578 451.36 175.728Z" fill="#FAFAFA"/><path d="M486.98 185.258C486.98 185.398 464.58 185.518 436.98 185.518C409.38 185.518 386.98 185.398 386.98 185.258C386.98 185.118 409.37 184.998 436.98 184.998C464.59 184.998 486.98 185.118 486.98 185.258Z" fill="#455A64"/><path d="M322.611 194.788C322.611 194.938 317.381 195.048 310.931 195.048C304.481 195.048 299.25 194.938 299.25 194.788C299.25 194.638 304.481 194.528 310.931 194.528C317.381 194.528 322.611 194.648 322.611 194.788Z" fill="#FAFAFA"/><path d="M509.87 194.788C509.87 194.938 504.64 195.048 498.19 195.048C491.74 195.048 486.51 194.938 486.51 194.788C486.51 194.638 491.74 194.528 498.19 194.528C504.64 194.528 509.87 194.648 509.87 194.788Z" fill="#007FFF"/><path d="M116.55 147.798H414C415.787 147.798 417.502 148.508 418.766 149.772C420.03 151.036 420.74 152.751 420.74 154.538V339.538C420.74 343.403 419.205 347.108 416.472 349.841C413.74 352.573 410.034 354.108 406.17 354.108H123.37C119.506 354.108 115.8 352.573 113.067 349.841C110.335 347.108 108.8 343.403 108.8 339.538V155.538C108.802 153.485 109.62 151.516 111.073 150.065C112.526 148.613 114.496 147.798 116.55 147.798Z" fill="#455A64"/><path d="M95.7598 338.828H433.76V343.158C433.76 344.96 433.405 346.744 432.715 348.409C432.026 350.073 431.015 351.586 429.741 352.86C428.467 354.134 426.955 355.144 425.29 355.834C423.626 356.523 421.842 356.878 420.04 356.878H109.48C107.678 356.878 105.894 356.523 104.229 355.834C102.565 355.144 101.052 354.134 99.7783 352.86C98.5042 351.586 97.4936 350.073 96.8041 348.409C96.1146 346.744 95.7598 344.96 95.7598 343.158V338.828Z" fill="#455A64"/><path d="M234.02 338.828L238.21 345.498H297.22L301.12 338.828H234.02Z" fill="#263238"/><path d="M420.79 338.758H108.85V339.748H420.79V338.758Z" fill="#263238"/><path d="M411.49 155.998H117.17V330.198H411.49V155.998Z" fill="#F7F7F7"/><path opacity="0.5" d="M147.2 325.378C147.06 325.378 146.94 290.428 146.94 247.318C146.94 204.208 147.06 169.258 147.2 169.258C147.34 169.258 147.42 204.198 147.42 247.328C147.42 290.458 147.34 325.378 147.2 325.378Z" fill="#333333"/><path opacity="0.5" d="M141.6 183.408C140.112 183.671 138.598 183.758 137.09 183.668C135.582 183.758 134.068 183.671 132.58 183.408C135.57 183.063 138.59 183.063 141.58 183.408H141.6Z" fill="#333333"/><path opacity="0.5" d="M141.95 174.548C140.462 174.811 138.948 174.898 137.44 174.808C135.931 174.898 134.418 174.811 132.93 174.548C135.92 174.203 138.94 174.203 141.93 174.548H141.95Z" fill="#333333"/><path opacity="0.5" d="M141.6 192.958C138.61 193.303 135.59 193.303 132.6 192.958C135.59 192.613 138.61 192.613 141.6 192.958V192.958Z" fill="#333333"/><path opacity="0.5" d="M141.6 202.508C138.61 202.854 135.59 202.854 132.6 202.508C134.088 202.246 135.602 202.159 137.11 202.248C138.612 202.16 140.119 202.248 141.6 202.508Z" fill="#333333"/><path opacity="0.5" d="M141.6 212.058C138.61 212.403 135.59 212.403 132.6 212.058C134.088 211.796 135.602 211.709 137.11 211.798C138.612 211.71 140.119 211.797 141.6 212.058V212.058Z" fill="#333333"/><path opacity="0.5" d="M141.6 221.608C138.61 221.953 135.59 221.953 132.6 221.608C134.088 221.346 135.602 221.259 137.11 221.348C138.612 221.26 140.119 221.347 141.6 221.608Z" fill="#333333"/><path opacity="0.5" d="M141.6 231.148C140.113 231.418 138.599 231.508 137.09 231.418C135.581 231.508 134.067 231.418 132.58 231.148C135.57 230.803 138.59 230.803 141.58 231.148H141.6Z" fill="#333333"/><path opacity="0.5" d="M141.6 240.698C140.112 240.961 138.598 241.048 137.09 240.958C135.582 241.048 134.068 240.961 132.58 240.698C135.57 240.353 138.59 240.353 141.58 240.698H141.6Z" fill="#333333"/><path opacity="0.5" d="M141.6 250.248C140.112 250.511 138.598 250.598 137.09 250.508C135.582 250.598 134.068 250.511 132.58 250.248C135.57 249.903 138.59 249.903 141.58 250.248H141.6Z" fill="#333333"/><path opacity="0.5" d="M141.6 259.798C140.112 260.061 138.598 260.148 137.09 260.058C135.582 260.148 134.068 260.061 132.58 259.798C135.57 259.453 138.59 259.453 141.58 259.798H141.6Z" fill="#333333"/><path opacity="0.5" d="M141.6 269.328C138.61 269.673 135.59 269.673 132.6 269.328C135.59 268.983 138.61 268.983 141.6 269.328V269.328Z" fill="#333333"/><path opacity="0.5" d="M141.6 278.898C138.61 279.243 135.59 279.243 132.6 278.898C134.088 278.636 135.602 278.549 137.11 278.638C138.612 278.55 140.119 278.638 141.6 278.898Z" fill="#333333"/><path opacity="0.5" d="M141.6 288.448C138.61 288.793 135.59 288.793 132.6 288.448C134.088 288.186 135.602 288.099 137.11 288.188C138.612 288.1 140.119 288.188 141.6 288.448Z" fill="#333333"/><path opacity="0.5" d="M141.6 297.998C138.61 298.343 135.59 298.343 132.6 297.998C134.088 297.736 135.602 297.649 137.11 297.738C138.612 297.65 140.119 297.737 141.6 297.998V297.998Z" fill="#333333"/><path opacity="0.5" d="M141.6 307.548C138.61 307.893 135.59 307.893 132.6 307.548C134.087 307.279 135.601 307.189 137.11 307.278C138.612 307.19 140.119 307.281 141.6 307.548V307.548Z" fill="#333333"/><path opacity="0.5" d="M141.6 317.088C140.112 317.351 138.598 317.438 137.09 317.348C135.582 317.438 134.068 317.351 132.58 317.088C135.57 316.743 138.59 316.743 141.58 317.088H141.6Z" fill="#333333"/><path opacity="0.5" d="M177.75 182.848C177.75 182.988 172.51 183.108 166.05 183.108C159.59 183.108 154.34 182.988 154.34 182.848C154.34 182.708 159.58 182.588 166.05 182.588C172.52 182.588 177.75 182.698 177.75 182.848Z" fill="#007FFF"/><path opacity="0.5" d="M177.75 317.088C177.75 317.238 172.51 317.348 166.05 317.348C159.59 317.348 154.34 317.238 154.34 317.088C154.34 316.938 159.58 316.828 166.05 316.828C172.52 316.828 177.75 316.948 177.75 317.088Z" fill="#007FFF"/><path opacity="0.5" d="M210.34 202.508C210.34 202.648 200.53 202.768 188.44 202.768C176.35 202.768 166.55 202.648 166.55 202.508C166.55 202.368 176.35 202.248 188.44 202.248C200.53 202.248 210.34 202.328 210.34 202.508Z" fill="#007FFF"/><path opacity="0.5" d="M260.97 202.508C260.97 202.648 251.16 202.768 239.07 202.768C226.98 202.768 217.18 202.648 217.18 202.508C217.18 202.368 226.98 202.248 239.07 202.248C251.16 202.248 260.97 202.328 260.97 202.508Z" fill="#333333"/><path opacity="0.5" d="M241.62 212.058C241.62 212.198 227.17 212.318 209.35 212.318C191.53 212.318 177.09 212.198 177.09 212.058C177.09 211.918 191.53 211.798 209.35 211.798C227.17 211.798 241.62 211.908 241.62 212.058Z" fill="#333333"/><path opacity="0.5" d="M241.62 221.608C241.62 221.748 227.17 221.868 209.35 221.868C191.53 221.868 177.09 221.748 177.09 221.608C177.09 221.468 191.53 221.348 209.35 221.348C227.17 221.348 241.62 221.458 241.62 221.608Z" fill="#333333"/><path opacity="0.5" d="M286.03 250.248C286.03 250.398 271.59 250.508 253.77 250.508C235.95 250.508 221.5 250.398 221.5 250.248C221.5 250.098 235.95 249.988 253.77 249.988C271.59 249.988 286.03 250.108 286.03 250.248Z" fill="#333333"/><path opacity="0.5" d="M266.87 231.148C266.87 231.298 252.42 231.418 234.6 231.418C216.78 231.418 202.34 231.298 202.34 231.148C202.34 230.998 216.78 230.888 234.6 230.888C252.42 230.888 266.87 231.008 266.87 231.148Z" fill="#333333"/><path opacity="0.5" d="M345.72 231.148C345.72 231.298 331.27 231.418 313.46 231.418C295.65 231.418 281.19 231.298 281.19 231.148C281.19 230.998 295.64 230.888 313.46 230.888C331.28 230.888 345.72 231.008 345.72 231.148Z" fill="#333333"/><path opacity="0.5" d="M318.3 212.058C318.3 212.198 303.85 212.318 286.03 212.318C268.21 212.318 253.77 212.198 253.77 212.058C253.77 211.918 268.21 211.798 286.03 211.798C303.85 211.798 318.3 211.908 318.3 212.058Z" fill="#333333"/><path opacity="0.5" d="M362.87 250.248C362.87 250.398 348.42 250.508 330.61 250.508C312.8 250.508 298.34 250.398 298.34 250.248C298.34 250.098 312.79 249.988 330.61 249.988C348.43 249.988 362.87 250.108 362.87 250.248Z" fill="#333333"/><path opacity="0.5" d="M353.97 221.608C353.97 221.748 331.54 221.868 303.87 221.868C276.2 221.868 253.77 221.748 253.77 221.608C253.77 221.468 276.2 221.348 303.87 221.348C331.54 221.348 353.97 221.458 353.97 221.608Z" fill="#455A64"/><path opacity="0.5" d="M177.75 192.958C177.75 193.098 172.51 193.218 166.05 193.218C159.59 193.218 154.34 193.098 154.34 192.958C154.34 192.818 159.58 192.698 166.05 192.698C172.52 192.698 177.75 192.818 177.75 192.958Z" fill="#333333"/><path opacity="0.5" d="M177.75 307.548C177.75 307.688 172.51 307.808 166.05 307.808C159.59 307.808 154.34 307.688 154.34 307.548C154.34 307.408 159.58 307.278 166.05 307.278C172.52 307.278 177.75 307.398 177.75 307.548Z" fill="#333333"/><path opacity="0.5" d="M189.34 231.148C189.34 231.298 184.1 231.418 177.64 231.418C171.18 231.418 165.94 231.298 165.94 231.148C165.94 230.998 171.17 230.888 177.64 230.888C184.11 230.888 189.34 231.008 189.34 231.148Z" fill="#333333"/><path opacity="0.5" d="M376.9 231.148C376.9 231.298 371.66 231.418 365.2 231.418C358.74 231.418 353.5 231.298 353.5 231.148C353.5 230.998 358.73 230.888 365.2 230.888C371.67 230.888 376.9 231.008 376.9 231.148Z" fill="#007FFF"/><path opacity="0.5" d="M210.34 269.328C210.34 269.478 200.53 269.588 188.44 269.588C176.35 269.588 166.55 269.478 166.55 269.328C166.55 269.178 176.35 269.068 188.44 269.068C200.53 269.068 210.34 269.148 210.34 269.328Z" fill="#007FFF"/><path opacity="0.5" d="M260.97 269.328C260.97 269.478 251.16 269.588 239.07 269.588C226.98 269.588 217.18 269.478 217.18 269.328C217.18 269.178 226.98 269.068 239.07 269.068C251.16 269.068 260.97 269.148 260.97 269.328Z" fill="#333333"/><path opacity="0.5" d="M241.62 278.838C241.62 278.988 227.17 279.098 209.35 279.098C191.53 279.098 177.09 278.988 177.09 278.838C177.09 278.688 191.53 278.578 209.35 278.578C227.17 278.578 241.62 278.698 241.62 278.838Z" fill="#333333"/><path opacity="0.5" d="M241.62 288.388C241.62 288.538 227.17 288.648 209.35 288.648C191.53 288.648 177.09 288.538 177.09 288.388C177.09 288.238 191.53 288.128 209.35 288.128C227.17 288.128 241.62 288.248 241.62 288.388Z" fill="#333333"/><path opacity="0.5" d="M266.87 297.938C266.87 298.078 252.42 298.198 234.6 298.198C216.78 298.198 202.34 298.078 202.34 297.938C202.34 297.798 216.78 297.678 234.6 297.678C252.42 297.678 266.87 297.798 266.87 297.938Z" fill="#333333"/><path opacity="0.5" d="M345.72 297.938C345.72 298.078 331.27 298.198 313.46 298.198C295.65 298.198 281.19 298.078 281.19 297.938C281.19 297.798 295.64 297.678 313.46 297.678C331.28 297.678 345.72 297.798 345.72 297.938Z" fill="#333333"/><path opacity="0.5" d="M318.3 278.838C318.3 278.988 303.85 279.098 286.03 279.098C268.21 279.098 253.77 278.988 253.77 278.838C253.77 278.688 268.21 278.578 286.03 278.578C303.85 278.578 318.3 278.698 318.3 278.838Z" fill="#333333"/><path opacity="0.5" d="M353.97 288.388C353.97 288.538 331.54 288.648 303.87 288.648C276.2 288.648 253.77 288.538 253.77 288.388C253.77 288.238 276.2 288.128 303.87 288.128C331.54 288.128 353.97 288.248 353.97 288.388Z" fill="#455A64"/><path opacity="0.5" d="M189.34 297.938C189.34 298.078 184.1 298.198 177.64 298.198C171.18 298.198 165.94 298.078 165.94 297.938C165.94 297.798 171.17 297.678 177.64 297.678C184.11 297.678 189.34 297.798 189.34 297.938Z" fill="#333333"/><path opacity="0.5" d="M376.9 297.938C376.9 298.078 371.66 298.198 365.2 298.198C358.74 298.198 353.5 298.078 353.5 297.938C353.5 297.798 358.73 297.678 365.2 297.678C371.67 297.678 376.9 297.798 376.9 297.938Z" fill="#007FFF"/><circle cx="289" cy="224" r="50" fill="#007FFF"/><path fill-rule="evenodd" clip-rule="evenodd" d="M273.108 192H270.221V200.442H273.133V197.628H275.769V200.442H278.656V192H275.769V194.789H273.108V192ZM279.924 194.814H282.472V200.442H285.359V194.814H287.92V192H279.924V194.814ZM289.188 192H292.213L294.07 194.973L295.928 192H298.953V200.442H296.066V196.257L294.045 199.292L292.024 196.257V200.442H289.188V192ZM303.271 192H300.384V200.442H307.364V197.652H303.271V192Z" fill="white"/><path d="M270.146 251.784L266 204.662H311.584L307.438 251.759L288.755 257" fill="#E44D26"/><path d="M288.792 252.779V208.039H307.363L303.819 248.491" fill="#F16529"/><path fill-rule="evenodd" clip-rule="evenodd" d="M288.792 213.948H274.441L276.002 231.503H288.792V225.707H281.239L280.71 219.757H288.792V213.948ZM281.994 234.42H276.254L277.06 243.543L288.792 246.87V240.805L282.397 239.065L281.994 234.42Z" fill="#EBEBEB"/><path fill-rule="evenodd" clip-rule="evenodd" d="M288.792 213.948H303.143L302.613 219.762H288.792V213.948ZM288.792 225.716H302.096L300.52 243.566L288.792 246.87V240.826L295.185 239.085L295.854 231.529H288.792V225.716Z" fill="white"/><circle cx="239" cy="274" r="50" fill="#333333"/><path d="M245.02 194.914C245.034 194.873 245.049 194.831 245.06 194.789C245.078 194.724 245.09 194.658 245.103 194.592C245.108 194.565 245.115 194.538 245.12 194.511C245.129 194.448 245.135 194.385 245.14 194.323C245.143 194.29 245.148 194.257 245.15 194.225C245.153 194.17 245.151 194.117 245.151 194.063C245.151 194.02 245.152 193.977 245.15 193.934C245.148 193.891 245.142 193.848 245.138 193.805C245.132 193.752 245.128 193.698 245.12 193.645C245.115 193.612 245.107 193.579 245.1 193.546C245.088 193.484 245.077 193.422 245.061 193.36C245.053 193.332 245.043 193.304 245.034 193.276C245.016 193.212 244.997 193.148 244.974 193.085C244.955 193.036 244.933 192.989 244.912 192.941C244.894 192.9 244.879 192.858 244.859 192.818C244.815 192.727 244.765 192.638 244.711 192.551L235.262 177.356C234.377 175.931 232.458 175.418 230.978 176.209C229.498 177 229.016 178.797 229.901 180.221L235.214 188.764C222.841 186.64 210.174 192.223 204.547 203.262C202.381 207.511 201.476 212.174 201.805 216.805C201.81 216.877 201.813 216.949 201.819 217.021C202.148 221.17 203.47 225.286 205.769 229.048C205.862 229.199 205.968 229.338 206.082 229.468C206.512 229.962 207.081 230.306 207.701 230.472C207.797 230.498 207.894 230.519 207.992 230.536C208.677 230.656 209.401 230.564 210.045 230.226C211.533 229.445 212.029 227.653 211.155 226.223C210.613 225.336 210.142 224.423 209.739 223.493C207.273 217.808 207.397 211.443 210.192 205.959C214.635 197.243 224.678 192.855 234.45 194.598L224.636 199.844C223.155 200.635 222.673 202.431 223.559 203.856C224.002 204.568 224.703 205.053 225.479 205.26C226.254 205.467 227.104 205.398 227.844 205.002L243.615 196.571C243.637 196.56 243.64 196.557 243.643 196.556C243.729 196.51 243.812 196.46 243.892 196.406C243.915 196.391 243.936 196.374 243.958 196.358C244.016 196.317 244.074 196.275 244.129 196.23C244.161 196.204 244.189 196.175 244.22 196.148C244.262 196.11 244.304 196.074 244.343 196.034C244.381 195.996 244.414 195.957 244.449 195.918C244.478 195.885 244.509 195.853 244.536 195.818C244.578 195.767 244.615 195.713 244.653 195.66C244.67 195.634 244.69 195.61 244.707 195.583C244.754 195.511 244.796 195.436 244.836 195.359C244.842 195.35 244.848 195.341 244.853 195.331C244.853 195.33 244.854 195.329 244.854 195.328C244.899 195.241 244.939 195.151 244.973 195.06C244.992 195.011 245.005 194.963 245.02 194.914Z" fill="#999999"/><circle cx="239" cy="274" r="35" fill="#00C8FF"/><circle cx="239" cy="274" r="32.1622" fill="#28253A"/><path fill-rule="evenodd" clip-rule="evenodd" d="M221.973 259.322C221.973 259.128 222.37 259.005 222.587 259.005C224.355 258.917 226.989 258.865 229.749 258.865C237.434 258.865 240.429 262.978 240.429 268.234C240.429 275.09 235.324 278.043 229.063 278.043C228.498 278.043 228.133 278.028 227.797 278.013H227.797H227.797C227.511 278.001 227.247 277.99 226.898 277.99V288.362C226.898 288.573 226.808 288.678 226.574 288.678H222.334C222.117 288.678 222.009 288.59 222.009 288.362V259.322H221.973ZM226.916 273.683C227.548 273.736 228.053 273.736 229.172 273.736H229.172C232.419 273.736 235.468 272.629 235.468 268.34C235.468 264.912 233.285 263.171 229.587 263.171C228.486 263.171 227.422 263.224 226.916 263.259V273.683ZM247.826 272.435C247.826 271.539 248.584 270.467 250.767 270.467C252.571 270.467 254.357 270.924 255.566 271.697C255.837 271.785 255.981 271.644 255.981 271.433V267.724C255.981 267.531 255.927 267.32 255.71 267.179C254.79 266.775 253.13 266.424 250.749 266.424C245.896 266.424 243.099 269.324 243.099 272.805C243.099 275.898 244.741 277.762 248.674 279.607C251.489 280.996 252.12 281.875 252.12 282.842C252.12 284.055 251.2 284.951 249.017 284.951C247.195 284.951 245.192 284.459 243.442 283.352C243.262 283.211 243.117 283.299 243.117 283.563V287.535C243.117 287.764 243.136 287.887 243.334 287.975C244.525 288.643 246.599 289.135 249.017 289.135C253.581 289.135 256.973 286.815 256.973 282.49C256.973 279.59 255.62 277.621 251.272 275.564C248.331 274.088 247.826 273.402 247.826 272.435Z" fill="#00C8FF"/><path d="M601 356.888C601 357.028 466.448 357.148 300.518 357.148C134.589 357.148 0 357.028 0 356.888C0 356.748 134.524 356.628 300.518 356.628C466.513 356.628 601 356.738 601 356.888Z" fill="#263238"/><path d="M483.1 300.448L487.1 312.938C487.869 315.473 489.321 317.746 491.297 319.51C493.272 321.274 495.695 322.46 498.3 322.938L524.96 327.938L532.21 327.708L524.96 318.708L504.96 311.878C504.007 311.663 503.131 311.191 502.426 310.515C501.721 309.838 501.214 308.982 500.96 308.038L492.96 290.678L482.85 296.878L483.1 300.448Z" fill="#FFBE9D"/><path d="M464 216.558C464.134 214.596 463.606 212.645 462.5 211.018C462.049 210.178 461.426 209.443 460.671 208.861C459.916 208.278 459.047 207.862 458.12 207.638C457.04 207.515 455.949 207.747 455.012 208.299C454.076 208.851 453.345 209.693 452.93 210.698C452.54 211.711 452.409 212.804 452.549 213.88C452.689 214.955 453.095 215.979 453.73 216.858C454.377 217.772 455.204 218.545 456.16 219.128C453.379 220.956 451.272 223.642 450.16 226.778C449.79 227.838 449.54 228.938 449.08 229.958C448.66 231.013 447.876 231.883 446.87 232.408C446.11 232.748 445.26 232.778 444.48 233.068C443.835 233.324 443.261 233.73 442.803 234.252C442.346 234.773 442.019 235.396 441.85 236.068C441.548 237.443 441.803 238.881 442.56 240.068C443.013 240.602 443.322 241.242 443.46 241.928C443.433 242.404 443.335 242.872 443.17 243.318C442.98 244.107 443.048 244.936 443.363 245.684C443.679 246.431 444.225 247.058 444.923 247.473C445.62 247.888 446.432 248.068 447.239 247.988C448.047 247.908 448.807 247.572 449.41 247.028C449.814 248.232 450.628 249.255 451.71 249.918C452.85 250.458 454.53 249.968 454.71 248.728C454.992 249.331 455.467 249.823 456.06 250.126C456.653 250.429 457.33 250.526 457.984 250.403C458.638 250.279 459.232 249.941 459.673 249.442C460.114 248.944 460.377 248.313 460.42 247.648L481.92 224.138C478.72 215.598 466.17 216.328 464 216.558Z" fill="#007FFF"/><path d="M460.36 224.728C459.693 224.803 459.079 225.123 458.635 225.625C458.191 226.128 457.951 226.778 457.96 227.448V227.448L459.48 263.648C459.54 267.928 467.3 272.988 471.87 272.888C476.5 272.788 475.14 267.888 475.2 263.818C475.32 257.018 475.31 254.468 475.32 254.508C475.33 254.548 481.16 253.508 482.37 245.918C482.97 242.128 482.78 235.918 482.46 230.838C482.17 226.268 479.14 220.658 474.59 221.138L460.36 224.728Z" fill="#FFBE9D"/><path d="M480.48 235.768C480.481 236.023 480.383 236.269 480.209 236.455C480.034 236.641 479.795 236.753 479.54 236.768C479.417 236.776 479.293 236.76 479.175 236.72C479.058 236.68 478.95 236.618 478.857 236.536C478.764 236.454 478.689 236.355 478.634 236.244C478.58 236.133 478.548 236.012 478.54 235.888C478.54 235.633 478.637 235.387 478.811 235.202C478.986 235.016 479.225 234.904 479.48 234.888C479.604 234.88 479.727 234.896 479.845 234.936C479.962 234.976 480.07 235.039 480.163 235.121C480.256 235.202 480.332 235.302 480.386 235.413C480.44 235.524 480.472 235.645 480.48 235.768V235.768Z" fill="#263238"/><path d="M481.11 234.068C480.99 234.198 480.25 233.648 479.2 233.648C478.15 233.648 477.37 234.178 477.26 234.048C477.15 233.918 477.33 233.768 477.66 233.518C478.116 233.206 478.657 233.038 479.21 233.038C479.76 233.04 480.295 233.215 480.74 233.538C481.06 233.778 481.17 234.008 481.11 234.068Z" fill="#263238"/><path d="M470.2 235.768C470.2 236.023 470.103 236.269 469.928 236.455C469.754 236.641 469.514 236.753 469.26 236.768C469.136 236.776 469.012 236.76 468.895 236.72C468.778 236.68 468.67 236.618 468.577 236.536C468.484 236.454 468.408 236.355 468.354 236.244C468.299 236.133 468.267 236.012 468.26 235.888C468.259 235.633 468.356 235.387 468.531 235.202C468.706 235.016 468.945 234.904 469.2 234.888C469.323 234.88 469.447 234.896 469.564 234.936C469.681 234.976 469.79 235.039 469.883 235.121C469.975 235.202 470.051 235.302 470.106 235.413C470.16 235.524 470.192 235.645 470.2 235.768V235.768Z" fill="#263238"/><path d="M470.77 234.268C470.65 234.388 469.91 233.848 468.86 233.848C467.81 233.848 467.04 234.378 466.92 234.248C466.8 234.118 466.99 233.958 467.33 233.718C467.783 233.4 468.326 233.232 468.88 233.238C469.425 233.239 469.957 233.41 470.4 233.728C470.72 233.978 470.83 234.208 470.77 234.268Z" fill="#263238"/><path d="M474.59 242.068C475.144 241.889 475.719 241.785 476.3 241.758C476.57 241.758 476.82 241.678 476.87 241.488C476.89 241.213 476.828 240.938 476.69 240.698C476.43 240.048 476.17 239.368 475.89 238.648C475.152 236.916 474.557 235.127 474.11 233.298C474.985 234.97 475.724 236.709 476.32 238.498C476.58 239.218 476.84 239.898 477.08 240.548C477.249 240.874 477.299 241.25 477.22 241.608C477.18 241.702 477.12 241.786 477.044 241.853C476.968 241.921 476.878 241.97 476.78 241.998C476.63 242.04 476.475 242.06 476.32 242.058C475.746 242.134 475.165 242.137 474.59 242.068V242.068Z" fill="#263238"/><path d="M475.32 254.508C471.731 254.563 468.196 253.621 465.11 251.788C465.11 251.788 467.59 257.018 475.21 256.308L475.32 254.508Z" fill="#EB996E"/><path d="M474.14 244.598C473.941 244.347 473.682 244.151 473.386 244.029C473.09 243.906 472.768 243.861 472.45 243.898C472.217 243.919 471.991 243.987 471.785 244.097C471.579 244.207 471.397 244.357 471.25 244.538C471.11 244.713 471.027 244.927 471.012 245.151C470.998 245.374 471.053 245.597 471.17 245.788C471.339 245.978 471.56 246.112 471.806 246.175C472.052 246.237 472.311 246.224 472.55 246.138C473.046 245.964 473.501 245.692 473.89 245.338C474.007 245.253 474.109 245.148 474.19 245.028C474.229 244.971 474.249 244.903 474.249 244.833C474.249 244.764 474.229 244.696 474.19 244.638" fill="#EB996E"/><path d="M471.49 242.788C471.67 242.788 471.67 243.928 472.64 244.788C473.61 245.648 474.84 245.468 474.85 245.628C474.86 245.788 474.57 245.848 474.06 245.868C473.391 245.871 472.742 245.645 472.22 245.228C471.726 244.819 471.407 244.235 471.33 243.598C471.29 243.068 471.42 242.788 471.49 242.788Z" fill="#263238"/><path d="M471.25 232.428C471.14 232.708 470.09 232.578 468.86 232.728C467.63 232.878 466.63 233.208 466.46 232.948C466.29 232.688 466.56 232.558 466.97 232.288C467.501 231.941 468.108 231.725 468.74 231.658C469.372 231.584 470.012 231.659 470.61 231.878C471.06 232.068 471.29 232.328 471.25 232.428Z" fill="#007FFF"/><path d="M480.72 231.028C480.54 231.268 479.81 231.028 478.94 231.028C478.07 231.028 477.33 231.188 477.16 230.938C476.99 230.688 477.16 230.578 477.53 230.348C477.962 230.073 478.468 229.937 478.98 229.958C479.492 229.967 479.988 230.135 480.4 230.438C480.7 230.668 480.81 230.908 480.72 231.028Z" fill="#007FFF"/><path d="M458.81 236.918C458.499 236.75 458.149 236.671 457.796 236.689C457.443 236.706 457.102 236.82 456.81 237.018C456.1 237.426 455.554 238.067 455.264 238.833C454.975 239.599 454.961 240.441 455.224 241.216C455.488 241.991 456.013 242.651 456.709 243.082C457.405 243.513 458.229 243.688 459.04 243.578" fill="#FFBE9D"/><path d="M470.79 218.598C473.381 218.729 475.899 219.51 478.11 220.868C480.606 222.165 482.487 224.398 483.34 227.078C483.447 227.354 483.497 227.649 483.487 227.944C483.476 228.24 483.406 228.531 483.28 228.798C483.037 229.103 482.696 229.314 482.315 229.396C481.934 229.478 481.537 229.426 481.19 229.248C480.506 228.868 479.923 228.33 479.49 227.678C479.308 228.384 478.894 229.008 478.315 229.451C477.737 229.894 477.026 230.131 476.297 230.123C475.569 230.115 474.864 229.863 474.295 229.407C473.726 228.951 473.326 228.318 473.16 227.608C473.099 228.338 472.76 229.017 472.213 229.505C471.665 229.992 470.952 230.251 470.22 230.228C469.488 230.165 468.792 229.889 468.216 229.434C467.64 228.979 467.21 228.365 466.98 227.668C466.796 228.988 466.339 230.255 465.64 231.388C465.278 231.948 464.753 232.383 464.136 232.635C463.519 232.887 462.84 232.944 462.19 232.798C462.48 233.916 462.48 235.09 462.19 236.208C462.014 236.756 461.642 237.219 461.146 237.509C460.649 237.799 460.063 237.895 459.5 237.778C458.44 237.418 458.03 236.168 457.79 235.078C457.244 232.992 456.968 230.845 456.97 228.688C456.898 226.469 457.618 224.296 459.001 222.559C460.384 220.822 462.341 219.635 464.52 219.208C466.693 218.71 468.922 218.505 471.15 218.598" fill="#007FFF"/><path d="M458.28 241.328C458.28 241.278 457.98 241.398 457.61 241.228C457.387 241.098 457.207 240.906 457.092 240.675C456.976 240.444 456.931 240.185 456.96 239.928C456.961 239.667 457.039 239.411 457.183 239.193C457.326 238.975 457.53 238.803 457.77 238.698C457.993 238.637 458.22 238.594 458.45 238.568C458.45 238.568 458.19 238.328 457.69 238.438C457.396 238.504 457.132 238.666 456.94 238.898C456.71 239.182 456.577 239.533 456.56 239.898C456.527 240.235 456.607 240.574 456.788 240.86C456.97 241.146 457.241 241.364 457.56 241.478C458.03 241.608 458.32 241.328 458.28 241.328Z" fill="#EB996E"/><path d="M455.42 241.708C455.42 241.708 455.31 241.708 455.1 241.788C453.711 242.293 452.537 243.256 451.77 244.518C451.357 245.214 451.123 246.001 451.09 246.809C451.066 247.742 451.287 248.666 451.73 249.488C452.203 250.393 452.889 251.169 453.73 251.749C454.645 252.381 455.727 252.729 456.84 252.749C457.909 252.728 458.953 252.418 459.86 251.851C460.767 251.284 461.503 250.481 461.99 249.529C462.419 248.697 462.606 247.761 462.53 246.828C462.448 246.028 462.196 245.254 461.79 244.559C461.218 243.541 460.334 242.735 459.27 242.258C458.986 242.131 458.687 242.04 458.38 241.988C458.166 241.948 458.056 241.948 458.05 241.988C458.05 241.988 458.49 242.088 459.2 242.428C460.196 242.937 461.015 243.735 461.55 244.719C461.916 245.388 462.137 246.128 462.2 246.888C462.252 247.759 462.066 248.627 461.66 249.398C461.2 250.285 460.51 251.032 459.661 251.56C458.813 252.088 457.838 252.378 456.84 252.398C455.845 252.363 454.878 252.068 454.034 251.541C453.189 251.015 452.498 250.276 452.03 249.398C451.63 248.687 451.42 247.885 451.42 247.068C451.42 246.252 451.63 245.45 452.03 244.738C452.589 243.77 453.388 242.96 454.35 242.388C454.97 241.888 455.42 241.738 455.42 241.708Z" fill="#263238"/><path d="M461.67 218.088C461.59 218.088 461.43 217.418 460.96 216.428C460.355 215.132 459.455 213.995 458.331 213.109C457.208 212.223 455.892 211.613 454.49 211.328C453.41 211.098 452.71 211.108 452.71 211.018C453.309 210.848 453.941 210.827 454.55 210.958C456.047 211.164 457.462 211.765 458.65 212.698C459.835 213.633 460.747 214.87 461.29 216.278C461.564 216.841 461.694 217.463 461.67 218.088V218.088Z" fill="#E0E0E0"/><path d="M444.15 247.038C444.15 247.038 444.02 247.038 443.88 246.788C443.702 246.487 443.638 246.132 443.7 245.788C443.757 245.508 443.87 245.241 444.032 245.004C444.193 244.767 444.4 244.565 444.64 244.408C445.249 244.038 445.881 243.704 446.53 243.408C446.894 243.237 447.208 242.974 447.44 242.644C447.671 242.314 447.813 241.93 447.85 241.528C447.804 240.553 447.629 239.588 447.33 238.658C447.193 238.109 447.14 237.543 447.17 236.978C447.219 236.361 447.472 235.777 447.89 235.318C448.789 234.478 449.898 233.895 451.1 233.628C452.212 233.396 453.221 232.814 453.98 231.968C454.498 231.06 454.669 229.993 454.46 228.968C454.294 227.977 454.223 226.973 454.25 225.968C454.431 223.781 455.47 221.754 457.14 220.328C457.402 220.104 457.687 219.906 457.99 219.738C458.09 219.668 458.202 219.614 458.32 219.578C458.32 219.578 457.92 219.878 457.32 220.478C456.42 221.331 455.719 222.373 455.27 223.528C454.958 224.318 454.773 225.151 454.72 225.998C454.714 226.981 454.798 227.961 454.97 228.928C455.217 230.075 455.028 231.273 454.44 232.288C453.624 233.235 452.521 233.888 451.3 234.148C450.182 234.389 449.147 234.92 448.3 235.688C447.987 236.095 447.78 236.573 447.698 237.079C447.616 237.585 447.661 238.104 447.83 238.588C448.13 239.561 448.292 240.571 448.31 241.588C448.264 242.084 448.076 242.556 447.77 242.948C447.496 243.285 447.155 243.561 446.77 243.758C446.05 244.148 445.37 244.368 444.87 244.758C444.424 245.022 444.097 245.449 443.96 245.948C443.881 246.323 443.949 246.713 444.15 247.038V247.038Z" fill="#E0E0E0"/><path d="M471.31 227.328C471.23 227.328 471.16 226.518 470.76 225.328C470.244 223.735 469.36 222.286 468.18 221.098C466.986 219.93 465.538 219.054 463.95 218.538C462.73 218.138 461.95 218.078 461.95 217.988C462.666 217.891 463.394 217.96 464.08 218.188C465.777 218.613 467.328 219.488 468.57 220.72C469.812 221.951 470.7 223.495 471.14 225.188C471.366 225.878 471.425 226.612 471.31 227.328V227.328Z" fill="#E0E0E0"/><path d="M477.42 224.028C477.033 223.211 476.589 222.422 476.09 221.668C474.77 219.945 472.945 218.676 470.87 218.038C468.777 217.432 466.583 217.255 464.42 217.518C462.75 217.698 461.73 217.928 461.71 217.848C462.556 217.482 463.453 217.249 464.37 217.158C466.59 216.774 468.868 216.904 471.03 217.538C473.207 218.203 475.096 219.585 476.39 221.458C476.777 222.02 477.077 222.637 477.28 223.288C477.379 223.522 477.426 223.775 477.42 224.028V224.028Z" fill="#E0E0E0"/><path d="M464.16 216.178C464.16 216.178 463.97 216.678 463.38 217.288C462.593 218.066 461.644 218.66 460.6 219.028C459.561 219.408 458.45 219.548 457.35 219.438C456.888 219.434 456.436 219.306 456.04 219.068C457.523 219.141 459.007 218.962 460.43 218.538C461.795 217.963 463.056 217.166 464.16 216.178V216.178Z" fill="#263238"/><path d="M469.51 356.948C451.2 350.888 463.75 326.668 463.75 326.668L543.75 334.198C545.279 334.185 546.795 334.475 548.211 335.051C549.627 335.627 550.914 336.478 551.999 337.555C553.085 338.632 553.946 339.913 554.533 341.325C555.12 342.736 555.421 344.25 555.42 345.778V345.778C555.415 348.842 554.195 351.778 552.028 353.943C549.861 356.108 546.923 357.326 543.86 357.328L469.51 356.928" fill="#263238"/><path d="M450.77 356.928C432.93 350.928 445.23 326.658 445.23 326.658L523.23 334.018C530.85 334.118 534.57 337.798 534.57 345.568C534.57 351.958 532.19 357.348 523.26 357.168L450.76 356.928" fill="#263238"/><path d="M468.88 330.758H469.1H469.75L472.25 330.858L481.42 331.328L511.69 332.988C513.17 333.058 514.63 333.188 516.07 333.208C517.51 333.228 518.94 333.288 520.33 333.378C521.72 333.468 523.1 333.568 524.44 333.708C525.77 333.8 527.081 334.069 528.34 334.508C529.552 334.975 530.658 335.683 531.59 336.588C532.48 337.482 533.163 338.561 533.59 339.748C533.988 340.851 534.26 341.995 534.4 343.158C534.542 344.229 534.612 345.308 534.61 346.388C534.647 348.247 534.307 350.094 533.61 351.818C533.066 353.094 532.234 354.227 531.18 355.128C530.53 355.681 529.78 356.102 528.97 356.368C528.42 356.548 528.41 356.488 528.97 356.288C529.756 355.993 530.482 355.556 531.11 354.998C532.119 354.092 532.912 352.972 533.43 351.718C534.116 350.026 534.456 348.214 534.43 346.388C534.422 345.324 534.341 344.262 534.19 343.208C534.047 342.072 533.779 340.955 533.39 339.878C532.977 338.752 532.325 337.729 531.48 336.878C530.59 335.997 529.523 335.316 528.35 334.878C527.121 334.449 525.839 334.19 524.54 334.108C523.21 333.968 521.84 333.868 520.45 333.788C519.06 333.708 517.64 333.648 516.21 333.628C514.78 333.608 513.3 333.478 511.82 333.408L481.42 331.618L472.24 331.028L469.75 330.848L469.1 330.788L468.88 330.758Z" fill="#455A64"/><path d="M496.62 332.328L490.21 329.178L485.74 314.328L485.31 295.328L494.37 291.508L487.18 273.458C485.87 270.788 483.18 263.718 476.42 261.398C476.313 260.392 476.394 259.375 476.66 258.398C477.19 257.508 460.07 256.978 459.1 257.328C458.13 257.678 459.26 260.808 459.15 261.328C453.06 263.008 447.15 265.518 444.92 273.888C444.06 277.148 444.35 284.028 444.82 287.348L449.57 312.478L446.9 320.728C446.9 320.728 437.55 340.208 441.1 347.818C444.65 355.428 450.67 357.148 450.67 357.148L497.25 357.048L496.62 332.328Z" fill="#007FFF"/><g opacity="0.3"><path opacity="0.3" d="M449.88 302.528C450.757 306.562 451.9 310.534 453.3 314.418C454.189 316.882 455.45 319.196 457.04 321.278C459.401 323.99 462.546 325.902 466.04 326.748C469.512 327.591 473.112 327.767 476.65 327.268L459.02 317.268L454.33 300.978L449.88 302.528Z" fill="black"/></g><path d="M485.73 313.778C485.646 313.333 485.602 312.881 485.6 312.428C485.6 311.488 485.5 310.248 485.42 308.758C485.29 305.658 485.14 301.368 484.99 296.628C484.84 291.888 484.74 287.628 484.69 284.498C484.69 282.998 484.69 281.758 484.69 280.818C484.654 280.369 484.654 279.918 484.69 279.468C484.767 279.911 484.808 280.359 484.81 280.808C484.86 281.748 484.92 282.988 484.99 284.488C485.12 287.588 485.28 291.878 485.42 296.618C485.56 301.358 485.67 305.618 485.73 308.748C485.73 310.248 485.73 311.488 485.73 312.428C485.766 312.878 485.766 313.329 485.73 313.778V313.778Z" fill="#263238"/><path d="M468.48 296.028C468.379 296.087 468.271 296.134 468.16 296.168L467.16 296.528L463.32 297.878L449.26 302.728L449.03 302.808L448.98 302.568C448.03 297.458 446.91 291.478 445.7 285.008C445.51 281.818 444.87 278.488 445.14 275.008C445.254 274.163 445.486 273.338 445.83 272.558C446.132 271.78 446.521 271.039 446.99 270.348C447.924 268.988 449.2 267.898 450.69 267.188C452.088 266.48 453.662 266.193 455.221 266.361C456.779 266.53 458.255 267.147 459.47 268.138C460.48 269.166 461.279 270.383 461.82 271.718C462.351 272.943 462.808 274.199 463.19 275.478C463.93 277.938 464.5 280.268 465.05 282.408L467.6 292.408C467.89 293.558 468.11 294.458 468.27 295.118C468.34 295.398 468.39 295.628 468.44 295.808C468.49 295.988 468.44 296.048 468.44 296.038C468.4 295.959 468.37 295.875 468.35 295.788C468.29 295.595 468.22 295.355 468.14 295.068C467.95 294.408 467.7 293.498 467.37 292.348C466.72 289.958 465.79 286.568 464.65 282.408C464.07 280.328 463.5 278.008 462.74 275.568C462.353 274.309 461.892 273.073 461.36 271.868C460.844 270.596 460.083 269.437 459.12 268.458C457.973 267.539 456.586 266.97 455.125 266.82C453.663 266.669 452.19 266.943 450.88 267.608C449.469 268.282 448.261 269.317 447.38 270.608C446.934 271.269 446.561 271.976 446.27 272.718C445.947 273.458 445.728 274.239 445.62 275.038C445.36 278.408 445.97 281.738 446.17 284.968C447.35 291.438 448.44 297.418 449.37 302.538L449.09 302.378L463.09 297.768L467.02 296.508L468.02 296.178L468.48 296.028Z" fill="#263238"/><path d="M454.42 300.678C454.29 300.678 453.92 299.948 453.59 298.948C453.26 297.948 453.12 297.098 453.26 297.058C453.4 297.018 453.77 297.788 454.09 298.788C454.41 299.788 454.59 300.638 454.42 300.678Z" fill="#263238"/><path d="M459.04 299.388C458.9 299.388 458.59 298.668 458.36 297.698C458.13 296.728 458.04 295.928 458.18 295.888C458.32 295.848 458.63 296.608 458.86 297.578C459.09 298.548 459.18 299.328 459.04 299.388Z" fill="#263238"/><path d="M463.67 297.728C463.53 297.728 463.22 297.148 462.98 296.348C462.74 295.548 462.66 294.868 462.8 294.818C462.94 294.768 463.24 295.398 463.48 296.198C463.72 296.998 463.8 297.688 463.67 297.728Z" fill="#263238"/><path d="M488.71 293.898C488.59 293.968 488.06 293.308 487.71 292.338C487.36 291.368 487.3 290.528 487.43 290.508C487.56 290.488 487.85 291.238 488.2 292.158C488.55 293.078 488.84 293.818 488.71 293.898Z" fill="#263238"/><path d="M492.19 291.918C492.06 291.988 491.64 291.408 491.25 290.638C490.86 289.868 490.65 289.188 490.78 289.118C490.91 289.048 491.33 289.628 491.72 290.398C492.11 291.168 492.32 291.858 492.19 291.918Z" fill="#263238"/><path d="M461.79 262.118C461.79 262.118 461.87 262.288 461.88 262.568H461.61C461.448 261.783 461.341 260.988 461.29 260.188C461.122 259.246 461.122 258.281 461.29 257.338C461.63 258.236 461.799 259.189 461.79 260.148C461.867 260.946 461.89 261.748 461.86 262.548H461.59C461.68 262.268 461.74 262.108 461.79 262.118Z" fill="#263238"/><path d="M465.95 262.118C465.646 261.383 465.5 260.593 465.52 259.798C465.372 259.018 465.402 258.215 465.61 257.448C465.914 258.183 466.06 258.973 466.04 259.768C466.189 260.548 466.158 261.352 465.95 262.118V262.118Z" fill="#263238"/><path d="M470.31 263.058C470.035 262.152 469.934 261.202 470.01 260.258C469.915 259.316 469.989 258.364 470.23 257.448C470.504 258.355 470.606 259.304 470.53 260.248C470.624 261.191 470.55 262.142 470.31 263.058V263.058Z" fill="#263238"/><path d="M473.87 262.468C473.617 261.699 473.528 260.885 473.61 260.078C473.529 259.269 473.618 258.452 473.87 257.678C474.134 258.449 474.227 259.268 474.14 260.078C474.227 260.885 474.135 261.701 473.87 262.468V262.468Z" fill="#263238"/><path d="M496.92 332.868C496.92 333.008 488.23 332.538 477.53 331.808C466.83 331.078 458.17 330.368 458.18 330.228C458.19 330.088 466.87 330.558 477.57 331.288C488.27 332.018 496.93 332.728 496.92 332.868Z" fill="#263238"/><path d="M451.95 301.868L456.24 315.868C456.993 318.422 458.434 320.719 460.406 322.508C462.378 324.296 464.805 325.508 467.42 326.008L494.08 331.078L501.33 330.838L498.87 324.648L474.04 314.828C473.082 314.605 472.204 314.124 471.5 313.439C470.795 312.754 470.29 311.889 470.04 310.938L466.29 296.888L451.95 301.868Z" fill="#FFBE9D"/><path d="M475.52 331.258L475.75 329.528L496.23 328.728L506.28 303.378L544.57 305.978L531.65 334.118L475.52 331.258Z" fill="#455A64"/><path d="M521.35 319.818C521.138 320.153 520.832 320.416 520.471 320.577C520.109 320.737 519.708 320.786 519.318 320.719C518.929 320.651 518.568 320.47 518.281 320.197C517.995 319.924 517.795 319.573 517.709 319.187C517.622 318.801 517.652 318.398 517.794 318.029C517.936 317.66 518.185 317.341 518.508 317.113C518.832 316.885 519.215 316.759 519.611 316.749C520.006 316.739 520.396 316.847 520.73 317.058C520.952 317.199 521.144 317.382 521.295 317.596C521.446 317.811 521.554 318.054 521.612 318.31C521.669 318.566 521.676 318.831 521.631 319.09C521.586 319.349 521.49 319.596 521.35 319.818V319.818Z" fill="white"/><path d="M195.42 149.218C212.11 143.158 203.54 117.988 203.54 117.988L118.84 125.748C117.267 125.74 115.708 126.043 114.252 126.64C112.797 127.236 111.473 128.115 110.358 129.224C109.243 130.334 108.358 131.653 107.754 133.105C107.151 134.558 106.84 136.115 106.84 137.688C106.84 140.855 108.098 143.892 110.337 146.131C112.576 148.37 115.613 149.628 118.78 149.628L195.44 149.218" fill="#263238"/><path d="M86.3501 218.918L86.1801 210.518L102.29 204.788L102.96 216.488L102.05 216.928C98.0501 218.838 81.3501 226.358 78.2401 226.648C74.7701 226.958 86.3501 218.918 86.3501 218.918Z" fill="#007FFF"/><g opacity="0.4"><path opacity="0.4" d="M80.7799 223.068C80.7799 223.068 76.8399 226.168 77.6999 226.678C78.5599 227.188 95.6999 220.218 102.96 216.488L102.8 216.158L82.8999 224.458C82.8999 224.458 81.6699 222.748 80.7799 223.068Z" fill="white"/></g><path d="M103.03 216.058L102.78 216.188L102.06 216.538L99.4199 217.758C97.1499 218.758 93.9999 220.148 90.4899 221.578C86.9799 223.008 83.7599 224.248 81.4299 225.098L78.6599 226.098L77.8999 226.358L77.6299 226.428L77.8899 226.318L78.6299 226.028L81.3799 224.968C83.6999 224.078 86.8999 222.838 90.3799 221.398C93.8599 219.958 97.0499 218.618 99.3799 217.638L102.08 216.468L102.81 216.158C102.879 216.117 102.953 216.084 103.03 216.058V216.058Z" fill="#263238"/><path d="M83.0001 224.688C82.7023 224.294 82.3674 223.929 82.0001 223.598C81.5729 223.326 81.1168 223.101 80.6401 222.928C81.1704 222.948 81.6827 223.126 82.1105 223.44C82.5384 223.754 82.8623 224.189 83.0401 224.688H83.0001Z" fill="#263238"/><path d="M86.51 220.648C86.51 220.648 86.16 220.518 85.8 220.268C85.44 220.018 85.17 219.768 85.21 219.718C85.25 219.668 85.55 219.848 85.91 220.108C86.27 220.368 86.54 220.598 86.51 220.648Z" fill="#263238"/><path d="M87.4197 219.508C87.4197 219.558 87.0997 219.508 86.7497 219.368C86.3997 219.228 86.1197 219.098 86.1397 219.048C86.1597 218.998 86.4597 219.048 86.8097 219.188C87.1597 219.328 87.4797 219.458 87.4197 219.508Z" fill="#263238"/><path d="M87.6498 217.778C87.6498 217.828 87.3399 218.018 86.9099 218.198C86.657 218.336 86.3773 218.418 86.0898 218.438C86.0898 218.388 86.3998 218.198 86.8298 218.018C87.0827 217.88 87.3624 217.798 87.6498 217.778Z" fill="#263238"/><path d="M87.51 216.678C87.3177 216.952 87.0503 217.164 86.7401 217.288C86.4568 217.467 86.1241 217.551 85.79 217.528C86.0645 217.365 86.3522 217.224 86.65 217.108C86.9231 216.939 87.2109 216.795 87.51 216.678V216.678Z" fill="#263238"/><path d="M85.4197 219.548C85.1119 219.734 84.7731 219.863 84.4197 219.928C84.0541 220.031 83.6787 220.094 83.2997 220.118C83.0738 220.143 82.8457 220.143 82.6197 220.118C82.4748 220.103 82.3417 220.031 82.2497 219.918C82.2102 219.85 82.1895 219.772 82.1895 219.693C82.1895 219.614 82.2102 219.537 82.2497 219.468C82.5459 219.14 82.9465 218.923 83.3838 218.856C83.8211 218.788 84.2683 218.874 84.6497 219.098C84.8769 219.23 85.0744 219.407 85.2297 219.618C85.3297 219.768 85.3697 219.858 85.3597 219.868C85.1423 219.605 84.8778 219.385 84.5797 219.218C84.2714 219.06 83.9252 218.991 83.5797 219.018C83.3676 219.032 83.1602 219.088 82.9697 219.182C82.7792 219.277 82.6093 219.408 82.4697 219.568C82.3597 219.748 82.4697 219.898 82.6997 219.928C82.9123 219.953 83.1271 219.953 83.3397 219.928C83.7093 219.908 84.0769 219.861 84.4397 219.788C85.0797 219.668 85.4197 219.518 85.4197 219.548Z" fill="#263238"/><path d="M85.2302 219.698C85.0343 219.539 84.9 219.316 84.8501 219.068C84.7837 218.802 84.7837 218.524 84.8501 218.258C84.8678 218.08 84.9327 217.911 85.0382 217.766C85.1438 217.622 85.286 217.509 85.4502 217.438C85.5573 217.421 85.6672 217.445 85.7567 217.507C85.8462 217.568 85.9083 217.662 85.9301 217.768C85.965 217.933 85.965 218.103 85.9301 218.268C85.8863 218.529 85.8125 218.784 85.7101 219.028C85.6323 219.263 85.4984 219.476 85.3201 219.648C85.3201 219.648 85.4402 219.398 85.5802 218.978C85.6656 218.739 85.7227 218.491 85.7502 218.238C85.8002 217.978 85.7502 217.578 85.4802 217.638C85.2102 217.698 85.0802 218.048 85.0102 218.298C84.9555 218.542 84.9555 218.795 85.0102 219.038C85.0642 219.264 85.1378 219.485 85.2302 219.698V219.698Z" fill="#263238"/><path d="M101.05 212.078C101.05 212.078 100.61 212.208 99.9597 212.568C99.1156 213.025 98.4185 213.712 97.9494 214.549C97.4803 215.387 97.2584 216.34 97.3097 217.298C97.3097 218.028 97.4897 218.478 97.4597 218.488C97.4036 218.391 97.36 218.287 97.3297 218.178C97.2464 217.895 97.1927 217.603 97.1697 217.308C97.077 216.317 97.2886 215.321 97.7763 214.452C98.264 213.584 99.0047 212.885 99.8997 212.448C100.163 212.309 100.441 212.202 100.73 212.128C100.833 212.094 100.941 212.078 101.05 212.078Z" fill="#263238"/><path d="M96.96 206.468C97.4778 207.441 97.9385 208.442 98.34 209.468C98.8044 210.475 99.2052 211.511 99.54 212.568C99.0206 211.597 98.5598 210.595 98.16 209.568C97.7019 208.558 97.3013 207.523 96.96 206.468V206.468Z" fill="#263238"/><path d="M94.9901 217.888C94.3375 218.342 93.6324 218.715 92.8901 218.999C92.1665 219.33 91.4037 219.569 90.6201 219.709C90.6201 219.659 91.6201 219.319 92.8101 218.809C94.0001 218.299 94.9601 217.838 94.9901 217.888Z" fill="#263238"/><path d="M97.9302 216.688C97.9802 216.688 97.9302 216.928 97.9302 217.188C97.9302 217.448 97.9302 217.678 97.9302 217.698C97.9302 217.718 97.7502 217.488 97.7602 217.178C97.7702 216.868 97.8802 216.658 97.9302 216.688Z" fill="#263238"/><path d="M98.4701 214.858C98.4701 214.858 98.4701 215.068 98.4001 215.288C98.3301 215.508 98.1901 215.678 98.1401 215.658C98.0901 215.638 98.1401 215.438 98.2201 215.218C98.3001 214.998 98.4201 214.838 98.4701 214.858Z" fill="#263238"/><path d="M99.8 213.578C99.8 213.638 99.61 213.718 99.42 213.878C99.23 214.038 99.12 214.228 99.07 214.208C99.02 214.188 99.07 213.938 99.29 213.738C99.51 213.538 99.8 213.528 99.8 213.578Z" fill="#263238"/><path d="M100.81 212.828C100.81 212.828 100.81 212.978 100.68 213.078C100.55 213.178 100.46 213.218 100.43 213.178C100.4 213.138 100.43 213.028 100.55 212.928C100.67 212.828 100.77 212.788 100.81 212.828Z" fill="#263238"/><path d="M151.01 124.608L103.71 125.498C100.052 125.565 96.5418 126.951 93.8243 129.4C91.1068 131.849 89.3653 135.197 88.92 138.828L79.54 215.058H105.23L113.07 149.218H150.42L151.01 124.608Z" fill="#263238"/><path d="M79.8599 210.209C79.8599 210.329 85.4899 210.468 92.4299 210.508C99.3699 210.548 104.88 210.379 105 210.369C105.8 210.289 99.3699 210.108 92.4299 210.068C85.4899 210.028 79.8599 210.089 79.8599 210.209Z" fill="#455A64"/><path d="M177.03 122.208H176.1L173.42 122.328L163.64 122.788L131.42 124.448C129.84 124.518 128.29 124.648 126.76 124.668C125.23 124.688 123.7 124.758 122.21 124.838C120.72 124.918 119.27 125.028 117.84 125.178C116.424 125.263 115.025 125.536 113.68 125.988C112.401 126.445 111.227 127.156 110.23 128.078C109.301 128.972 108.584 130.062 108.13 131.268C107.715 132.378 107.429 133.533 107.28 134.708C107.122 135.788 107.045 136.877 107.05 137.968C107.019 139.853 107.394 141.722 108.15 143.448C108.73 144.752 109.615 145.898 110.73 146.788C111.428 147.351 112.225 147.778 113.08 148.048C113.67 148.218 113.68 148.168 113.08 147.968C112.249 147.668 111.478 147.225 110.8 146.658C109.733 145.764 108.887 144.635 108.33 143.358C107.62 141.652 107.279 139.815 107.33 137.968C107.337 136.894 107.421 135.821 107.58 134.758C107.74 133.61 108.029 132.483 108.44 131.398C108.88 130.265 109.563 129.241 110.44 128.398C111.409 127.515 112.544 126.835 113.78 126.398C115.096 125.973 116.46 125.715 117.84 125.628C119.26 125.488 120.72 125.388 122.2 125.308C123.68 125.228 125.2 125.168 126.72 125.148C128.24 125.128 129.81 124.998 131.39 124.928L163.64 123.128L173.42 122.528L176.07 122.348L176.76 122.288C176.854 122.279 176.946 122.252 177.03 122.208Z" fill="#455A64"/><path d="M161.96 90.5884L157.85 103.468C157.063 106.089 155.569 108.442 153.531 110.268C151.493 112.095 148.991 113.323 146.3 113.818L122.42 120.438L120.56 116.018L118.82 109.488L139.48 102.488C140.476 102.271 141.393 101.782 142.129 101.076C142.865 100.37 143.391 99.4748 143.65 98.4884L151.88 80.5884L162.3 86.9784L161.96 90.5884Z" fill="#EEB395"/><path d="M171.98 50.3283C163.23 51.3283 160.41 54.9083 156.84 60.0783C155.357 62.2204 154.166 64.551 153.3 67.0083L146.67 85.7883L160.5 90.0583L160.04 105.328L153.74 123.998L206.87 128.178L206.72 101.048L206.34 84.6783C206.84 78.4783 208.13 65.3383 207.03 62.2183C202.3 48.8883 191.87 51.4483 184.22 49.5483C180.716 49.188 177.184 49.188 173.68 49.5483" fill="#007FFF"/><path d="M206.87 99.3284C206.87 99.4684 196.48 99.5883 183.66 99.5883C170.84 99.5883 160.42 99.4984 160.42 99.3284C160.42 99.1584 170.81 99.0684 183.63 99.0684C196.45 99.0684 206.87 99.2084 206.87 99.3284Z" fill="#FAFAFA"/><path d="M206.09 108.628C206.09 108.778 195.7 108.888 182.88 108.888C170.06 108.888 159.67 108.778 159.67 108.628C159.67 108.478 170.06 108.368 182.88 108.368C195.7 108.368 206.09 108.488 206.09 108.628Z" fill="#FAFAFA"/><path d="M206.34 119.268C206.34 119.418 195.34 119.528 181.8 119.528C168.26 119.528 157.25 119.418 157.25 119.268C157.25 119.118 168.25 119.008 181.8 119.008C195.35 119.008 206.34 119.128 206.34 119.268Z" fill="#FAFAFA"/><g opacity="0.3"><path opacity="0.3" d="M199.89 93.4285C199.2 97.0185 198.89 100.898 197.67 104.348C196.863 106.926 195.666 109.364 194.12 111.578C191.812 114.46 188.668 116.556 185.12 117.578C181.61 118.668 164.74 122.438 161.12 122.158L191.98 107.548L195.7 92.1885L199.89 93.4285Z" fill="black"/></g><path d="M198.09 92.8883L194.7 105.948C194.039 108.625 192.654 111.067 190.696 113.008C188.738 114.949 186.282 116.312 183.6 116.948L156.36 123.328L148.87 123.408V113.098L176.29 105.688C177.275 105.424 178.169 104.894 178.874 104.157C179.579 103.42 180.069 102.504 180.29 101.508L182.93 90.0183L198.09 92.8883Z" fill="#EEB395"/><path d="M207.14 61.4583C207.14 61.5983 195.69 61.7182 181.56 61.7182C167.43 61.7182 155.98 61.5983 155.98 61.4583C155.98 61.3183 167.43 61.1982 181.56 61.1982C195.69 61.1982 207.14 61.3283 207.14 61.4583Z" fill="#FAFAFA"/><path d="M207.42 70.3284C207.42 70.4784 195.08 70.5883 179.85 70.5883C164.62 70.5883 152.28 70.4784 152.28 70.3284C152.28 70.1784 164.62 70.0684 179.85 70.0684C195.08 70.0684 207.42 70.1684 207.42 70.3284Z" fill="#FAFAFA"/><path d="M206.75 79.8784C206.75 80.0284 193.75 80.2484 177.75 80.3684C161.75 80.4884 148.75 80.4784 148.75 80.3684C148.75 80.2584 161.75 80.0084 177.75 79.8784C193.75 79.7484 206.74 79.7384 206.75 79.8784Z" fill="#FAFAFA"/><path d="M206.34 90.0183C206.34 90.1583 195.95 90.2783 183.13 90.2783C170.31 90.2783 159.92 90.1583 159.92 90.0183C159.92 89.8783 170.31 89.7583 183.13 89.7583C195.95 89.7583 206.34 89.8783 206.34 90.0183Z" fill="#FAFAFA"/><path d="M202.76 93.9783C202.745 93.9058 202.745 93.8308 202.76 93.7583L202.85 93.1283C202.94 92.5383 203.07 91.7283 203.22 90.7083C203.55 88.5883 204.03 85.5183 204.56 81.7083C205.09 77.8983 205.7 73.2383 206.01 68.0183C206.11 65.4283 206.33 62.5683 205.01 60.0183C204.358 58.7373 203.391 57.643 202.2 56.8383C200.965 56.0093 199.561 55.4661 198.09 55.2483H198.03C196.347 54.8473 194.582 54.9694 192.97 55.5983C191.266 56.1469 189.679 57.0082 188.29 58.1383C188.011 58.371 187.768 58.644 187.57 58.9483C187.375 59.2715 187.198 59.6054 187.04 59.9483C186.733 60.6288 186.476 61.3307 186.27 62.0483C185.885 63.4806 185.578 64.9327 185.35 66.3983C184.83 69.2883 184.35 72.1083 183.84 74.8183C182.84 80.2383 181.97 85.2383 181.17 89.6683L181.02 89.4383L196.42 92.6683L200.65 93.6083L201.76 93.8683C201.887 93.8922 202.011 93.9291 202.13 93.9783L201.74 93.9283L200.63 93.7283L196.37 92.8983L180.93 89.7783H180.75V89.5783C181.53 85.1483 182.4 80.1383 183.35 74.7083C183.83 71.9983 184.35 69.1783 184.84 66.2783C185.066 64.7984 185.376 63.3326 185.77 61.8883C185.975 61.1418 186.239 60.4129 186.56 59.7083C186.73 59.366 186.917 59.0322 187.12 58.7083C187.346 58.3658 187.619 58.0562 187.93 57.7883C189.375 56.61 191.026 55.7113 192.8 55.1383C194.518 54.4813 196.395 54.3661 198.18 54.8083H198.13C199.685 55.0386 201.169 55.6163 202.47 56.4983C203.74 57.3487 204.772 58.5085 205.47 59.8683C205.8 60.523 206.061 61.21 206.25 61.9183C206.412 62.6118 206.516 63.3176 206.56 64.0283L206.62 65.0283C206.62 65.3683 206.62 65.7083 206.62 66.0283C206.62 66.7083 206.57 67.3683 206.53 68.0283C206.19 73.2783 205.53 77.8983 204.97 81.7483C204.41 85.5983 203.86 88.6583 203.48 90.7483C203.29 91.7483 203.13 92.5683 203.02 93.1583L202.89 93.7783C202.853 93.8489 202.81 93.9159 202.76 93.9783Z" fill="#263238"/><path d="M160.35 105.118C160.409 104.657 160.432 104.193 160.42 103.728C160.42 102.728 160.42 101.478 160.42 99.9283C160.42 96.7283 160.42 92.3083 160.33 87.4183C160.24 82.5283 160.2 78.1083 160.12 74.9083C160.07 73.3583 160.03 72.0883 160 71.1083C160.001 70.6431 159.968 70.1784 159.9 69.7183C159.835 70.1785 159.811 70.6438 159.83 71.1083C159.83 72.1083 159.83 73.3583 159.83 74.9083C159.83 78.1083 159.83 82.5383 159.92 87.4183C160.01 92.2983 160.06 96.7383 160.14 99.9383C160.14 101.478 160.23 102.758 160.26 103.728C160.248 104.193 160.278 104.659 160.35 105.118V105.118Z" fill="#263238"/><path d="M177.03 125.608L177.5 123.378L156.87 121.178L147.87 95.3283L105.85 95.0383L119.62 125.018L177.03 125.608Z" fill="#455A64"/><path d="M132.78 111.568C133.125 111.349 133.398 111.032 133.563 110.658C133.728 110.283 133.779 109.868 133.708 109.465C133.638 109.062 133.449 108.689 133.167 108.393C132.884 108.097 132.52 107.891 132.121 107.802C131.722 107.712 131.305 107.743 130.923 107.891C130.542 108.038 130.212 108.295 129.977 108.63C129.741 108.965 129.61 109.362 129.6 109.771C129.59 110.18 129.701 110.583 129.92 110.928C130.065 111.159 130.255 111.358 130.477 111.514C130.7 111.671 130.951 111.782 131.217 111.842C131.483 111.901 131.758 111.908 132.026 111.861C132.294 111.814 132.55 111.715 132.78 111.568" fill="white"/><path d="M161.42 7.73837C160.287 7.91633 159.237 8.43884 158.412 9.23483C157.587 10.0308 157.027 11.0616 156.808 12.1871C156.59 13.3126 156.723 14.478 157.191 15.5249C157.658 16.5719 158.436 17.4495 159.42 18.0384C159.826 18.3186 160.295 18.4944 160.785 18.5503C161.275 18.6061 161.771 18.5402 162.23 18.3584C162.617 18.1113 162.951 17.7894 163.212 17.4116C163.473 17.0338 163.656 16.6078 163.75 16.1584C164.619 13.3132 164.38 10.2444 163.08 7.56836" fill="#263238"/><path d="M178.71 58.7783C177.522 58.7783 176.346 58.5432 175.25 58.0866C174.153 57.6299 173.158 56.9607 172.321 56.1176C171.485 55.2744 170.823 54.274 170.375 53.174C169.927 52.0739 169.701 50.8961 169.71 49.7083C169.71 46.5983 169.79 43.8983 169.79 43.8983C169.79 43.8983 162.59 43.2283 162.06 36.0983C161.53 28.9683 161.76 12.5083 161.76 12.5083C165.71 10.5193 170.119 9.61899 174.532 9.90022C178.946 10.1814 183.205 11.634 186.87 14.1083L187.97 14.8583L187.63 49.8583C187.609 52.2176 186.663 54.4743 184.994 56.1426C183.326 57.8109 181.069 58.7574 178.71 58.7783V58.7783Z" fill="#EEB395"/><path d="M169.81 43.7984C173.109 43.6586 176.292 42.5374 178.95 40.5784C178.95 40.5784 177.07 45.8484 169.95 45.6484L169.81 43.7984Z" fill="#AA6550"/><path d="M186.17 22.7385C186.31 22.7385 190.69 22.1185 190.27 27.2985C189.85 32.4785 184.77 30.2985 184.77 30.1885C184.77 30.0785 186.17 22.7385 186.17 22.7385Z" fill="#FFBE9D"/><path d="M186.5 28.4984C186.5 28.4984 186.59 28.5684 186.74 28.6584C186.947 28.7653 187.187 28.7868 187.41 28.7184C187.76 28.535 188.056 28.2612 188.265 27.9254C188.474 27.5895 188.59 27.2039 188.6 26.8084C188.649 26.3627 188.598 25.9117 188.45 25.4884C188.417 25.3227 188.343 25.168 188.235 25.0386C188.127 24.9092 187.987 24.8094 187.83 24.7484C187.729 24.7107 187.619 24.7101 187.518 24.7468C187.417 24.7834 187.333 24.855 187.28 24.9484C187.2 25.0884 187.22 25.1984 187.19 25.2084C187.16 25.2184 187.09 25.1084 187.19 24.8984C187.23 24.7722 187.311 24.663 187.42 24.5884C187.495 24.5403 187.578 24.5076 187.666 24.4921C187.753 24.4767 187.843 24.4788 187.93 24.4984C188.138 24.5578 188.328 24.6701 188.48 24.8242C188.633 24.9784 188.743 25.1693 188.8 25.3784C188.99 25.84 189.059 26.3426 189 26.8384C188.989 27.3006 188.841 27.7493 188.576 28.1282C188.311 28.5071 187.94 28.7993 187.51 28.9684C187.367 28.9969 187.219 28.9937 187.078 28.9591C186.936 28.9246 186.804 28.8595 186.69 28.7684C186.5 28.6284 186.48 28.5084 186.5 28.4984Z" fill="#AA6550"/><path d="M166.72 15.4584C167.92 14.7649 169.045 13.9507 170.08 13.0284C170.513 13.7116 171.093 14.2897 171.777 14.7209C172.462 15.1521 173.234 15.4255 174.037 15.5212C174.841 15.617 175.655 15.5327 176.422 15.2745C177.188 15.0162 177.888 14.5906 178.47 14.0284C178.5 14.4908 178.645 14.9384 178.891 15.3311C179.137 15.7238 179.477 16.0493 179.88 16.2784C180.286 16.4998 180.742 16.6158 181.205 16.6158C181.668 16.6158 182.123 16.4998 182.53 16.2784L182.64 24.5284C182.567 25.3243 182.749 26.1227 183.16 26.8084C183.27 26.9648 183.413 27.0953 183.579 27.1905C183.745 27.2858 183.929 27.3435 184.12 27.3597C184.311 27.3759 184.503 27.3502 184.682 27.2843C184.862 27.2184 185.025 27.114 185.16 26.9784C184.983 25.9713 185.079 24.9353 185.44 23.9784C185.637 23.5127 186.004 23.1393 186.466 22.9334C186.928 22.7274 187.451 22.7042 187.93 22.8684C188.221 21.2591 188.318 19.6208 188.22 17.9884C188.199 17.4838 188.267 16.9796 188.42 16.4984C188.7 16.0384 188.83 16.3884 189.36 16.2784C190.115 16.0879 190.791 15.6632 191.291 15.065C191.79 14.4668 192.087 13.7259 192.14 12.9484C192.169 12.1673 192.002 11.3913 191.652 10.6921C191.303 9.993 190.782 9.39327 190.14 8.94837C188.847 8.06352 187.273 7.68614 185.72 7.88836C186.184 7.37235 186.441 6.70265 186.441 6.00836C186.441 5.31408 186.184 4.64438 185.72 4.12837C185.238 3.62916 184.649 3.24563 183.998 3.00661C183.347 2.76759 182.65 2.67929 181.96 2.74836C180.57 2.83836 179.01 3.60836 178.84 4.97836C178.668 3.62956 178.019 2.38672 177.011 1.4742C176.003 0.561675 174.702 0.0395818 173.342 0.00216062C171.983 -0.0352605 170.655 0.414451 169.599 1.27013C168.542 2.1258 167.826 3.33107 167.58 4.66836C165.92 3.92836 163.58 3.11836 161.94 3.86836C160.975 4.25132 160.14 4.90178 159.532 5.74324C158.925 6.58471 158.57 7.58219 158.51 8.61836C158.51 8.61836 158.09 14.2784 161.68 15.4184C165.27 16.5584 166.72 15.4584 166.72 15.4584Z" fill="#263238"/><path d="M163.68 23.9283C163.68 24.1936 163.785 24.4479 163.973 24.6354C164.16 24.823 164.414 24.9283 164.68 24.9283C164.928 24.9296 165.169 24.8381 165.354 24.6716C165.539 24.5052 165.655 24.2759 165.68 24.0283C165.68 23.7631 165.574 23.5088 165.387 23.3212C165.199 23.1337 164.945 23.0283 164.68 23.0283C164.431 23.0271 164.191 23.1186 164.006 23.285C163.821 23.4514 163.705 23.6808 163.68 23.9283Z" fill="#263238"/><path d="M163.42 22.7983C163.54 22.9283 164.3 22.3683 165.42 22.3783C166.54 22.3883 167.28 22.9183 167.42 22.7883C167.56 22.6583 167.35 22.4883 167.01 22.2383C166.542 21.9165 165.988 21.7455 165.42 21.7483C164.859 21.749 164.313 21.9275 163.86 22.2583C163.51 22.5083 163.42 22.7483 163.42 22.7983Z" fill="#263238"/><path d="M174.22 24.1783C174.22 24.4436 174.325 24.6979 174.513 24.8854C174.7 25.073 174.955 25.1783 175.22 25.1783C175.468 25.1796 175.709 25.0881 175.894 24.9216C176.079 24.7552 176.195 24.5259 176.22 24.2783C176.22 24.0131 176.114 23.7588 175.927 23.5712C175.739 23.3837 175.485 23.2783 175.22 23.2783C174.971 23.2771 174.731 23.3686 174.546 23.535C174.361 23.7014 174.245 23.9308 174.22 24.1783Z" fill="#263238"/><path d="M174.04 22.9983C174.16 23.1383 174.92 22.5683 176.04 22.5783C177.16 22.5883 177.9 23.1183 178.04 22.9883C178.18 22.8583 177.97 22.6883 177.63 22.4383C177.162 22.1165 176.607 21.9455 176.04 21.9483C175.479 21.9489 174.933 22.1275 174.48 22.4583C174.09 22.7083 173.98 22.9483 174.04 22.9983Z" fill="#263238"/><path d="M170.13 30.9883C169.566 30.8085 168.981 30.701 168.39 30.6683C168.11 30.6683 167.85 30.5883 167.8 30.3983C167.779 30.1152 167.845 29.8323 167.99 29.5883L168.8 27.4883C169.554 25.7162 170.166 23.8871 170.63 22.0183C169.732 23.7243 168.972 25.5 168.36 27.3283C168.09 28.0683 167.83 28.7683 167.59 29.4383C167.412 29.7685 167.359 30.152 167.44 30.5183C167.482 30.6132 167.544 30.6979 167.622 30.7669C167.7 30.8358 167.791 30.8875 167.89 30.9183C168.043 30.9599 168.201 30.9801 168.36 30.9783C168.947 31.0539 169.542 31.0573 170.13 30.9883V30.9883Z" fill="#263238"/><path d="M173.3 31.7283C173.13 31.7283 173.12 32.8883 172.12 33.7283C171.12 34.5683 169.88 34.4283 169.87 34.5883C169.86 34.7483 170.15 34.8183 170.67 34.8283C171.354 34.8435 172.021 34.6129 172.55 34.1783C173.06 33.7608 173.39 33.1626 173.47 32.5083C173.51 32.0083 173.42 31.7183 173.3 31.7283Z" fill="#263238"/><path d="M173.76 18.7883C173.87 19.0783 174.94 18.9383 176.2 19.0883C177.46 19.2383 178.49 19.5883 178.66 19.3283C178.83 19.0683 178.55 18.9283 178.14 18.6383C177.592 18.2864 176.968 18.0705 176.32 18.0083C175.675 17.9253 175.019 18.0008 174.41 18.2283C173.95 18.4183 173.72 18.6483 173.76 18.7883Z" fill="#263238"/><path d="M163.86 19.6883C164.05 19.9283 164.79 19.6883 165.68 19.6883C166.57 19.6883 167.32 19.8483 167.5 19.5983C167.68 19.3483 167.5 19.2283 167.13 18.9983C166.686 18.7212 166.17 18.5819 165.646 18.5979C165.123 18.6139 164.616 18.7846 164.19 19.0883C163.88 19.3283 163.77 19.5683 163.86 19.6883Z" fill="#263238"/><path d="M165.9 7.39825C165.9 7.39825 165.8 7.39825 165.62 7.31825C165.49 7.29506 165.357 7.30003 165.229 7.33281C165.101 7.36559 164.982 7.42542 164.88 7.50825C164.722 7.63406 164.607 7.80449 164.548 7.99721C164.489 8.18993 164.489 8.39595 164.55 8.58826C164.624 8.85339 164.76 9.09736 164.945 9.30057C165.131 9.50377 165.362 9.66053 165.62 9.75825C165.929 9.87871 166.261 9.93037 166.593 9.90964C166.924 9.88892 167.247 9.79632 167.54 9.63825C167.867 9.44484 168.143 9.17599 168.344 8.85414C168.546 8.53229 168.668 8.16681 168.7 7.78825C168.74 7.36712 168.68 6.9424 168.523 6.54935C168.367 6.15629 168.119 5.80624 167.8 5.52825C167.463 5.21905 167.064 4.98652 166.629 4.84668C166.194 4.70684 165.733 4.66302 165.28 4.71825C164.348 4.83307 163.483 5.26363 162.83 5.93825C162.229 6.57419 161.823 7.36885 161.66 8.22825C161.361 9.7187 161.62 11.2671 162.39 12.5783C162.887 13.4715 163.569 14.2487 164.39 14.8583C164.98 15.2783 165.39 15.4583 165.39 15.4983C165.011 15.4062 164.652 15.247 164.33 15.0282C163.412 14.4633 162.641 13.6888 162.08 12.7683C161.216 11.3901 160.901 9.73733 161.2 8.13825C161.368 7.17842 161.813 6.28863 162.48 5.57825C163.207 4.81311 164.181 4.32816 165.23 4.20825C165.757 4.14352 166.292 4.19405 166.798 4.35634C167.304 4.51864 167.768 4.78883 168.16 5.14825C168.528 5.48489 168.811 5.90451 168.985 6.37232C169.159 6.84014 169.219 7.34267 169.16 7.83826C169.115 8.29012 168.962 8.72447 168.713 9.10413C168.464 9.48379 168.126 9.79745 167.73 10.0183C167.379 10.1979 166.993 10.2981 166.599 10.3119C166.205 10.3258 165.812 10.2528 165.45 10.0982C165.147 9.97452 164.88 9.77857 164.671 9.52754C164.461 9.27651 164.317 8.97805 164.25 8.65826C164.187 8.41352 164.202 8.15555 164.291 7.91939C164.381 7.68324 164.541 7.48034 164.75 7.33826C164.876 7.25015 165.022 7.19257 165.174 7.17002C165.327 7.14747 165.483 7.16055 165.63 7.20825C165.85 7.32825 165.91 7.38825 165.9 7.39825Z" fill="#455A64"/><path d="M40.5037 337.998C41.1737 335.338 39.4237 332.688 37.5037 330.768C35.5837 328.848 33.2037 327.138 32.1737 324.598C30.5037 320.478 32.6837 315.118 29.8537 311.698C28.1937 309.698 25.2237 309.018 23.7537 306.858C23.0489 305.671 22.574 304.361 22.3537 302.998C20.7416 296.149 17.3229 289.858 12.4537 284.778C12.1811 290.898 13.5629 296.978 16.4537 302.378C17.6037 304.538 19.0137 306.638 19.4037 309.058C20.0437 312.978 17.8737 317.058 18.8537 320.878C19.9837 325.278 24.9537 328.198 25.2137 332.738C25.4337 336.568 22.1037 339.958 22.3837 343.788C22.5908 345.418 23.184 346.974 24.1137 348.328C27.1137 353.238 31.4837 356.608 38.1137 356.458L46.2037 356.698L40.5037 337.998Z" fill="#007FFF"/><g opacity="0.3"><path opacity="0.3" d="M40.5037 337.998C41.1737 335.338 39.4237 332.688 37.5037 330.768C35.5837 328.848 33.2037 327.138 32.1737 324.598C30.5037 320.478 32.6837 315.118 29.8537 311.698C28.1937 309.698 25.2237 309.018 23.7537 306.858C23.0489 305.671 22.574 304.361 22.3537 302.998C20.7416 296.149 17.3229 289.858 12.4537 284.778C12.1811 290.898 13.5629 296.978 16.4537 302.378C17.6037 304.538 19.0137 306.638 19.4037 309.058C20.0437 312.978 17.8737 317.058 18.8537 320.878C19.9837 325.278 24.9537 328.198 25.2137 332.738C25.4337 336.568 22.1037 339.958 22.3837 343.788C22.5908 345.418 23.184 346.974 24.1137 348.328C27.1137 353.238 31.4837 356.608 38.1137 356.458L46.2037 356.698L40.5037 337.998Z" fill="black"/></g><path d="M47.7738 356.898C48.5115 357.011 49.2632 356.99 49.9938 356.838C50.8911 356.701 51.7723 356.473 52.6238 356.158C53.793 355.747 54.8848 355.142 55.8538 354.368C56.4352 353.888 56.8915 353.274 57.1838 352.578C57.423 351.794 57.5443 350.979 57.5438 350.158C57.5557 349.286 57.6158 348.414 57.7238 347.548C57.8806 346.621 58.2206 345.734 58.7238 344.938C59.6638 343.258 61.2438 341.658 61.7238 339.388C62.2038 337.118 61.8538 334.728 61.4638 332.298C61.0738 329.868 60.6938 327.228 61.6038 324.698C62.5138 322.168 64.2238 319.868 65.0938 317.018C65.9638 314.168 65.5238 311.018 65.6938 308.018C65.7369 306.472 66.0764 304.947 66.6938 303.528C67.3438 302.088 68.2438 300.738 68.9438 299.228C70.3638 296.168 70.5938 292.718 70.9438 289.328C71.1238 287.628 71.3138 285.898 71.4938 284.158C71.6082 282.407 71.8997 280.671 72.3638 278.978C72.9009 277.275 73.5387 275.606 74.2738 273.978C74.6519 273.132 74.9596 272.256 75.1938 271.358C75.3253 270.437 75.4088 269.509 75.4438 268.578C75.5203 266.708 75.4367 264.835 75.1938 262.978C74.9638 261.108 74.6138 259.268 74.4038 257.398V257.068V256.698L74.0738 256.868C72.365 257.752 70.8832 259.018 69.7438 260.568C68.6289 262.08 67.7365 263.744 67.0938 265.508C65.7638 268.998 65.2938 272.638 64.6338 276.118C64.1484 279.557 63.0403 282.878 61.3638 285.918C60.4938 287.358 59.4238 288.678 58.4938 290.088C57.4926 291.461 56.8095 293.039 56.4938 294.708C56.0338 298.138 57.9338 301.128 57.5638 304.158C57.3882 305.65 56.8937 307.085 56.1138 308.368C55.3838 309.658 54.5238 310.868 53.7138 312.078C52.8847 313.257 52.165 314.509 51.5638 315.818C50.994 317.102 50.6555 318.477 50.5638 319.878C50.3838 322.608 50.7838 325.188 50.5638 327.638C50.3381 329.965 49.6586 332.224 48.5638 334.288C47.5638 336.288 46.5638 338.088 45.5638 339.838C45.1138 340.718 44.6938 341.568 44.3538 342.428C44.0337 343.255 43.8024 344.113 43.6638 344.988C43.4395 346.517 43.4395 348.07 43.6638 349.598C43.8892 351.738 44.7026 353.773 46.0138 355.478C46.2135 355.73 46.4343 355.964 46.6738 356.178C46.8361 356.345 47.0136 356.495 47.2038 356.628C47.5038 356.848 47.6738 356.948 47.6738 356.948C47.0919 356.495 46.562 355.979 46.0938 355.408C44.8344 353.704 44.0635 351.688 43.8638 349.578C43.6723 348.066 43.6992 346.533 43.9438 345.028C44.0896 344.173 44.3242 343.335 44.6438 342.528C45.0052 341.658 45.4125 340.806 45.8638 339.978C46.7738 338.238 47.8638 336.438 48.8638 334.438C49.9703 332.332 50.65 330.028 50.8638 327.658C51.0638 325.168 50.6738 322.568 50.8638 319.908C50.965 318.55 51.3035 317.22 51.8638 315.978C52.466 314.699 53.1787 313.474 53.9938 312.318C54.8038 311.118 55.6738 309.908 56.4138 308.578C57.2302 307.249 57.7488 305.758 57.9338 304.208C58.3038 300.978 56.4238 297.958 56.8838 294.778C57.1908 293.182 57.8464 291.673 58.8038 290.358C59.7138 288.978 60.8038 287.658 61.6938 286.168C63.4053 283.066 64.5371 279.677 65.0338 276.168C65.7038 272.668 66.1738 269.068 67.4738 265.658C68.1007 263.938 68.9694 262.315 70.0538 260.838C71.1446 259.353 72.5652 258.142 74.2038 257.298L73.8338 257.088V257.418C74.0438 259.308 74.3938 261.158 74.6238 262.998C74.8577 264.825 74.938 266.668 74.8638 268.508C74.8138 269.418 74.7638 270.358 74.6338 271.208C74.4056 272.076 74.1045 272.922 73.7338 273.738C72.9969 275.39 72.3559 277.083 71.8138 278.808C71.342 280.527 71.0472 282.29 70.9338 284.068C70.7538 285.818 70.5738 287.538 70.3938 289.248C70.0238 292.648 69.7938 296.048 68.3938 298.998C67.7238 300.458 66.8238 301.818 66.1538 303.298C65.5253 304.777 65.1859 306.362 65.1538 307.968C64.9938 311.088 65.4138 314.138 64.5838 316.908C63.7538 319.678 62.0138 321.968 61.1338 324.578C60.2538 327.188 60.6038 329.948 61.0038 332.368C61.4038 334.788 61.8138 337.168 61.3038 339.318C60.7938 341.468 59.3038 343.078 58.3638 344.798C57.8603 345.63 57.5208 346.55 57.3638 347.508C57.2615 348.388 57.2114 349.273 57.2138 350.158C57.2181 350.958 57.1035 351.753 56.8738 352.518C56.608 353.179 56.1818 353.764 55.6338 354.218C54.7135 354.974 53.6767 355.575 52.5638 355.998C51.7252 356.32 50.8579 356.561 49.9738 356.718C49.4323 356.816 48.8839 356.869 48.3338 356.878L47.7738 356.898Z" fill="#263238"/><path d="M72.7836 261.488C72.7436 261.563 72.7165 261.644 72.7036 261.728C72.7036 261.928 72.6036 262.168 72.5236 262.458C72.3736 263.098 72.1836 264.058 71.8936 265.258C71.6036 266.458 70.8936 267.818 70.2336 269.498C69.5736 271.178 68.9436 273.078 68.3436 275.238C67.7436 277.398 67.2036 279.798 66.6536 282.368C66.1765 285.111 65.3182 287.773 64.1036 290.278C63.4536 291.598 62.7136 292.938 62.1036 294.388C61.5297 295.884 61.1467 297.447 60.9636 299.038C60.5751 302.329 60.011 305.597 59.2736 308.828C57.6936 315.468 56.1836 321.828 54.8036 327.548C53.4236 333.268 52.1336 338.448 51.0636 342.808C49.9936 347.168 49.1736 350.628 48.5836 353.108C48.3036 354.288 48.0836 355.228 47.9336 355.908C47.8636 356.208 47.8136 356.448 47.7736 356.648C47.7604 356.731 47.7604 356.815 47.7736 356.898L47.8536 356.658C47.9136 356.465 47.9836 356.225 48.0636 355.938L48.8036 353.158C49.4436 350.688 50.3436 347.158 51.4436 342.898L55.3036 327.658C56.6836 321.898 58.2136 315.578 59.8136 308.938C60.5519 305.695 61.1128 302.413 61.4936 299.108C61.6681 297.558 62.0377 296.036 62.5936 294.578C63.1536 293.158 63.8836 291.828 64.5336 290.498C65.751 287.964 66.606 285.271 67.0736 282.498C67.6136 279.928 68.0736 277.498 68.7036 275.378C69.3336 273.258 69.8936 271.298 70.5036 269.638C71.1136 267.978 71.7936 266.638 72.0836 265.358C72.3736 264.078 72.5036 263.168 72.6336 262.518C72.6336 262.218 72.7236 261.978 72.7536 261.778C72.773 261.683 72.783 261.586 72.7836 261.488V261.488Z" fill="#263238"/><path d="M49.1936 356.918C54.4636 353.748 55.9236 344.208 53.6836 338.488C51.4436 332.768 47.5636 327.538 46.9336 321.428C46.4536 316.728 47.9336 311.898 46.8436 307.308C45.3336 301.118 39.2436 296.308 39.2836 289.968C39.2836 286.398 41.2836 282.968 41.1336 279.448C40.9136 275.058 37.5236 271.608 35.4236 267.758C32.1936 261.868 31.9436 254.878 30.8236 248.258C29.7036 241.638 27.1236 234.558 21.2336 231.328C20.4536 236.998 18.9436 240.828 19.4536 248.448C19.6336 251.178 22.8436 256.398 23.3036 262.398C23.5836 265.978 23.7836 269.568 24.0236 273.158C24.2636 276.748 24.5036 280.158 25.7736 283.458C26.7736 285.958 28.3036 288.218 29.0336 290.798C30.3936 295.658 28.6636 300.928 29.7736 305.848C30.7136 310.018 33.6236 313.598 34.2436 317.848C35.1036 323.788 31.2436 329.988 33.2436 335.648C34.2436 338.448 36.5636 340.698 37.2436 343.598C37.7636 345.858 37.2436 348.248 37.7036 350.508C38.4636 354.148 45.4436 356.948 49.1536 356.698" fill="#007FFF"/><path d="M22.7237 236.908C22.7126 237.015 22.7126 237.122 22.7237 237.228C22.7237 237.458 22.8037 237.768 22.8537 238.148C22.9737 238.958 23.1237 240.148 23.4037 241.698C23.6837 243.248 24.5137 244.988 25.1637 247.088C25.8137 249.188 26.5337 251.598 27.1637 254.308C27.7937 257.018 28.3037 260.018 28.8537 263.238C29.2982 266.715 30.2307 270.112 31.6237 273.328C32.3737 275.018 33.2137 276.698 33.8437 278.498C34.4649 280.343 34.8513 282.258 34.9937 284.198C35.3102 288.325 35.851 292.431 36.6137 296.498C38.2737 304.818 39.8637 312.748 41.3037 319.968L45.3037 339.088C46.5037 344.498 47.4537 348.898 48.1137 351.998C48.4437 353.488 48.7037 354.658 48.8937 355.498C48.987 355.865 49.057 356.165 49.1037 356.398C49.1208 356.505 49.151 356.609 49.1937 356.708C49.2091 356.602 49.2091 356.495 49.1937 356.388C49.1937 356.158 49.1037 355.858 49.0337 355.478C48.8737 354.638 48.6437 353.478 48.3537 351.958C47.7237 348.878 46.8437 344.468 45.7437 339.048C44.6437 333.628 43.2937 327.098 41.8137 319.898L37.1637 296.438C36.3785 292.375 35.8077 288.272 35.4537 284.148C35.3071 282.166 34.9106 280.211 34.2737 278.328C33.6137 276.498 32.7637 274.808 32.0137 273.138C30.6282 269.95 29.6926 266.584 29.2337 263.138C28.6737 259.918 28.1237 256.908 27.4837 254.198C26.93 251.765 26.2525 249.362 25.4537 246.998C24.7737 244.888 23.9337 243.158 23.6137 241.648C23.2937 240.138 23.1237 238.938 22.9637 238.138C22.8937 237.758 22.8337 237.448 22.7937 237.218C22.7792 237.113 22.7558 237.01 22.7237 236.908Z" fill="#263238"/><path d="M577.32 331.708C576.1 333.448 573.73 332.868 572.63 331.808C571.622 330.648 570.933 329.245 570.63 327.738C569.63 324.378 568.69 320.858 569.41 317.448C569.581 316.413 570.035 315.444 570.72 314.648C571.069 314.259 571.514 313.967 572.01 313.802C572.506 313.637 573.037 313.605 573.55 313.708C574.124 313.939 574.642 314.289 575.069 314.736C575.497 315.183 575.825 315.715 576.03 316.298C577.606 319.586 578.432 323.183 578.45 326.828C578.569 328.534 578.168 330.235 577.3 331.708" fill="#007FFF"/><g opacity="0.2"><path opacity="0.2" d="M577.32 330.708C576.1 332.448 573.73 331.868 572.63 330.808C571.622 329.648 570.933 328.245 570.63 326.738C569.63 323.378 568.69 319.858 569.41 316.448C569.581 315.413 570.035 314.444 570.72 313.648C571.069 313.259 571.514 312.967 572.01 312.802C572.506 312.637 573.037 312.605 573.55 312.708C574.124 312.939 574.642 313.289 575.069 313.736C575.497 314.183 575.825 314.715 576.03 315.298C577.606 318.586 578.432 322.183 578.45 325.828C578.569 327.534 578.168 329.235 577.3 330.708" fill="black"/></g><path d="M572.75 339.518C570.708 338.559 568.412 338.282 566.2 338.728C564.989 338.832 563.849 339.339 562.96 340.168C562.543 340.602 562.31 341.181 562.31 341.783C562.31 342.386 562.543 342.964 562.96 343.398C563.546 343.798 564.253 343.982 564.96 343.918C566.69 343.918 568.62 343.598 569.96 344.638C570.75 345.228 571.27 346.218 572.22 346.508C572.691 346.619 573.186 346.572 573.628 346.375C574.071 346.178 574.436 345.842 574.67 345.418C575.122 344.553 575.222 343.546 574.95 342.608C574.843 341.96 574.59 341.344 574.208 340.808C573.827 340.273 573.328 339.832 572.75 339.518V339.518Z" fill="#007FFF"/><path d="M580.67 333.198C580.04 332.384 579.62 331.427 579.445 330.413C579.271 329.398 579.348 328.356 579.67 327.378C580.338 325.426 581.532 323.696 583.12 322.378C584.927 320.772 587.029 319.532 589.31 318.728C590.192 318.374 591.14 318.214 592.09 318.258C592.564 318.286 593.024 318.428 593.43 318.674C593.836 318.92 594.176 319.261 594.42 319.668C595.07 320.908 594.42 322.418 593.77 323.668C592.581 325.835 591.223 327.905 589.71 329.858C588.597 331.512 587.055 332.833 585.25 333.678C583.39 334.388 581.46 334.308 580.48 333.018" fill="#007FFF"/><path d="M577.42 356.968C577.358 356.706 577.321 356.438 577.31 356.168C577.31 355.598 577.19 354.878 577.1 354.018C576.994 352.954 576.834 351.896 576.62 350.848C576.335 349.574 575.95 348.323 575.47 347.108C574.991 345.9 574.349 344.762 573.56 343.728C572.918 342.888 572.094 342.205 571.15 341.728C570.521 341.412 569.846 341.196 569.15 341.088C568.887 341.078 568.626 341.041 568.37 340.978C568.636 340.948 568.904 340.948 569.17 340.978C569.905 341.03 570.623 341.217 571.29 341.528C572.279 341.992 573.148 342.676 573.83 343.528C574.665 344.572 575.339 345.735 575.83 346.978C576.318 348.21 576.7 349.481 576.97 350.778C577.175 351.836 577.315 352.904 577.39 353.978C577.46 354.898 577.49 355.638 577.5 356.158C577.508 356.431 577.481 356.703 577.42 356.968V356.968Z" fill="#263238"/><path d="M577.25 355.328C577.241 355.209 577.241 355.088 577.25 354.968C577.25 354.688 577.25 354.338 577.25 353.918C577.25 353.008 577.25 351.688 577.2 350.058C577.12 346.808 576.84 342.308 576.3 337.368C575.76 332.428 575.03 327.988 574.37 324.798C574.21 323.998 574.06 323.278 573.91 322.648C573.76 322.018 573.65 321.478 573.53 321.038L573.29 320.038C573.25 319.919 573.226 319.794 573.22 319.668C573.277 319.779 573.321 319.897 573.35 320.018L573.66 321.018C573.79 321.458 573.93 322.018 574.09 322.628C574.25 323.238 574.42 323.968 574.6 324.768C575.484 328.928 576.151 333.13 576.6 337.358C577.14 342.308 577.39 346.808 577.41 350.078C577.41 351.708 577.41 353.028 577.35 353.938C577.35 354.368 577.35 354.708 577.29 354.988C577.23 355.268 577.27 355.328 577.25 355.328Z" fill="#263238"/><path d="M577.23 346.609C577.201 346.246 577.201 345.881 577.23 345.519C577.292 344.513 577.406 343.512 577.57 342.519C577.82 341.057 578.154 339.612 578.57 338.189C579.051 336.441 579.656 334.73 580.38 333.069C581.634 330.007 583.437 327.201 585.7 324.789C586.09 324.375 586.508 323.987 586.95 323.629C587.14 323.469 587.31 323.309 587.48 323.179L587.97 322.839C588.26 322.617 588.567 322.42 588.89 322.249C587.833 323.084 586.831 323.986 585.89 324.949C583.707 327.384 581.955 330.174 580.71 333.199C579.99 334.846 579.382 336.54 578.89 338.269C578.42 339.859 578.1 341.269 577.89 342.549C577.68 343.829 577.54 344.799 577.46 345.499C577.411 345.874 577.334 346.245 577.23 346.609Z" fill="#263238"/><path d="M125.695 161.443C125.698 162.03 125.347 162.56 124.805 162.786C124.264 163.013 123.639 162.89 123.224 162.476C122.808 162.062 122.683 161.438 122.907 160.896C123.131 160.354 123.659 160 124.246 160C125.044 160 125.692 160.645 125.695 161.443V161.443Z" fill="#455A64"/><path d="M131.493 161.443C131.495 162.03 131.143 162.561 130.601 162.787C130.059 163.013 129.434 162.889 129.019 162.474C128.603 162.059 128.48 161.434 128.706 160.892C128.932 160.35 129.463 159.997 130.05 160C130.847 160 131.493 160.646 131.493 161.443V161.443Z" fill="#455A64"/><path d="M137.29 161.443C137.292 162.03 136.941 162.56 136.399 162.786C135.858 163.013 135.234 162.89 134.818 162.476C134.402 162.062 134.277 161.438 134.501 160.896C134.725 160.354 135.254 160 135.84 160C136.224 159.998 136.593 160.15 136.865 160.42C137.137 160.691 137.29 161.059 137.29 161.443Z" fill="#455A64"/><path d="M411 166.696C411 166.806 345.165 166.886 264.005 166.886C182.845 166.886 117 166.806 117 166.696C117 166.586 182.835 166.505 264.005 166.505C345.176 166.505 411 166.593 411 166.696Z" fill="#455A64"/></g><defs><clipPath id="clip0"><rect width="601" height="357" fill="white"/></clipPath></defs></svg>