<svg xmlns="http://www.w3.org/2000/svg" xmlns:xlink="http://www.w3.org/1999/xlink" width="572.205" height="540.398" viewBox="0 0 572.205 540.398">
  <defs>
    <filter id="Rectangle_2118" x="224.977" y="0" width="155.063" height="105.945" filterUnits="userSpaceOnUse">
      <feOffset dy="3" input="SourceAlpha"/>
      <feGaussianBlur stdDeviation="4.5" result="blur"/>
      <feFlood flood-color="#7ebaee" flood-opacity="0.2"/>
      <feComposite operator="in" in2="blur"/>
      <feComposite in="SourceGraphic"/>
    </filter>
    <radialGradient id="radial-gradient" cx="0.5" cy="0.499" r="0.478" gradientTransform="translate(-0.049) scale(1.098 1)" gradientUnits="objectBoundingBox">
      <stop offset="0" stop-color="#ffc8af"/>
      <stop offset="1" stop-color="#ffbb9c"/>
    </radialGradient>
    <radialGradient id="radial-gradient-2" cx="0.508" cy="0.49" r="0.451" gradientTransform="matrix(1.232, -0.21, 0.265, 0.978, -1.169, 0.13)" xlink:href="#radial-gradient"/>
    <radialGradient id="radial-gradient-3" cx="0.5" cy="0.5" r="0.532" gradientTransform="translate(0.054) scale(0.891 1)" xlink:href="#radial-gradient"/>
    <radialGradient id="radial-gradient-4" cx="0.5" cy="0.5" r="0.511" gradientTransform="translate(0.021) scale(0.958 1)" xlink:href="#radial-gradient"/>
    <radialGradient id="radial-gradient-5" cx="1.47" cy="-0.008" r="4.144" gradientTransform="translate(0.306) scale(0.389 1)" xlink:href="#radial-gradient"/>
    <radialGradient id="radial-gradient-6" cx="0.182" cy="0.437" r="1.813" gradientTransform="translate(0.33) scale(0.34 1)" xlink:href="#radial-gradient"/>
    <linearGradient id="linear-gradient" x1="0.5" x2="0.5" y2="1" gradientUnits="objectBoundingBox">
      <stop offset="0" stop-color="#78e07b"/>
      <stop offset="1" stop-color="#059451"/>
    </linearGradient>
    <linearGradient id="linear-gradient-2" x1="0.5" y1="0" x2="0.5" y2="1" xlink:href="#linear-gradient"/>
    <linearGradient id="linear-gradient-3" x1="0.5" y1="0" x2="0.5" y2="0.999" xlink:href="#linear-gradient"/>
  </defs>
  <g id="Group_1228" data-name="Group 1228" transform="translate(-1173.76 -171.626)">
    <g id="Group_1227" data-name="Group 1227">
      <g id="Asset_1" data-name="Asset 1" transform="translate(1079 182.126)">
        <g id="Layer_2" data-name="Layer 2">
          <g id="OBJECTS">
            <rect id="Rectangle_2093" data-name="Rectangle 2093" width="155.515" height="145.152" rx="8" transform="translate(144.26 30.832)" fill="#112b46"/>
            <g id="Group_1225" data-name="Group 1225" transform="translate(144.26 30.832)">
              <rect id="Rectangle_2094" data-name="Rectangle 2094" width="155.515" height="15.352" rx="3" fill="#1d262d"/>
            </g>
            <path id="Path_27783" data-name="Path 27783" d="M167.6,24.57a2.058,2.058,0,1,1-.6-1.463A2.07,2.07,0,0,1,167.6,24.57Z" transform="translate(104.65 14.791)" fill="#0277bd"/>
            <path id="Path_27784" data-name="Path 27784" d="M174.92,24.57a2.058,2.058,0,1,1-.6-1.463A2.07,2.07,0,0,1,174.92,24.57Z" transform="translate(105.891 14.791)" fill="#fbd15b"/>
            <path id="Path_27785" data-name="Path 27785" d="M181.77,24.748a2.07,2.07,0,1,1-2.07-2.058,2.07,2.07,0,0,1,2.07,2.058Z" transform="translate(107.052 14.824)" fill="#ff8578"/>
            <rect id="Rectangle_2116" data-name="Rectangle 2116" width="2.375" height="2.375" transform="translate(157.492 58.683)" fill="#f9fbfc"/>
            <path id="Path_27786" data-name="Path 27786" d="M101.165,120.151H98.79v-4.783h2.375Zm0-12.084H98.79v-4.783h2.375Zm0-12.084H98.79V91.2h2.375Zm0-12.084H98.79V79.116h2.375Zm0-12.084H98.79v-4.83h2.375Zm0-12.084H98.79V54.948h2.375Zm0-12.068H98.79V42.88h2.375Z" transform="translate(58.702 25.48)" fill="#f9fbfc" opacity="0.06"/>
            <rect id="Rectangle_2117" data-name="Rectangle 2117" width="2.375" height="2.375" transform="translate(157.492 152.884)" fill="#f9fbfc" opacity="0.06"/>
            <g transform="matrix(1, 0, 0, 1, 94.76, -10.5)" filter="url(#Rectangle_2118)">
              <rect id="Rectangle_2118-2" data-name="Rectangle 2118" width="128.063" height="78.945" rx="8" transform="translate(238.48 10.5)" fill="#fff"/>
            </g>
            <rect id="Rectangle_2119" data-name="Rectangle 2119" width="72.935" height="51.971" rx="6" transform="translate(456.899 152.932)" fill="#0277bd"/>
            <path id="Path_27790" data-name="Path 27790" d="M309.5,104.3c-2.343,0-3.188.638-3.188,2.391V114.5c0,3.061-1.275,3.986-3.4,4.591a3.906,3.906,0,0,1,3.4,4.5V131.4c0,1.754.813,2.375,3.188,2.375v3.428c-5.914,0-7.588-1.9-7.588-5.835V123.91c0-2.12-.558-2.949-2.5-2.949v-3.906c1.945,0,2.5-.861,2.5-2.981v-7.413c0-3.986,1.594-5.851,7.588-5.851Z" transform="translate(177.911 59.902)" fill="#f1f2f2"/>
            <path id="Path_27791" data-name="Path 27791" d="M320.828,106.632v7.413c0,2.12.558,2.981,2.535,2.981v3.906c-1.977,0-2.535.829-2.535,2.949v7.493c0,3.938-1.674,5.835-7.588,5.835v-3.428c2.312,0,3.188-.622,3.188-2.375v-7.828c0-3.013,1.259-3.938,3.4-4.5-2.136-.606-3.4-1.594-3.4-4.591V106.68c0-1.754-.781-2.391-3.188-2.391v-3.428C319.123,100.781,320.828,102.678,320.828,106.632Z" transform="translate(186.129 59.931)" fill="#f1f2f2"/>
            <rect id="Rectangle_2120" data-name="Rectangle 2120" width="81.831" height="54.729" rx="6" transform="translate(94.76 11.319)" fill="#fbd15b"/>
            <path id="Path_27792" data-name="Path 27792" d="M77.478,18.682A13.423,13.423,0,0,0,95.445,38.132l8.593,8.593a.909.909,0,0,0,1.307,0l2.407-2.407a.941.941,0,0,0,0-1.323l-8.641-8.577A13.439,13.439,0,0,0,77.478,18.682ZM94.711,33.747a9.565,9.565,0,1,1,0-13.439,9.565,9.565,0,0,1,0,13.375Z" transform="translate(44.367 8.419)" fill="#f9fbfc"/>
            <path id="Path_27793" data-name="Path 27793" d="M274.706,121.487c-.175,1.8-2.646,20.725-22.064,20.725-20.374,0-16.962-20.167-16.962-20.167v-.128a20.119,20.119,0,0,1,6.377-.3v-9.565L265.189,99.12h.829v22.319a42.31,42.31,0,0,1,8.688.048Z" transform="translate(139.915 58.898)" fill="url(#radial-gradient)"/>
            <path id="Path_27794" data-name="Path 27794" d="M271.354,75.467a26.592,26.592,0,0,1,6.951,12.9c2.216,9.788.128,20.167-2.726,29.6a15.1,15.1,0,0,1-2.025,4.607,15.942,15.942,0,0,1-2.535,2.551L258.68,135.887c-2.774,2.439-19.912,4.464-23.18,2.136-12.594-9.007-15.017-35.073-12.5-48.448C227.258,67.448,255.7,59.525,271.354,75.467Z" transform="translate(131.98 39.858)" fill="url(#radial-gradient-2)"/>
            <path id="Path_27795" data-name="Path 27795" d="M248.624,91.413c.159-2.136,2.359-4.464,4.559-3.077s1.738,5.213.8,7.286c-.749,1.594-3.188,3.428-4.894,1.9-1.4-1.259.781-2.758.845-3.922s-2.025-1.8-1.164-2.917" transform="translate(147.695 52.241)" fill="#f7b094"/>
            <path id="Path_27796" data-name="Path 27796" d="M248.889,100.432a6.52,6.52,0,0,0,7.174-4.272,24.855,24.855,0,0,0,.877-6.839,16.515,16.515,0,0,1,.558,7.557c-.59,4.655-2.232,9.087-5.883,9.151S248.889,100.432,248.889,100.432Z" transform="translate(147.829 53.074)" fill="#f7b094"/>
            <path id="Path_27797" data-name="Path 27797" d="M267.116,114.254l-.255.08c-1.419.191-1.993-1.594-2.2-2.6a46.762,46.762,0,0,1-.494-7.6,5.882,5.882,0,0,0-.239-2.041c-.8-1.817-2.917-3.013-3.571-4.894-.765-2.2,1.371-4.4.526-6.807-1.291-3.683-6.026-4.528-9.438-4.48a106.126,106.126,0,0,0-15.209,1.8c-5.357.829-12.2,1.594-16.9-1.77-5.691-4.081-8.051-14.7-3.81-20.517a13.678,13.678,0,0,1,10.522-4.942c4.065-.1,7.509,2.328,11.239,3.539,2.981.972,5.851-1.865,8.641-2.423,3.491-.7,4.974,3.188,8.067,3.188s5.946-2.248,8.864-2.774c5.819-1.068,5.468,4.783,9.374,6.775,2.423,1.243,5.564.494,7.971,1.754,1.865.957,2.136,2.646,2.535,4.543a44.828,44.828,0,0,0,.909,5.133,11.685,11.685,0,0,0,2.646,3.412,12.4,12.4,0,0,1,2.168,4.113A25.508,25.508,0,0,1,289.531,98.2a70.688,70.688,0,0,1-4.368,17.186c-1.275,3.6-1.754,7.333-3.715,10.729-.526.925-2.854,3.587-3.73,1.594a3.044,3.044,0,0,1-.128-1.371c.271-3.7,3.715-27.564-5.325-24.694a6.377,6.377,0,0,0-3.874,3.986,15.447,15.447,0,0,0-.8,6.6v.972A1.132,1.132,0,0,1,267.116,114.254Z" transform="translate(126.78 35.937)" fill="#263238"/>
            <path id="Path_27798" data-name="Path 27798" d="M239.832,115.457c10.267-1.594,17.058-9.757,17.058-9.757a18.716,18.716,0,0,1-17.68,14.348Z" transform="translate(142.14 62.808)" fill="#f7b094"/>
            <path id="Path_27799" data-name="Path 27799" d="M2.551,0h9.565a2.6,2.6,0,0,1,2.6,2.6V143.734H0V2.583A2.6,2.6,0,0,1,2.551,0Z" transform="translate(413.505 508.456) rotate(180)" fill="#0a2033"/>
            <path id="Path_27800" data-name="Path 27800" d="M10.075,0H70.831A10.059,10.059,0,0,1,80.89,10.059v2.216H0V10.059A10.06,10.06,0,0,1,10.075,0Z" transform="translate(446.633 379.038) rotate(180)" fill="#30475e"/>
            <path id="Path_27801" data-name="Path 27801" d="M2.551,0h9.565a2.6,2.6,0,0,1,2.6,2.6V35.3H0V2.6A2.6,2.6,0,0,1,2.551,0Z" transform="translate(413.505 527.029) rotate(180)" fill="#0a2033"/>
            <path id="Path_27802" data-name="Path 27802" d="M206.91,328.4a8.609,8.609,0,1,0,8.609-8.609A8.609,8.609,0,0,0,206.91,328.4Z" transform="translate(122.947 190.021)" fill="#0a2033"/>
            <path id="Path_27803" data-name="Path 27803" d="M291.87,328.4a8.609,8.609,0,1,0,8.609-8.609A8.609,8.609,0,0,0,291.87,328.4Z" transform="translate(173.431 190.021)" fill="#0a2033"/>
            <rect id="Rectangle_2121" data-name="Rectangle 2121" width="29.588" height="25.858" transform="translate(420.982 506.623) rotate(180)" fill="#30475e"/>
            <path id="Path_27804" data-name="Path 27804" d="M0,0H152.661V3a9.167,9.167,0,0,1-9.167,9.167H9.167A9.167,9.167,0,0,1,0,3Z" transform="translate(482.518 512.681) rotate(180)" fill="#fbd15b"/>
            <rect id="Rectangle_2122" data-name="Rectangle 2122" width="5.101" height="96.529" transform="translate(401.086 381.94)" fill="#30475e"/>
            <path id="Path_27805" data-name="Path 27805" d="M329.791,164.631a5.994,5.994,0,0,0-6.186,6.377c1,17.536-2.71,60.261-19.035,74.928-19.943,17.823-76.522,15.4-76.522,15.4s-9.326,11.462,9.342,14.013,71.325.845,84.062-11.048c12.323-11.494,19.641-41.641,14.125-94.058a6.042,6.042,0,0,0-5.8-5.436Z" transform="translate(134.123 97.823)" fill="#fbd15b"/>
            <path id="Path_27806" data-name="Path 27806" d="M232.269,300.13,239,315.466l-20.613,9.039-6.743-15.384Z" transform="translate(125.758 178.339)" fill="url(#radial-gradient-3)"/>
            <path id="Path_27807" data-name="Path 27807" d="M347.582,193.22c-1.275,2.551-92.831,0-101.471.845,0,0-56.036,26.751-64.087,51.78a27.484,27.484,0,0,0-.781,9.836c2.232,35.248,42.374,119.661,42.374,119.661l6.17-2.694,20.629-8.991,2.933-1.275s-31.884-94.887-25.507-99.973,78.531-17.839,103.623-24.615S347.582,193.22,347.582,193.22Z" transform="translate(107.612 114.812)" fill="#263238"/>
            <path id="Path_27808" data-name="Path 27808" d="M183.684,302.618l1.61,23.036H162.816L161.19,302.57Z" transform="translate(95.78 179.789)" fill="url(#radial-gradient-4)"/>
            <path id="Path_27809" data-name="Path 27809" d="M263.616,193.26l-.813.351S169,206.779,153.712,233.1c-9.932,17.106,9.294,142.171,9.294,142.171l33.191.08s-4.974-104.181-3.316-110c1.865-6.632,5.054-9.023,6.377-9.709a27.484,27.484,0,0,1,.781-9.836c7.971-25.029,64.087-51.78,64.087-51.78A1.594,1.594,0,0,1,263.616,193.26Z" transform="translate(89.644 114.836)" fill="#263238"/>
            <path id="Path_27810" data-name="Path 27810" d="M312.722,138.89l-6.3.861a307.7,307.7,0,0,1-5.277,33.925l-78.387,29.748-1.068,5.691-.972-.08c0,1.164,0,2.312.08,3.38.175,6.552.622,11.255,1.307,13.152a1.594,1.594,0,0,0,.446.781c2.136,1.738,29.859-1.594,59.831,9.374,25.986,9.565,40.557,19.975,41.226,18.573C331.788,237.316,316.914,170.678,312.722,138.89Z" transform="translate(131.153 82.529)" fill="#0091ff"/>
            <path id="Path_27811" data-name="Path 27811" d="M304.537,177.436c-2.088,10.028-7.493,30-18.078,32.681-13.838,3.507-40.588,3.332-65.649,1.977,0-1.068,0-2.216-.08-3.38l.972.08,1.068-5.691,78.371-29.748a307.674,307.674,0,0,0,5.277-33.925,1.949,1.949,0,0,0,0,.287C306.594,142.331,307.662,162.658,304.537,177.436Z" transform="translate(131.159 82.85)" fill="#1f7fc7"/>
            <path id="Path_27812" data-name="Path 27812" d="M231.653,123.18c-1.4,2.551-3.412,29.8-4.512,56.849L211.12,165.076C217.959,151.908,231.653,123.18,231.653,123.18Z" transform="translate(125.449 73.194)" fill="#0091ff"/>
            <path id="Path_27813" data-name="Path 27813" d="M241.822,190.416c-13.535,2.343-25.954,4.352-25.954,4.352v.67c-15.049-12.02-37.958-46.088-37.958-46.088s6.855-8.226,8.561-10.378c.255-.335,37.591,25.364,39.5,25.141.494,0,2.407-3.428,4.942-8.417l16.022,14.954c-.255,6.377-.462,12.865-.59,18.955Z" transform="translate(105.715 82.576)" fill="#f7b094"/>
            <path id="Path_27814" data-name="Path 27814" d="M217,175.783l-.335,11.159H176S180.049,171,191.065,171s15.288,5.835,15.288,5.835Z" transform="translate(104.58 101.609)" fill="url(#radial-gradient-5)"/>
            <path id="Path_27815" data-name="Path 27815" d="M195.8,143.085l.3.255c-1.706,2.152-8.561,10.378-8.561,10.378l-4.241-3a10.57,10.57,0,0,1-10.139-.128c-5.691-3.077-2.168-10.442-1.881-11.319-1.1.319-7.971,5.819-8.975,5.229s-1.865-2.519,5.755-10.028,17.935,2.136,18.238,2.136Z" transform="translate(96.056 78.207)" fill="#f7b094"/>
            <path id="Path_27816" data-name="Path 27816" d="M169.585,144.253s-1.594,3.077,1.275,4.4a29.046,29.046,0,0,0,11.048,2.072c2.439-.239,4.368-3.651,4.368-3.651l-7.381-6.935H172.98Z" transform="translate(100.506 83.272)" fill="#f7b094"/>
            <path id="Path_27817" data-name="Path 27817" d="M169.756,145.8c.43-1.5,4.623-.7,7.238-.638,1.913,0,2.965-.446,3.555-1.913s-2.2-3.778-2.742-3.061,1,1.77,1.052,2.726-2.742,1.291-4.878,1.291a52.175,52.175,0,0,0-5.851.558Z" transform="translate(99.904 83.222)" fill="#e8987c"/>
            <path id="Path_27818" data-name="Path 27818" d="M308.557,175.061,268.7,160.92c-2.9,5.42-6.01,9.565-9.087,10.315-4.671,1.228-15.942,3.332-27.293,5.325l-4.5.813c-13.535,2.343-25.954,4.352-25.954,4.352v1.1l-.3,10.059v2.551a283.628,283.628,0,0,1,30.641.51c23.913,1.706,54.761,2.726,64.98-2.088,4.783-2.264,8.609-9.709,11.606-18.875Z" transform="translate(119.774 95.62)" fill="url(#radial-gradient-6)"/>
            <path id="Path_27819" data-name="Path 27819" d="M244.163,160.92l39.919,14.141-1.817,5.325-39.5-16.946Z" transform="translate(144.249 95.62)" fill="#f7b094"/>
            <path id="Path_27820" data-name="Path 27820" d="M257.2,189.323c-2.9,5.42-6.01,9.565-9.087,10.315-4.671,1.228-15.942,3.332-27.293,5.325.128-6.09.335-12.515.59-18.955,1.1-27.1,3.109-54.3,4.512-56.849,2.3-4.257,8.561-13.5,18.445-15.607v.128s-3.412,20.167,16.962,20.167c19.417,0,21.888-18.875,22.064-20.725,9.98,1.116,25.3,6.106,27.4,26.177.43,3.97,1.052,9.071,1.833,14.858l-6.281.861s-2.551,28.265-9.1,48.32H297.1Z" transform="translate(131.213 67.217)" fill="#0091ff"/>
            <path id="Path_27821" data-name="Path 27821" d="M243.38,172.99l15.942-38.58-11.749,40.142Z" transform="translate(144.618 79.867)" fill="#1f7fc7"/>
            <path id="Path_27822" data-name="Path 27822" d="M281.959,113.15H273.27s-12.355,13.567-20.294,13.567-3.667-13.487-3.667-13.487h-3.874a21.9,21.9,0,0,0-21.777,19.417c-.143,1.275-.271,2.471-.383,3.555-.845,8.21,32.41,14.188,32.41,14.188l17.122-.957L283.2,129.14l2.072-8.306Z" transform="translate(132.662 67.234)" fill="#0091ff"/>
            <path id="Path_27823" data-name="Path 27823" d="M194.352,330.911c.765,4.145,3.651,7.094,7.8,6.377l55.319-10.33a2.551,2.551,0,0,0,2.057-3l-.909-4.91s-58.173,10.187-64.294,11.877Z" transform="translate(115.466 189.581)" fill="#f1f2f2"/>
            <path id="Path_27824" data-name="Path 27824" d="M210.863,323.02l1.706-1.5,3.188-2.885,1.594-1.467,2.822-2.519,1.706-1.594,2.248-2.025a1.26,1.26,0,0,1,1.594,0c2.264,1.913,9.565,6.3,22.925-1.945a1.276,1.276,0,0,1,1.817.462l8.051,15.48s-58.173,10.187-64.294,11.877C196.388,335.662,203.817,329.238,210.863,323.02Z" transform="translate(115.407 183.539)" fill="#263238"/>
            <path id="Path_27825" data-name="Path 27825" d="M139.7,326.714c.1,4.225,2.471,7.588,6.7,7.477l56.244-1.371a2.567,2.567,0,0,0,2.519-2.63l-.128-4.99s-58.986.781-65.362,1.483Z" transform="translate(82.993 193.236)" fill="#f1f2f2"/>
            <path id="Path_27826" data-name="Path 27826" d="M158.175,322.823l1.929-1.212,3.667-2.343,1.833-1.18,3.188-2.025,1.929-1.259,2.551-1.594a1.244,1.244,0,0,1,1.594.239c1.945,2.248,8.5,7.732,22.957,1.722a1.291,1.291,0,0,1,1.722.749l5.468,16.564s-58.986.781-65.362,1.483C141.8,332.994,150.22,327.829,158.175,322.823Z" transform="translate(82.981 186)" fill="#263238"/>
            <path id="Path_27827" data-name="Path 27827" d="M125.775,212.435,95.74,132.31h85.529l30.051,80.125Z" transform="translate(56.889 78.619)" fill="#abb5ba"/>
            <path id="Path_27828" data-name="Path 27828" d="M184.734,212.435h-5.293L149.39,132.31l4.8.207,27.8,72.536Z" transform="translate(88.768 78.619)" fill="#8495a0"/>
            <path id="Path_27829" data-name="Path 27829" d="M98.62,177.14h107.7" transform="translate(58.601 105.258)" fill="none"/>
            <path id="Path_27830" data-name="Path 27830" d="M170.938,184.454h56.578l-.159-5.054H169.79" transform="translate(100.89 106.601)" fill="#8495a0"/>
            <rect id="Rectangle_2123" data-name="Rectangle 2123" width="14" height="234.054" rx="5" transform="translate(499.018 295.844)" fill="#c46c3b"/>
            <rect id="Rectangle_2126" data-name="Rectangle 2126" width="14" height="234.054" rx="5" transform="translate(157.221 295.844)" fill="#c46c3b"/>
            <rect id="Rectangle_2127" data-name="Rectangle 2127" width="401.865" height="9.133" rx="4.15" transform="translate(130.999 291.054)" fill="#c46c3b"/>
            <path id="Path_27831" data-name="Path 27831" d="M104.7,137.59l1.451,3.906h17.042l-1.451-3.906Z" transform="translate(62.213 81.757)" fill="#8495a0"/>
            <path id="Path_27832" data-name="Path 27832" d="M211.592,149.46l-1.212,2.375,17.233,17.807v-5.229Z" transform="translate(125.009 88.81)" fill="#e8987c"/>
            <g id="Group_1033" data-name="Group 1033" transform="translate(553.165 408.172)">
              <path id="Path_16784" data-name="Path 16784" d="M60.2,318.3s.823,2.419,1.694,5.528a55.561,55.561,0,0,1,2,9.314l-1.476.109a53.479,53.479,0,0,0-1.935-9.024c-.435-1.512-.847-2.879-1.21-3.871s-.52-1.585-.52-1.585l1.4-.472Z" transform="translate(-21.183 -256.385)" fill="#112b46"/>
              <path id="Path_16785" data-name="Path 16785" d="M52.868,319.337l-.073.69c-.133,1.367-.4,4.512-.4,7.947,0,1.6.06,3.266.218,4.839l-1.476.145c-.157-1.633-.218-3.339-.218-4.972a85.675,85.675,0,0,1,.484-8.806l1.464.169Z" transform="translate(-0.688 -256.201)" fill="#112b46"/>
              <path id="Path_16786" data-name="Path 16786" d="M47.515,327.534h0a5.832,5.832,0,0,0-.629.919,3.629,3.629,0,0,0-.52,1.766H44.89a5.2,5.2,0,0,1,.774-2.6,7.475,7.475,0,0,1,.762-1.089Z" transform="translate(11.959 -254.66)" fill="#112b46"/>
              <path id="Path_16787" data-name="Path 16787" d="M99.127,328.584s7.548-9.568-4.052-29.455-35.527-24.665-36.652-22.088,12.1,7.548,15.822,22.826,4.173,23.745,8.782,28.354S93.913,334.657,99.127,328.584Z" transform="translate(-58.355 -265.169)" fill="url(#linear-gradient)"/>
              <path id="Path_16788" data-name="Path 16788" d="M-.012,324.334s.835-10.766,20.322-16.754,37.947,5.25,37.148,7.6-12.447-2.419-24.012,5.371-16.935,12.967-22.741,13.2S-.254,331.435-.012,324.334Z" transform="translate(56.317 -258.996)" fill="url(#linear-gradient-2)"/>
              <path id="Path_16789" data-name="Path 16789" d="M19.794,325.4S6.8,311.442,21.875,289.112s48.313-23.891,49.4-20.794-13,8.939-18.483,26.479-8.468,26.37-14.189,31.451S25.419,332.9,19.794,325.4Z" transform="translate(24.788 -267.116)" fill="url(#linear-gradient-3)"/>
              <path id="Path_16790" data-name="Path 16790" d="M86.116,324.364h.194a.738.738,0,0,0,.52-.907c-.339-1.21-8.468-29.9-23.37-40.862a.745.745,0,0,0-.871,1.21C77.1,294.461,85.33,323.577,85.414,323.868A.738.738,0,0,0,86.116,324.364Z" transform="translate(-48.416 -263.9)" fill="#e6e7e8"/>
              <path id="Path_16791" data-name="Path 16791" d="M23.57,323.35a.823.823,0,0,0,.738-.544,3.509,3.509,0,0,0,.085-.8c.677-10.088,4.972-43.547,31.983-50.636a.738.738,0,0,0,.532-.9.75.75,0,0,0-.907-.532c-27.955,7.331-32.382,41.624-33.108,51.966v.532a.7.7,0,0,0,.484.883Z" transform="translate(29.19 -266.528)" fill="#e6e7e8"/>
              <path id="Path_16793" data-name="Path 16793" d="M38.509,374.131H76.48a2.032,2.032,0,0,0,2-1.585l9.943-42.967H26.57l9.943,42.967A2.044,2.044,0,0,0,38.509,374.131Z" transform="translate(-6.785 -254.02)" fill="#bee1f4"/>
              <path id="Path_16794" data-name="Path 16794" d="M85.528,342.088H29.461L26.57,329.58H88.419Z" transform="translate(-6.785 -254.02)" fill="#7aabbc"/>
              <path id="Path_16795" data-name="Path 16795" d="M87.839,332.12H27.151l-.581-2.54H88.419Z" transform="translate(-6.785 -254.02)" fill="#bee1f4"/>
            </g>
          </g>
        </g>
      </g>
    </g>
    <path id="Path_24863" data-name="Path 24863" d="M302.94,56.08a2.49,2.49,0,1,0,2.49-2.49A2.49,2.49,0,0,0,302.94,56.08Z" transform="translate(1152.082 267.99)" fill="#272343"/>
    <path id="Path_24864" data-name="Path 24864" d="M294.38,56.08a2.49,2.49,0,1,0,.737-1.768,2.511,2.511,0,0,0-.737,1.768Z" transform="translate(1142.73 267.99)" fill="#272343"/>
    <path id="Path_24865" data-name="Path 24865" d="M302.441,55.96l-5.671,9.249H303.7Z" transform="translate(1145.342 270.579)" fill="#e3a36f"/>
    <path id="Path_24866" data-name="Path 24866" d="M316.2,62.74H295.74S303.984,75.086,316.2,62.74Z" transform="translate(1144.216 277.986)" fill="#fff"/>
    <g id="icons8-python_1_" data-name="icons8-python (1)" transform="translate(1257.836 240.962)">
      <path id="Path_27833" data-name="Path 27833" d="M48.249,5a48.183,48.183,0,0,0-8.825.823c-8.628,1.5-10.2,4.657-10.2,10.471v8.886H49.4v4.484H18.7c-5.91,0-11.083,2.785-12.722,9.46-1.852,7.661-1.935,12.46,0,20.46,1.469,5.966,4.7,10.439,10.617,10.439h8.143V58.578c0-6.65,6.022-13.22,12.924-13.22H53.891c5.657,0,11.211-4.175,11.211-9.814V16.294c0-5.469-3.944-9.558-9.457-10.475A38.152,38.152,0,0,0,48.249,5ZM37.075,13.969a3.363,3.363,0,1,1,0,6.726,3.363,3.363,0,1,1,0-6.726Z" transform="translate(0 0)" fill="#0277bd"/>
      <path id="Path_27834" data-name="Path 27834" d="M32.414,79.022a48.182,48.182,0,0,0,8.825-.823c8.628-1.5,10.2-4.657,10.2-10.471V58.843H31.259V54.358h30.7c5.91,0,11.083-2.785,12.722-9.46,1.852-7.661,1.935-12.46,0-20.46C73.212,18.473,69.976,14,64.064,14H55.92V25.444c0,6.65-6.022,13.22-12.924,13.22H26.773c-5.657,0-11.211,4.175-11.211,9.814V67.728c0,5.469,3.944,9.558,9.457,10.475A38.152,38.152,0,0,0,32.414,79.022Zm11.177-8.969a3.363,3.363,0,1,1,0-6.726,3.363,3.363,0,0,1,0,6.726Z" transform="translate(13.663 11.179)" fill="#ffc107"/>
    </g>
    <g id="icons8-python_1_2" data-name="icons8-python (1)" transform="translate(1444.475 190.469)" opacity="0.22" style="mix-blend-mode: luminosity;isolation: isolate">
      <path id="Path_27833-2" data-name="Path 27833" d="M31.983,5a30.242,30.242,0,0,0-5.539.516c-5.415.943-6.4,2.923-6.4,6.572v5.577H32.708V20.48H13.439c-3.71,0-6.956,1.748-7.985,5.937a23.568,23.568,0,0,0,0,12.842c.922,3.745,2.953,6.552,6.664,6.552h5.111V38.629c0-4.174,3.78-8.3,8.112-8.3H35.524c3.551,0,7.036-2.62,7.036-6.16V12.089a6.674,6.674,0,0,0-5.936-6.575A23.947,23.947,0,0,0,31.983,5Zm-7.014,5.629a2.111,2.111,0,1,1,0,4.222,2.111,2.111,0,1,1,0-4.222Z" transform="translate(0 0)" fill="#0277bd"/>
      <path id="Path_27834-2" data-name="Path 27834" d="M26.139,54.812a30.242,30.242,0,0,0,5.539-.516c5.415-.943,6.4-2.923,6.4-6.572V42.146H25.414V39.331h19.27c3.71,0,6.956-1.748,7.985-5.937a23.568,23.568,0,0,0,0-12.842C51.746,16.808,49.716,14,46,14H40.893v7.183c0,4.174-3.78,8.3-8.112,8.3H22.6c-3.551,0-7.036,2.62-7.036,6.16V47.723A6.674,6.674,0,0,0,21.5,54.3,23.947,23.947,0,0,0,26.139,54.812Zm7.015-5.629a2.111,2.111,0,1,1,0-4.222,2.111,2.111,0,0,1,0,4.222Z" transform="translate(4.48 3.666)" fill="#ffc107"/>
    </g>
  </g>
</svg>