<svg width="466" height="460" viewBox="0 0 466 460" fill="none" xmlns="http://www.w3.org/2000/svg">
<path d="M294.231 328.815C283.492 332.578 270.542 332.192 260.77 325.989C251.167 319.891 242.414 315.486 230.597 315.7C220.037 315.892 211.306 321.541 201.079 322.743C192.966 323.697 184.726 320.196 178.848 314.582C173.109 309.104 169.298 300.749 171.792 293.247C173.099 289.321 175.964 286.084 177.587 282.281C181.344 273.505 171.449 268.213 173.911 258.976C175.997 251.121 184.712 245.519 184.573 237.395C184.478 231.449 179.826 226.842 178.189 221.336C176.537 215.787 176.901 209.569 179.812 204.499C181.996 200.732 185.352 197.766 189.38 196.043C192.962 194.533 196.962 194.506 199.73 191.409C204.665 185.889 206.475 179.908 213.246 175.873C218.975 172.457 226.546 172.239 233.122 172.835C247.725 174.161 261.912 181.794 270.143 193.942C273.059 198.25 275.164 202.659 275.243 207.78C275.324 213.378 275.322 219.008 278.787 223.768C281.696 227.764 286.366 230.102 290.995 231.903C295.624 233.704 300.48 235.165 304.546 238.006C308.611 240.846 311.838 245.48 311.365 250.394C310.969 254.498 308.099 258.063 307.717 262.17C307.021 269.633 314.286 275.054 318.766 281.099C325.025 289.56 326.075 301.517 321.355 310.923C315.922 321.742 306.057 324.183 295.705 328.256C295.222 328.454 294.73 328.641 294.231 328.815Z" fill="#102E4A"/>
<path d="M216.155 189.268C219.706 187.204 223.834 186.272 227.934 186.112C232.056 185.99 236.175 186.445 240.168 187.463C248.258 189.509 255.433 194.156 260.566 200.675C263.105 203.947 265.009 207.657 266.182 211.616C267.341 215.589 267.573 219.746 267.531 223.812C267.489 227.877 267.197 231.94 267.334 235.948C267.42 237.939 267.668 239.926 268.28 241.782C268.892 243.638 269.926 245.338 271.469 246.453C273.013 247.568 274.946 248.079 276.928 248.316C278.91 248.552 280.984 248.559 283.054 248.832C287.145 249.378 291.308 250.341 294.876 252.665C296.628 253.824 298.204 255.437 298.971 257.483C299.739 259.529 299.604 261.746 299.073 263.778C298.454 265.843 297.279 267.554 296.461 269.351C295.635 271.153 295.119 273.08 294.936 275.052C294.558 279.018 295.585 282.992 297.022 286.752C298.459 290.512 300.1 294.279 301.083 298.262C301.585 300.252 301.833 302.297 301.822 304.348C301.791 306.399 301.427 308.431 300.745 310.368C299.385 314.241 296.889 317.625 293.575 320.086C296.809 317.569 299.211 314.154 300.473 310.279C301.769 306.436 301.595 302.265 300.527 298.399C299.5 294.499 297.791 290.808 296.329 287.007C294.866 283.205 293.707 279.144 294.048 274.974C294.214 272.895 294.73 270.859 295.576 268.949C296.431 267.05 297.574 265.354 298.114 263.494C298.589 261.617 298.714 259.621 298.009 257.845C297.305 256.07 295.923 254.62 294.301 253.546C290.977 251.39 286.918 250.444 282.943 249.937C280.945 249.681 278.907 249.678 276.819 249.447C274.731 249.215 272.575 248.71 270.792 247.382C269.01 246.053 267.851 244.129 267.214 242.135C266.608 240.14 266.28 238.072 266.238 235.989C266.117 231.887 266.432 227.836 266.488 223.8C266.544 219.765 266.335 215.734 265.229 211.887C264.099 208.041 262.284 204.426 259.87 201.212C254.917 194.762 247.944 190.119 240.041 188.009C236.109 186.914 232.041 186.373 227.957 186.403C223.873 186.458 219.754 187.295 216.155 189.268Z" fill="#102E4A"/>
<path d="M267.846 279.227C268.226 288.404 266.078 295.286 257.603 299.824C250.854 303.437 242.769 304.623 235.321 304.804C222.828 305.11 208.897 301.921 199.563 293.235C197.866 291.659 196.239 289.725 196.116 287.426C196.005 285.336 197.166 283.366 197.275 281.276C197.449 277.749 194.679 274.829 193.439 271.519C191.816 267.146 192.918 262.264 194.385 257.834C195.852 253.404 197.695 248.93 197.472 244.273C197.187 238.23 193.518 232.956 190.581 227.652C187.644 222.348 185.326 215.897 187.837 210.375C189.489 206.741 193.434 203.951 197.463 203.504C201.721 203.045 205.545 207.851 208.274 210.503C211.948 214.079 216.028 217.222 220.433 219.868C226.516 223.522 233.182 226.218 238.916 230.405C242.379 232.928 246.102 236.416 247.745 240.451C249.6 244.998 246.355 249.398 250.295 253.583C252.845 256.283 256.748 257.201 259.824 259.286C266.402 263.753 267.545 271.984 267.846 279.227Z" fill="#102E4A"/>
<path d="M198.851 330.55C207.622 317.17 213.081 300.751 205.46 285.644C204.688 284.114 203.758 282.443 202.117 281.904C198.59 280.741 193.803 281.991 190.734 283.772C180.09 289.966 173.582 301.584 167.599 311.933C161.387 322.683 155.991 333.874 149.751 344.608C147.222 348.967 144.668 353.363 143.312 358.194C142.125 362.429 141.995 367.277 143.616 371.42C150.623 389.331 169.891 367.392 175.758 360.764C184.174 351.25 191.891 341.153 198.851 330.55Z" fill="#7CA4BF"/>
<path d="M278.224 315.583C280.743 305.016 282.053 294.203 276.337 287.006C273.757 283.756 269.151 281.5 265.399 279.881C258.06 276.742 250.564 272.521 242.702 271.163C234.417 269.72 225.206 268.832 216.952 270.895C211.709 272.205 206.804 274.629 202.117 277.247C198.049 279.516 193.059 281.471 191.084 285.696C186.272 295.99 182.079 306.556 178.528 317.34C175.58 326.315 172.346 335.721 176.989 344.815C178.495 347.763 180.681 350.284 182.401 353.099C184.32 356.237 185.034 359.183 185.287 362.801C185.859 371.06 185.637 379.335 185.614 387.601C185.614 389.984 185.637 392.46 186.692 394.603C188.778 398.826 194.417 398.884 198.483 398.877L238.703 398.808C244.28 398.808 248.543 399.475 253.77 400.54C258.174 401.437 261.959 399.235 264.073 395.176C266.075 391.336 266.228 386.848 266.442 382.531C267.279 365.721 269.684 349.023 273.627 332.651C274.747 328.01 276.703 321.951 278.224 315.583Z" fill="#7CA4BF"/>
<path d="M247.173 284.843C250.33 279.59 251.046 273.024 246.911 267.96C245.022 265.646 241.679 265.386 238.819 265.334C233.185 265.231 227.56 265.822 222.072 267.091C216.85 268.3 211.523 270.349 209.261 275.579C207.581 279.459 208.169 283.944 210.383 287.491C212.435 290.741 215.69 293.069 219.453 293.976C225.463 295.392 232.501 295.201 238.228 292.829C241.828 291.315 245.052 288.376 247.173 284.843Z" fill="#7CA4BF"/>
<path d="M282.973 364.028L282.848 339.71C282.834 336.888 284.684 319.719 280.25 319.914C279.771 319.966 279.318 320.153 278.945 320.453C276.74 322.015 275.604 324.631 274.575 327.106C271.344 334.89 268.63 347.35 261.903 352.801C255.068 358.341 244.554 360.674 236.056 362.005C226.136 363.558 216.05 363.673 206.023 364.276C199.533 364.666 192.382 365.591 188.122 370.447C185.078 373.914 183.53 379.112 181.905 383.347C180.484 387.05 179.355 391.448 182.237 394.802C183.465 396.232 185.171 397.172 186.889 397.973C193.147 400.893 199.985 402.364 206.809 403.495C225.904 406.658 245.367 407.315 264.706 406.402C268.841 406.207 273.324 405.8 276.374 403.029C278.643 400.964 279.712 397.934 280.472 394.981C283.064 384.933 283.017 374.407 282.973 364.028Z" fill="#7CA4BF"/>
<path d="M191.538 225.649C184.223 233.098 190.859 251.3 202.525 248.666C215.06 245.836 213.174 226.5 201.83 223.328C197.419 222.089 193.893 223.252 191.538 225.649Z" fill="#7CA4BF"/>
<path d="M291.396 327.592C298.728 328.51 306.451 327.882 312.999 324.488C321.344 320.171 325.516 312.251 325.683 303.153C325.808 296.552 324.524 289.675 320.491 284.412C316.115 278.69 308.781 275.171 306.059 268.52C304.298 264.212 304.72 258.348 308.206 255.014C310.424 252.892 312.146 250.499 311.875 247.32C311.456 242.64 307.997 238.143 304.133 235.62C298.468 231.914 291.422 230.559 284.793 229.726C280.303 229.161 275.829 227.911 274.441 223.126C273.69 220.545 273.838 217.821 273.699 215.167C273.4 209.51 272.98 203.85 272.128 198.243C271.142 191.78 266.903 185.531 262.174 181.078C261.496 180.439 260.792 179.827 260.063 179.243C247.871 169.467 225.294 166.003 211.85 175.063C209.574 176.584 207.625 178.535 206.113 180.804C204.601 183.072 203.558 185.615 203.042 188.284C202.361 191.895 201.371 192.673 197.806 193.767C191.33 195.756 183.98 197.169 178.836 201.87C174.812 205.541 172.963 211.118 173.505 216.461C174.2 223.282 179.008 226.555 182.457 231.953C185.98 237.459 183.21 244.415 179.119 248.972C175.969 252.479 171.498 255.04 169.718 259.392C168.081 263.393 169.166 268.02 171.143 271.867C171.945 273.427 172.886 274.916 173.595 276.52C174.658 278.974 175.157 281.631 175.055 284.299C174.954 286.967 174.255 289.58 173.009 291.948" stroke="#0B2D4E" stroke-width="4" stroke-miterlimit="10"/>
<path d="M312.181 338.159C314.423 342.162 316.643 346.178 318.84 350.208C323.282 358.398 331.526 376.591 318.326 381.092C311.673 383.359 307.87 381.143 303.473 376.348C286.82 358.176 272.678 337.896 261.416 316.041C257.244 307.918 246.118 286.752 259.618 281.916C261.758 281.163 264.034 280.858 266.299 281.022C268.565 281.186 270.772 281.815 272.779 282.868C274.603 283.841 276.221 285.148 277.767 286.513C287.502 295.107 294.437 306.195 300.605 317.443C304.416 324.381 308.319 331.256 312.181 338.159Z" fill="#7CA4BF"/>
<path d="M235.732 287.523C239.749 286.247 243.059 283.774 244.308 279.846C245.432 276.279 243.659 272.276 243.344 268.672C243.039 265.223 243.001 261.756 243.23 258.302C243.441 255.108 243.749 251.784 243.253 248.602C242.973 246.783 241.962 247.095 240.103 246.372C238.244 245.65 236.163 245.643 234.142 245.647C230.006 245.647 219.226 245.361 216.669 248.953C215.496 250.6 215.404 252.677 215.348 254.638C215.281 257.01 214.857 260.078 214.465 263.386C214.291 264.856 214.398 266.325 214.17 267.786C213.915 269.424 213.287 270.998 212.738 272.56C210.652 278.491 212.606 284.13 219.084 286.846C223.734 288.794 230.37 289.227 235.732 287.523Z" fill="#FFBE9D"/>
<path d="M243.232 248.602C242.952 246.783 241.941 247.095 240.082 246.372C238.223 245.65 236.142 245.643 234.121 245.647C229.986 245.647 219.205 245.361 216.648 248.953C215.475 250.6 215.383 252.677 215.327 254.638C215.26 257.008 214.836 260.078 214.444 263.386C214.27 264.856 214.377 266.325 214.15 267.786C213.92 269.031 213.575 270.253 213.118 271.436C217.185 272.938 221.611 273.211 225.834 272.218C233.37 270.383 239.074 265.744 243.142 259.708C243.165 259.249 243.177 258.77 243.209 258.302C243.42 255.111 243.728 251.784 243.232 248.602Z" fill="#EB996E"/>
<path d="M249.236 225.236C249.203 219.771 248.441 214.587 247.02 210.281C240.891 191.698 217.48 187.109 203.383 200.45C187.661 215.319 193.678 250.871 210.235 263.37C212.468 265.028 215.05 266.166 217.789 266.7C220.527 267.234 223.353 267.151 226.054 266.455C242.326 262.126 249.34 242.309 249.236 225.236Z" fill="#FFBE9D"/>
<path d="M246.162 225.695C253.364 221.795 255.582 231.66 254.342 236.578C253.83 238.606 253.021 240.586 251.749 242.256C250.036 244.502 245.135 248.221 242.312 245.773C241.03 244.656 240.898 242.761 240.859 241.073C240.75 236.544 241.278 228.338 246.162 225.695Z" fill="#F8A17A"/>
<path d="M222.7 258.208C220.916 258.207 219.134 258.078 217.369 257.82L217.687 255.682C224.022 256.642 230.503 255.746 236.33 253.103C237.747 252.47 239.098 251.702 240.365 250.809C242.484 249.285 244.263 247.344 245.59 245.108L247.474 246.2C245.994 248.695 244.009 250.86 241.645 252.56C240.263 253.535 238.788 254.374 237.241 255.065C232.682 257.146 227.72 258.218 222.7 258.208Z" fill="#7CA4BF"/>
<path d="M211.062 253.977C213.695 251.741 219.553 251.931 221.493 254.255C222.925 255.976 222.487 258.155 220.911 259.616C219.057 261.337 216.739 261.238 214.421 260.718C211.495 260.068 207.889 256.673 211.062 253.977Z" fill="#7CA4BF"/>
<path d="M249.273 211.047C242.82 191.489 218.171 186.66 203.329 200.696C200.05 203.797 197.683 207.762 196.109 212.212C196.453 212.747 196.836 213.256 197.254 213.736C199.289 216.071 202.101 217.597 204.929 218.891C213.192 222.671 222.098 224.89 231.045 226.549C231.703 226.67 232.366 226.792 233.029 226.92C235.49 227.402 237.936 228.003 240.087 229.258C246.167 232.805 243.564 240.607 248.007 244.025C248.374 244.307 248.785 244.527 249.224 244.677C250.845 238.849 251.646 232.827 251.605 226.783C251.57 221.038 250.768 215.578 249.273 211.047Z" fill="#EB996E"/>
<path d="M233.667 224.688C236.019 225.551 238.337 226.523 240.259 228.109C245.69 232.571 241.849 239.859 245.696 243.938C249.104 247.552 254.273 242.777 255.636 239.439C258.134 233.291 257.986 226.448 257.803 219.822C257.701 216.128 257.59 212.382 256.496 208.847C255.302 204.993 252.975 201.554 250.207 198.596C242.213 190.06 230.15 185.621 218.47 186.35C209.335 186.919 193.314 194.515 200.474 206.016C202.108 208.643 204.646 210.59 207.221 212.316C214.769 217.363 223.201 220.948 231.768 223.997C232.399 224.231 233.034 224.456 233.667 224.688Z" fill="#0B2D4E"/>
<path d="M249.176 222.887C239.009 225.468 235.08 244.425 246.422 248.198C258.61 252.252 267.188 234.782 259.189 226.223C256.078 222.885 252.458 222.056 249.176 222.887Z" fill="#7CA4BF"/>
<path d="M252.518 225.319C245.499 226.436 241.176 241.195 248.408 245.255C256.18 249.614 263.475 236.478 258.901 228.909C257.119 225.957 254.776 224.961 252.518 225.319Z" fill="#7CA4BF"/>
<path d="M253.934 224.213L251.222 223.903C253.063 208.17 252.279 188.068 238.101 181.647C231.379 178.607 212.159 175.235 203.696 186.536C202.678 187.669 201.997 188.617 201.997 188.617C207.245 172.59 231.988 175.909 239.236 179.19C254.906 186.286 255.877 207.592 253.934 224.213Z" fill="#7CA4BF"/>
<path d="M203.049 372.737H147.299V383.54H203.049V372.737Z" fill="#ADCEE0"/>
<path d="M156.865 373.783L142.795 302.893C142.613 301.987 142.118 301.172 141.396 300.586C140.674 300.001 139.769 299.681 138.836 299.682H45.3036C44.6697 299.682 44.045 299.831 43.4808 300.117C42.9167 300.403 42.4292 300.818 42.0585 301.327L42.0469 301.315L37.7263 306.362L41.5578 305.529L55.4143 375.325C55.5967 376.231 56.091 377.046 56.813 377.632C57.5349 378.218 58.4398 378.537 59.3733 378.537H152.908C153.503 378.536 154.09 378.406 154.628 378.154C155.165 377.903 155.64 377.537 156.018 377.083C156.397 376.629 156.669 376.097 156.815 375.527C156.961 374.956 156.978 374.361 156.865 373.783Z" fill="#ADCEE0"/>
<path d="M55.0968 383.538H148.631C149.227 383.538 149.815 383.408 150.354 383.156C150.892 382.905 151.368 382.538 151.746 382.083C152.124 381.628 152.396 381.095 152.542 380.524C152.687 379.952 152.703 379.356 152.588 378.778L138.518 307.888C138.336 306.982 137.842 306.166 137.12 305.581C136.398 304.995 135.493 304.675 134.559 304.676H41.0271C40.4313 304.676 39.8428 304.806 39.304 305.058C38.7652 305.31 38.2894 305.676 37.9108 306.132C37.5323 306.587 37.2604 307.12 37.1147 307.692C36.9689 308.264 36.953 308.86 37.0681 309.439L51.1378 380.328C51.3207 381.234 51.8152 382.049 52.5371 382.634C53.259 383.219 54.1637 383.539 55.0968 383.538Z" fill="#D9EFFF"/>
<path d="M84.5181 342.342C85.3804 347.125 89.9977 351 94.8282 351C99.6587 351 102.823 347.125 101.891 342.342C100.959 337.558 96.3418 333.683 91.5785 333.683C86.8152 333.683 83.6536 337.561 84.5181 342.342Z" fill="#71A5C2"/>
<path d="M352.992 341.213C354.024 339.102 353.839 336.886 353.19 334.874C352.564 332.809 351.449 331.05 350.241 329.114C349.033 327.177 347.775 325.124 347.012 322.619C346.25 320.114 346.461 317.248 347.172 314.846C348.709 309.946 351.854 306.335 354.022 302.641C355.109 300.774 355.996 298.874 356.34 296.773C356.734 294.694 356.599 292.478 355.565 290.388C357.357 291.939 358.224 294.451 358.347 296.885C358.47 299.319 357.832 301.838 356.88 304.031C354.997 308.48 352.179 312.093 351.085 315.998C350.464 317.932 350.311 319.804 350.751 321.678C351.122 323.601 352.142 325.542 353.05 327.643C354.019 329.708 354.946 332.073 355.153 334.514C355.359 336.918 354.803 339.637 352.992 341.213Z" fill="white"/>
<path d="M340.056 343.895H367.853V377.566C367.853 379.087 367.242 380.546 366.155 381.622C365.069 382.697 363.595 383.302 362.058 383.302H345.851C344.314 383.302 342.84 382.697 341.753 381.622C340.667 380.546 340.056 379.087 340.056 377.566V343.895Z" fill="#455A64"/>
<path d="M369.793 352.819C363.129 352.819 357.723 358.245 357.723 364.939C357.723 371.633 363.129 377.059 369.793 377.059C376.457 377.059 381.862 371.633 381.862 364.939C381.862 358.245 376.459 352.819 369.793 352.819ZM369.793 372.737C365.505 372.737 362.028 369.245 362.028 364.937C362.028 360.628 365.505 357.137 369.793 357.137C374.081 357.137 377.558 360.628 377.558 364.937C377.558 369.245 374.081 372.737 369.793 372.737Z" fill="#455A64"/>
<path opacity="0.2" d="M344.21 368.355C343.812 368.354 343.431 368.197 343.149 367.918C342.868 367.64 342.709 367.262 342.708 366.869V347.689C342.709 347.295 342.868 346.918 343.149 346.639C343.431 346.361 343.812 346.204 344.21 346.203C344.608 346.204 344.989 346.361 345.271 346.639C345.552 346.918 345.711 347.295 345.712 347.689V366.869C345.711 367.262 345.552 367.64 345.271 367.918C344.989 368.197 344.608 368.354 344.21 368.355Z" fill="#455A64"/>
<path d="M361.432 343.906V376.346C361.432 378.194 360.69 379.966 359.37 381.272C358.05 382.579 356.26 383.313 354.393 383.313H360.813C362.68 383.313 364.471 382.579 365.791 381.272C367.111 379.966 367.853 378.194 367.853 376.346V343.906H361.432Z" fill="#455A64"/>
<path d="M293.112 206.816H387.986C393.235 206.816 397.49 202.605 397.49 197.41V147.778C397.49 142.584 393.235 138.372 387.986 138.372H293.112C287.863 138.372 283.608 142.584 283.608 147.778V197.41C283.608 202.605 287.863 206.816 293.112 206.816Z" fill="#FF725E"/>
<path d="M298.596 224.832V193.38L323.483 206.816L298.596 224.832Z" fill="#FF725E"/>
<path d="M355.243 169.704H303.039C301.887 169.704 300.953 170.628 300.953 171.768V173.611C300.953 174.751 301.887 175.675 303.039 175.675H355.243C356.395 175.675 357.329 174.751 357.329 173.611V171.768C357.329 170.628 356.395 169.704 355.243 169.704Z" fill="white"/>
<path d="M378.056 169.704H363.75C362.598 169.704 361.664 170.628 361.664 171.768V173.611C361.664 174.751 362.598 175.675 363.75 175.675H378.056C379.208 175.675 380.142 174.751 380.142 173.611V171.768C380.142 170.628 379.208 169.704 378.056 169.704Z" fill="white"/>
<path d="M325.852 162.117H378.056C379.208 162.117 380.142 161.193 380.142 160.052V158.21C380.142 157.07 379.208 156.145 378.056 156.145H325.852C324.7 156.145 323.766 157.07 323.766 158.21V160.052C323.766 161.193 324.7 162.117 325.852 162.117Z" fill="white"/>
<path d="M303.037 162.117H317.343C318.495 162.117 319.429 161.193 319.429 160.052V158.21C319.429 157.07 318.495 156.145 317.343 156.145H303.037C301.885 156.145 300.951 157.07 300.951 158.21V160.052C300.951 161.193 301.885 162.117 303.037 162.117Z" fill="white"/>
<path d="M338.462 182.101H303.039C301.887 182.101 300.953 183.026 300.953 184.166V186.008C300.953 187.149 301.887 188.073 303.039 188.073H338.462C339.614 188.073 340.548 187.149 340.548 186.008V184.166C340.548 183.026 339.614 182.101 338.462 182.101Z" fill="white"/>
<path d="M392.81 226.204C390.26 226.191 387.784 225.865 386.037 223.389C382.606 218.528 377.372 214.165 371.503 219.109C368.117 221.958 370.662 227.826 367.748 230.644C365.173 233.137 361.896 232.727 360.577 236.868C358.639 242.959 364.749 248.295 366.71 253.562C368.356 257.983 364.654 259.667 363.001 263.111C361.719 265.767 362.378 268.617 363.775 271.14C366.239 275.616 371.7 279.22 370.435 285.017C369.38 289.854 368.397 294.164 372.711 297.833C375.666 300.356 381.15 302.634 380.733 307.287C380.585 308.934 379.435 310.336 379.111 311.96C378.61 314.527 380.291 317.028 382.242 318.79C386.686 322.8 390.587 326.59 393.913 331.637C395.334 333.794 401.027 338.662 398.75 341.61C402.886 336.251 407.255 331.057 411.012 325.422C414.102 320.788 418.761 314.011 415.59 308.306C414.603 306.53 412.769 305.206 412.266 303.242C411.36 299.698 414.881 296.41 416.188 293.393C418.244 288.656 416.735 283.155 413.117 279.599C411.404 277.917 409.545 276.068 409.295 273.691C409.019 271.099 410.662 268.681 411.406 266.288C412.08 264.056 412.538 261.765 412.774 259.447C412.95 257.829 413.019 256.175 412.635 254.592C411.902 251.585 409.158 249.912 407.139 247.776C402.315 242.695 404.851 236.721 402.735 230.813C400.853 225.516 396.743 226.23 392.81 226.204Z" fill="#B5D8F0"/>
<path d="M399.265 347.655C401.057 327.338 399.411 306.858 395.619 286.848C392.001 267.758 387.254 248.604 380.054 230.51C377.689 224.524 374.99 218.671 371.969 212.981" stroke="#D1EDFE" stroke-miterlimit="10"/>
<path d="M355.762 240.226C365.88 243.764 375.491 248.587 384.354 254.574C386.598 256.09 387.849 256.556 389.72 258.506" stroke="#D1EDFE" stroke-miterlimit="10"/>
<path d="M394.509 280.275C384.773 274.057 373.851 269.884 362.419 268.015" stroke="#D1EDFE" stroke-miterlimit="10"/>
<path d="M398.347 306.486C389.267 298.717 378.376 293.306 366.657 290.741" stroke="#D1EDFE" stroke-miterlimit="10"/>
<path d="M389.219 257.838C389.93 247.056 392.618 236.492 397.153 226.663" stroke="#D1EDFE" stroke-miterlimit="10"/>
<path d="M394.388 279.39C398.998 269.649 405.577 260.948 413.72 253.824" stroke="#D1EDFE" stroke-miterlimit="10"/>
<path d="M398.948 307.232C399.584 304.225 400.691 301.336 402.23 298.668C404.017 295.573 406.353 292.827 408.734 290.149C410.447 288.222 412.191 286.32 413.963 284.444" stroke="#D1EDFE" stroke-miterlimit="10"/>
<path d="M424.132 263.241C425.986 263.578 427.826 263.682 429.44 262.126C432.606 259.07 437.014 256.62 440.582 261.011C442.638 263.535 439.972 267.449 441.69 269.894C443.21 272.055 445.644 272.204 446.022 275.4C446.576 280.085 441.386 283.12 439.237 286.671C437.427 289.654 439.877 291.381 440.6 294.107C441.159 296.208 440.283 298.181 438.915 299.842C436.502 302.751 432.036 304.616 432.142 308.994C432.233 312.648 432.342 315.911 428.7 317.978C426.206 319.398 421.906 320.306 421.559 323.738C421.436 324.952 422.076 326.129 422.076 327.349C422.076 329.279 420.511 330.862 418.849 331.873C415.066 334.168 411.708 336.384 408.588 339.589C407.255 340.965 402.445 343.718 403.683 346.161C401.435 341.706 398.991 337.338 397.054 332.738C395.459 328.953 393.03 323.401 396.127 319.694C397.091 318.547 398.607 317.833 399.244 316.482C400.403 314.032 398.317 311.166 397.779 308.799C396.949 305.08 398.813 301.297 401.935 299.214C403.414 298.227 405.02 297.149 405.535 295.451C406.096 293.616 405.243 291.629 405.037 289.792C404.862 288.08 404.85 286.357 405.002 284.643C405.099 283.446 405.282 282.235 405.783 281.14C406.733 279.059 408.952 278.22 410.72 276.949C414.929 273.925 413.926 269.243 416.283 265.249C418.395 261.638 421.276 262.718 424.132 263.241Z" fill="#E1F3FF"/>
<path d="M398.466 351.451C400.007 336.468 404.066 321.838 409.615 307.842C414.909 294.492 421.031 281.248 428.784 269.109C431.336 265.09 434.112 261.215 437.098 257.501" stroke="#D0E6F5" stroke-miterlimit="10"/>
<path d="M445.044 279.486C437.21 280.664 429.564 282.846 422.299 285.976C420.458 286.768 419.487 286.933 417.858 288.094" stroke="#D0E6F5" stroke-miterlimit="10"/>
<path d="M411.337 303.226C419.269 300.05 427.775 298.519 436.329 298.729" stroke="#D0E6F5" stroke-miterlimit="10"/>
<path d="M404.88 321.724C412.554 317.334 421.211 314.902 430.071 314.646" stroke="#D0E6F5" stroke-miterlimit="10"/>
<path d="M418.323 287.676C419.316 279.76 418.844 271.731 416.933 263.982" stroke="#D0E6F5" stroke-miterlimit="10"/>
<path d="M411.551 302.6C409.57 294.903 406.014 287.69 401.104 281.408" stroke="#D0E6F5" stroke-miterlimit="10"/>
<path d="M404.349 322.183C404.308 319.917 403.909 317.673 403.167 315.53C402.304 313.038 400.992 310.728 399.641 308.459C398.665 306.826 397.665 305.207 396.644 303.604" stroke="#D0E6F5" stroke-miterlimit="10"/>
<path d="M384.458 345.262H422.305L415.667 382.751H391.099L384.458 345.262Z" fill="#FFCAC5"/>
<path d="M379.825 345.262H426.938V334.739H379.825V345.262Z" fill="#FFCAC5"/>
<path opacity="0.1" d="M421.427 350.234H385.339L384.458 345.262H422.305L421.427 350.234Z" fill="#231F20"/>
<path d="M247.245 366.745C248.38 366.552 249.518 366.367 250.657 366.19C256.193 365.33 261.707 364.31 267.197 363.129C278.061 360.791 288.986 358.782 300.049 357.745C301.222 357.637 302.395 357.536 303.568 357.449C308.526 357.079 313.722 356.958 318.261 359.305C322.799 361.652 326.408 367.201 325.3 372.554C324.521 376.314 321.617 379.142 318.388 380.569C315.159 381.996 311.608 382.244 308.122 382.478L274.246 384.731C268.655 385.1 263.065 385.482 257.476 385.878C252.145 386.247 246.718 386.993 241.366 386.988C239.102 386.988 236.573 386.564 234.67 385.07C232.025 382.99 230.433 378.564 230.178 375.107C230.043 373.311 230.41 371.131 231.8 370.018C232.544 369.424 233.49 369.243 234.401 369.076C238.68 368.284 242.949 367.47 247.245 366.745Z" fill="#7CA4BF"/>
<path d="M234.573 383.774C231.842 384.332 229.705 386.706 226.989 387.5C225.051 388.066 222.974 387.764 221.11 387.073C219.397 386.435 217.654 386.096 215.895 385.538C214.525 385.105 212.673 384.189 211.201 384.492C207.342 385.288 203.492 388.007 199.994 389.769C199.206 390.166 198.346 390.574 197.477 390.411C196.608 390.248 195.887 389.209 196.38 388.484C195.375 389.413 194.042 391.276 192.417 390.549C191.754 390.253 191.353 389.383 191.721 388.762C191.163 389.367 190.576 389.994 189.805 390.294C189.033 390.595 188.024 390.464 187.57 389.778C187.374 389.442 187.272 389.06 187.273 388.672C187.206 387.346 187.612 386.036 188.17 384.829C190.926 378.878 197.157 374.462 202.46 370.915C203.388 370.289 204.354 369.654 205.437 369.325C206.405 369.032 207.432 369 208.45 368.995C215.041 368.973 221.592 370.026 227.837 372.113C229.184 372.572 230.669 372.179 232.009 371.929C233.004 371.746 234.044 371.562 235.022 371.842C236.11 372.159 236.953 373.01 237.616 373.921C238.833 375.593 239.765 377.821 239.619 379.911C239.51 381.517 239.387 383.228 237.491 383.563C236.721 383.698 235.929 383.614 235.152 383.694C234.958 383.711 234.764 383.738 234.573 383.774Z" fill="#FFBE9D"/>
<path d="M434.562 385.988H33.5356C29.4515 385.988 26.1392 385.249 26.1392 384.336C26.1392 383.419 29.4515 382.687 33.5356 382.687H434.562C438.646 382.687 441.959 383.426 441.959 384.336C441.959 385.249 438.646 385.988 434.562 385.988Z" fill="#455A64"/>
<path d="M121.609 147.636H106.624C103.552 147.643 100.608 148.854 98.4364 151.003C96.2644 153.153 95.0412 156.067 95.0344 159.107C95.0379 160.963 95.4966 162.791 96.3711 164.434C97.2456 166.076 98.5097 167.484 100.055 168.536V176.602L108.399 170.569H121.612C124.683 170.562 127.627 169.351 129.799 167.202C131.971 165.052 133.194 162.138 133.201 159.098C133.192 156.059 131.967 153.147 129.795 150.999C127.623 148.851 124.68 147.642 121.609 147.636Z" fill="#FFCAC5"/>
<path d="M105.727 160.837C106.697 160.837 107.484 160.058 107.484 159.098C107.484 158.137 106.697 157.359 105.727 157.359C104.757 157.359 103.97 158.137 103.97 159.098C103.97 160.058 104.757 160.837 105.727 160.837Z" fill="white"/>
<path d="M114.118 160.837C115.088 160.837 115.875 160.058 115.875 159.098C115.875 158.137 115.088 157.359 114.118 157.359C113.147 157.359 112.361 158.137 112.361 159.098C112.361 160.058 113.147 160.837 114.118 160.837Z" fill="white"/>
<path d="M122.509 160.837C123.479 160.837 124.266 160.058 124.266 159.098C124.266 158.137 123.479 157.359 122.509 157.359C121.538 157.359 120.752 158.137 120.752 159.098C120.752 160.058 121.538 160.837 122.509 160.837Z" fill="white"/>
<path d="M348.06 248.038C345.742 244.126 339.92 242.163 334.282 248.68C328.648 242.163 322.818 244.126 320.507 248.038C314.817 257.673 334.282 269.02 334.282 269.02C334.282 269.02 353.751 257.678 348.06 248.038Z" fill="#FFCAC5"/>
<path d="M216.563 126.97H187.598C186.062 126.97 184.816 128.203 184.816 129.723V147.019C184.816 148.539 186.062 149.772 187.598 149.772H216.563C218.099 149.772 219.344 148.539 219.344 147.019V129.723C219.344 128.203 218.099 126.97 216.563 126.97Z" fill="#FFCAC5"/>
<path d="M185.375 127.702L200.499 142.211C200.929 142.611 201.498 142.834 202.088 142.834C202.679 142.834 203.247 142.611 203.677 142.211L218.795 127.702" stroke="white" stroke-width="4" stroke-miterlimit="10"/>
<path d="M185.375 149.038L197.778 139.607" stroke="white" stroke-width="4" stroke-miterlimit="10"/>
<path d="M218.788 149.038L206.385 139.607" stroke="white" stroke-width="4" stroke-miterlimit="10"/>
<path d="M157.84 211.331H123.517C121.981 211.331 120.735 212.564 120.735 214.084V235.998C120.735 237.519 121.981 238.751 123.517 238.751H157.84C159.377 238.751 160.622 237.519 160.622 235.998V214.084C160.622 212.564 159.377 211.331 157.84 211.331Z" fill="#FFCAC5"/>
<path d="M140.676 247.416L147.67 238.081H133.683L140.676 247.416Z" fill="#FFCAC5"/>
<path d="M151.17 228.567H149.445V223.892L149.461 223.123L149.489 222.284C149.204 222.568 149.005 222.754 148.893 222.841L147.955 223.589L147.123 222.561L149.753 220.496H151.17V228.567Z" fill="white"/>
<path d="M138.379 220.217H132.719C131.56 220.22 130.449 220.677 129.629 221.488C128.809 222.299 128.346 223.398 128.343 224.546C128.344 225.247 128.517 225.938 128.848 226.559C129.179 227.179 129.657 227.711 130.241 228.109V231.157L133.389 228.877H138.379C139.539 228.874 140.65 228.417 141.47 227.605C142.29 226.793 142.752 225.693 142.756 224.546C142.752 223.398 142.29 222.299 141.47 221.488C140.65 220.677 139.539 220.22 138.379 220.217Z" fill="white"/>
<path d="M466 386.059H1.25854V459.998H466V386.059Z" fill="white"/>
<path d="M37.9768 75.6936C37.745 74.3768 39.5182 71.7224 41.4397 71.7637C42.2023 71.7821 42.951 71.9771 43.7136 71.9403C45.7464 71.8417 46.8011 70.2748 47.5845 68.9786C48.368 67.6824 49.9279 66.2004 51.9213 66.5307C54.7747 67.0033 56.2118 70.7313 59.4545 67.9324C61.5778 66.0971 61.7377 63.5414 64.1414 61.7657C65.7917 60.5475 68.4735 59.8249 70.6872 60.4994C73.573 61.378 74.6461 64.2113 77.722 64.7023C81.127 65.2483 83.5747 62.6857 84.6618 60.8366C85.9807 58.5929 86.4698 56.168 87.5986 53.8853C88.644 51.7701 90.7487 48.9391 94.5153 49.001C97.7001 49.0538 99.1048 51.0497 100.669 52.635C102.702 54.6997 106.928 62.0938 111.668 61.2037C113.522 60.8549 114.449 59.4027 116.107 58.7512C118.788 57.7051 122.205 59.1435 123.821 60.9513C125.436 62.7591 126.076 64.9431 127.903 66.6523C128.399 67.1491 129.013 67.5143 129.69 67.7145C132.239 68.4028 134.613 66.2806 137.339 66.1224C138.21 66.0924 139.078 66.2398 139.889 66.5556C140.7 66.8713 141.436 67.3485 142.053 67.9577C143.138 69.0245 143.727 70.2886 144.557 71.4586C144.782 71.8211 145.094 72.123 145.465 72.3372C146.664 72.9727 148.349 72.4359 149.816 72.1881C153.439 71.5687 157.558 73.2159 158.58 75.6913L37.9768 75.6936Z" fill="#D9EFFF"/>
<path d="M420.256 62.9564C420.451 61.7978 418.898 59.4555 417.206 59.4922C416.531 59.5083 415.873 59.6803 415.201 59.6482C413.407 59.561 412.48 58.1799 411.789 57.0374C411.098 55.8949 409.721 54.5896 407.976 54.8809C405.461 55.2985 404.193 58.5814 401.335 56.1152C399.464 54.5093 399.323 52.2449 397.204 50.6803C395.749 49.6067 393.385 48.9689 391.435 49.5631C388.885 50.3385 387.944 52.8345 385.235 53.2681C382.222 53.7499 380.075 51.4902 379.118 49.8613C377.959 47.8837 377.523 45.7456 376.526 43.7336C375.599 41.8707 373.745 39.3747 370.43 39.4275C367.623 39.4733 366.386 41.233 365.006 42.6393C363.215 44.4563 359.49 50.9786 355.311 50.1917C353.688 49.8865 352.867 48.6041 351.398 48.0329C349.036 47.1152 346.023 48.377 344.599 49.9714C343.176 51.5659 342.611 53.4884 341.002 54.9979C340.564 55.4346 340.022 55.7556 339.426 55.9317C337.18 56.5419 335.087 54.6699 332.681 54.5299C331.914 54.5021 331.149 54.6303 330.435 54.9065C329.72 55.1827 329.07 55.6011 328.525 56.1358C327.572 57.0787 327.051 58.2006 326.32 59.2238C326.12 59.542 325.845 59.8073 325.518 59.9969C324.461 60.559 322.969 60.0864 321.685 59.8661C318.49 59.3224 314.861 60.7838 313.959 62.9541L420.256 62.9564Z" fill="#D9EFFF"/>
</svg>